<svg width="69" height="69" viewBox="0 0 69 69" fill="none" xmlns="http://www.w3.org/2000/svg">
<path fill-rule="evenodd" clip-rule="evenodd" d="M26.1128 0.799079C21.8884 1.82485 16.436 4.58363 12.8236 7.52279C-4.27453 21.4343 -4.27453 47.4603 12.8236 61.3718C25.3241 71.5427 43.6759 71.5427 56.1764 61.3718C73.2745 47.4603 73.2745 21.4343 56.1764 7.52279C52.4546 4.49458 47.1065 1.82998 42.6262 0.772251C38.2223 -0.268357 30.4546 -0.255229 26.1128 0.799079ZM41.3184 7.63752C46.2027 8.9116 50.0014 11.1486 53.8804 15.0342C59.3591 20.5221 62.1383 27.0552 62.1383 34.4473C62.1383 41.8394 59.3591 48.3725 53.8804 53.8604C48.4018 59.3483 41.8797 62.1322 34.5 62.1322C27.1203 62.1322 20.5982 59.3483 15.1196 53.8604C9.64092 48.3725 6.86171 41.8394 6.86171 34.4473C6.86171 27.0552 9.64092 20.5221 15.1196 15.0342C22.2736 7.86813 31.845 5.16587 41.3184 7.63752ZM33.0753 14.5764C29.8545 15.8071 29.096 20.0597 31.7276 22.133C34.7969 24.5515 38.774 22.6684 38.774 18.7965C38.774 17.4694 38.3916 16.298 37.7767 15.7432C36.6068 14.6872 34.2897 14.1118 33.0753 14.5764ZM32.3169 29.7397C31.4421 30.3802 31.3566 31.6394 31.4957 41.848L31.6507 53.2416L33.1523 54.0853C34.4989 54.8422 34.8072 54.8279 36.1441 53.9506L37.6342 52.9728V41.5894C37.6342 30.9196 37.5653 30.1696 36.5321 29.6153C35.0562 28.8241 33.5039 28.8704 32.3169 29.7397Z" fill="white"/>
</svg>
