<svg width="40" height="70" viewBox="0 0 40 70" fill="none" xmlns="http://www.w3.org/2000/svg">
<path fill-rule="evenodd" clip-rule="evenodd" d="M3.66862 0.159624C1.1931 0.840818 -0.373983 3.24223 0.0773049 5.66322C0.387637 7.32838 -0.261193 6.62557 14.4756 21.2597C22.0032 28.7348 28.1455 34.8994 28.1252 34.9587C28.105 35.0179 23.0959 40.0888 16.9941 46.2272C1.18431 62.1317 1.06463 62.2554 0.652471 63.1332C0.3466 63.7845 0.305052 64.0257 0.305052 65.1474C0.305052 66.3305 0.335001 66.4823 0.723204 67.2691C1.91559 69.6859 4.75905 70.67 7.23126 69.5214C7.86442 69.2272 11.2337 65.8969 29.9029 47.1115C38.155 38.8079 39.1468 37.767 39.5126 37.0259C40.2533 35.5245 40.1415 33.6084 39.2335 32.2404C39.0248 31.9262 35.8011 28.6508 32.0693 24.9616C28.3377 21.2725 21.3847 14.378 16.6182 9.64066C11.1639 4.21984 7.72818 0.899058 7.34826 0.681106C6.18913 0.0160604 4.87006 -0.170864 3.66862 0.159624Z" fill="#6F6E6E"/>
</svg>
