<svg width="58" height="99" viewBox="0 0 58 99" fill="none" xmlns="http://www.w3.org/2000/svg">
<path fill-rule="evenodd" clip-rule="evenodd" d="M8.73023 0.14875C7.28112 0.726702 6.89093 1.04964 3.94071 4.11117C1.43805 6.70813 0.935299 7.29625 0.592526 8.02642C0.0653006 9.14995 -0.113925 10.2971 0.070272 11.371C0.379265 13.173 0.073586 12.8079 9.80571 22.9997C14.7451 28.1724 22.4617 36.21 26.9535 40.8608C31.4455 45.5117 35.1207 49.4058 35.1207 49.5141C35.1207 49.6226 28.8235 56.2525 21.127 64.2474C1.34831 84.793 0.898332 85.2712 0.50712 86.1569C-0.190918 87.7375 -0.161727 89.3984 0.592526 91.0055C0.935426 91.7362 1.43626 92.3214 3.94071 94.918C6.65268 97.7297 6.96575 98.0119 7.89949 98.4856C8.87401 98.98 8.96324 99 10.2009 99C11.4358 99 11.5299 98.9791 12.5012 98.4894C13.5094 97.9811 13.6156 97.8736 35.2649 75.4321C55.4122 54.5474 57.045 52.8221 57.4152 52.0261C58.1949 50.3492 58.1949 48.6827 57.4152 47.0058C57.045 46.2101 55.4074 44.4789 35.2649 23.5911L13.5141 1.0355L12.4988 0.538544C11.5927 0.0951036 11.3595 0.0377576 10.3318 0.00551703C9.58811 -0.0177385 9.02073 0.0330008 8.73023 0.14875Z" fill="white"/>
</svg>
