<svg width="62" height="46" viewBox="0 0 62 46" fill="none" xmlns="http://www.w3.org/2000/svg">
<path fill-rule="evenodd" clip-rule="evenodd" d="M6.13455 0.188473C3.57122 0.710917 0.959133 2.97323 0.286042 5.25451C0.0351362 6.10533 -0.0451415 11.7375 0.0234351 23.6946L0.121913 40.9102L1.09694 42.457C1.7749 43.533 2.61635 44.308 3.8595 45.002L5.64704 46H30.9976H56.3482L57.6482 45.3066C59.1693 44.495 60.4196 43.2364 61.2675 41.6624C61.833 40.6127 61.8795 39.4055 61.9666 23.5086C62.0501 8.27543 62.003 6.33185 61.5204 5.08004C60.793 3.19301 59.2554 1.5325 57.4857 0.722484C56.0479 0.0644484 55.6104 0.0522383 31.6476 0.00500628C18.2411 -0.0216621 6.76019 0.0609145 6.13455 0.188473ZM56.6687 4.44482C57.1614 4.82781 57.7662 5.61855 58.0126 6.20172C58.5778 7.539 58.6064 11.7992 58.0545 12.4826C57.579 13.0719 35.3654 29.1067 33.5902 30.1422C31.9635 31.0911 30.0171 31.0593 28.1974 30.0539C26.9532 29.3663 15.822 21.4329 6.54081 14.6187L3.53449 12.4113V9.50443C3.53449 6.3643 3.77857 5.58449 5.10883 4.47277L5.97205 3.75144L30.8725 3.74983L55.7729 3.74822L56.6687 4.44482ZM58.4559 28.4188C58.4611 39.686 58.3811 40.2769 56.6687 41.6084L55.7729 42.305H31.1C4.0233 42.305 5.06918 42.3789 4.02753 40.3877C3.61509 39.5993 3.53449 37.6554 3.53449 28.5049C3.53449 21.2372 3.64662 17.5644 3.86795 17.5644C4.05158 17.5644 9.2556 21.1968 15.433 25.6366C23.0658 31.1226 27.1502 33.8582 28.1808 34.175C30.1461 34.779 33.2256 34.5589 34.9071 33.694C35.617 33.3293 41.0966 29.4913 47.0839 25.1652C54.2727 19.9713 58.0519 17.4266 58.2105 17.673C58.3428 17.8783 58.453 22.714 58.4559 28.4188Z" fill="#F79732"/>
</svg>
