<svg width="44" height="63" viewBox="0 0 44 63" fill="none" xmlns="http://www.w3.org/2000/svg">
<path fill-rule="evenodd" clip-rule="evenodd" d="M16.068 1.192C10.055 2.534 2.84 9.752 1.022 16.246C-0.716999 22.458 0.0590012 29.742 3.045 35.236C5.881 40.454 21.225 62.937 21.951 62.939C23.11 62.942 41.172 35.624 42.5 31.861C47.194 18.557 39.803 3.85 27.048 1.114C24.191 0.500998 21.336 0.441 20.951 0.5C20.565 0.559 18.479 0.653998 16.068 1.192ZM33.37 5.844C39.132 10.018 41.957 15.819 41.925 23.407C41.909 27.041 41.203 30.977 40.175 33.16C38.312 37.116 22.773 59.953 21.951 59.944C21.676 59.941 17.176 53.615 11.951 45.886C11.951 45.886 4.67564 37.8986 2.951 31.5C2.13161 28.46 1.951 23.5 1.951 23.5C1.951 16.235 2.768 14.874 5.134 11.3C11.274 2.022 24.552 -0.544003 33.37 5.844ZM20.451 14.789C11.187 16.765 13.443 30 23.044 30C26.002 30 29.956 25.569 29.919 22.295C29.864 17.434 25.239 13.767 20.451 14.789ZM25.728 17.557C28.368 19.405 28.712 24.096 26.38 26.429C24.047 28.761 19.356 28.417 17.508 25.777C15.37 22.726 15.556 20.446 18.14 18.039C20.762 15.596 22.749 15.47 25.728 17.557Z" fill="#F79732"/>
</svg>
