<svg width="60" height="60" viewBox="0 0 60 60" fill="none" xmlns="http://www.w3.org/2000/svg">
<path fill-rule="evenodd" clip-rule="evenodd" d="M9.48505 0.84611C8.54478 1.33555 6.29839 3.23788 4.49345 5.07384C0.00672988 9.63604 -0.679387 11.886 0.525302 18.0817C2.65697 29.0436 13.0627 43.2106 25.0659 51.4941C27.6477 53.2758 33.6537 56.6513 34.9389 57.0435C35.4613 57.2026 36.4878 57.6328 37.2203 57.9994C37.9527 58.3659 40.2891 59.0288 42.4125 59.4726C48.4241 60.7294 50.7226 59.9409 55.7233 54.9074C59.8818 50.7219 60.7715 48.5235 59.4046 45.8109C58.6714 44.3558 50.3655 35.9116 48.9195 35.151C48.355 34.8546 47.1397 34.6118 46.218 34.6118C44.2277 34.6118 42.5986 35.5847 39.418 38.6733C37.3373 40.694 37.2058 40.7604 36.1888 40.3007C34.5316 39.5518 30.6159 36.674 28.0675 34.3324C24.1708 30.7514 19.3627 24.392 19.3627 22.8189C19.3627 22.5244 20.2049 21.564 21.2341 20.6843C24.7722 17.6598 26.0984 14.9599 25.3208 12.3638C24.7536 10.4701 16.1692 1.68623 13.854 0.630802C11.9191 -0.251548 11.5597 -0.233826 9.48505 0.84611ZM13.854 3.61834C15.8649 5.18319 22.8179 12.5648 23.0147 13.3434C23.3198 14.5485 22.2504 16.1447 19.0033 19.3302C17.5292 20.7763 16.3238 22.2186 16.3242 22.5353C16.3257 23.4867 18.5838 27.4599 20.7581 30.3369C23.161 33.5164 28.441 38.5798 31.2473 40.3954C34.5005 42.5002 36.6755 43.6616 37.3635 43.6616C37.7198 43.6616 39.5278 42.2355 41.381 40.4923C43.2342 38.7491 45.0984 37.2132 45.5243 37.0794C46.7973 36.6782 48.1996 37.7031 52.8896 42.4621C58.5137 48.1691 58.5164 48.1857 54.5992 52.269C51.3361 55.6702 51.0485 55.927 49.5654 56.7614C44.9879 59.3365 31.3283 53.8979 21.8321 45.7192C14.8752 39.7276 9.51354 32.9338 6.056 25.7299C3.91142 21.2616 2.98824 18.3279 2.74585 15.2122C2.47574 11.7375 3.09422 10.337 6.39183 6.95091C10.7205 2.50636 11.8036 2.02257 13.854 3.61834Z" fill="#F79732"/>
</svg>
