<svg width="57" height="57" viewBox="0 0 57 57" fill="none" xmlns="http://www.w3.org/2000/svg">
<path fill-rule="evenodd" clip-rule="evenodd" d="M25.08 0.256462C20.5462 0.80282 16.8693 2.13936 12.9879 4.65147C4.68608 10.0244 0 18.7066 0 28.7142C0 38.4166 4.78491 47.1679 12.9879 52.469C24.3823 59.8325 39.7772 58.0598 48.9852 48.3244C51.3481 45.8263 52.6436 43.9377 54.1779 40.7552C62.6663 23.1481 51.1023 2.43981 31.5674 0.265105C28.4082 -0.0866145 27.9332 -0.0872105 25.08 0.256462ZM35.178 4.40199C46.1335 7.52633 53.576 17.3146 53.5461 28.5589C53.5169 39.4852 46.6297 48.9247 36.1272 52.4326C31.2378 54.0657 25.229 53.9936 20.2061 52.2416C7.18752 47.7008 0.311112 33.6597 4.66488 20.5084C7.33262 12.4504 14.6043 5.90544 22.9004 4.09587C26.354 3.34236 31.9522 3.48215 35.178 4.40199ZM27.1706 11.4194C26.9025 11.7416 26.7556 14.2284 26.6421 20.3641C26.4997 28.0769 26.532 28.9139 26.9924 29.4218C27.2712 29.7294 29.9482 31.606 32.9408 33.5921C38.7391 37.4395 39.9143 37.8965 40.6207 36.579C41.3107 35.2919 40.7712 34.7298 35.3888 31.1273L30.1557 27.625V19.8756C30.1557 15.1035 30.0369 11.9044 29.8467 11.5494C29.4681 10.8432 27.7203 10.7583 27.1706 11.4194Z" fill="#F79732"/>
</svg>
