<svg width="30" height="30" viewBox="0 0 30 30" fill="none" xmlns="http://www.w3.org/2000/svg">
<path d="M29.5 15C29.5 23.0081 23.0081 29.5 15 29.5C6.99187 29.5 0.5 23.0081 0.5 15C0.5 6.99187 6.99187 0.5 15 0.5C23.0081 0.5 29.5 6.99187 29.5 15Z" stroke="#F2F2F2"/>
<mask id="path-2-inside-1" fill="white">
<path fill-rule="evenodd" clip-rule="evenodd" d="M17.8293 8H12.1706C9.87091 8 8 9.87091 8 12.1706V17.8293C8 20.1289 9.87091 22 12.1707 22H17.8294C20.129 22 22 20.129 22 17.8293V12.1706C22 9.87091 20.129 8 17.8293 8ZM20.5916 17.8294C20.5916 19.3549 19.3549 20.5916 17.8294 20.5916H12.1707C10.6451 20.5916 9.40844 19.3549 9.40844 17.8294V12.1707C9.40844 10.6451 10.6451 9.40839 12.1707 9.40839H17.8294C19.3549 9.40839 20.5916 10.6452 20.5916 12.1707V17.8294ZM15.0002 11.3792C13.0036 11.3792 11.3792 13.0036 11.3792 15.0002C11.3792 16.9966 13.0036 18.621 15.0002 18.621C16.9967 18.621 18.621 16.9967 18.621 15.0002C18.621 13.0036 16.9967 11.3792 15.0002 11.3792ZM15.0002 17.2126C13.7783 17.2126 12.7876 16.2222 12.7876 15.0002C12.7876 13.7782 13.7783 12.7876 15.0002 12.7876C16.2221 12.7876 17.2126 13.7782 17.2126 15.0002C17.2126 16.2221 16.2221 17.2126 15.0002 17.2126ZM18.6276 12.2737C19.1068 12.2737 19.4952 11.8852 19.4952 11.4061C19.4952 10.9268 19.1069 10.5384 18.6276 10.5384C18.1484 10.5384 17.7599 10.9269 17.7599 11.4061C17.7599 11.8852 18.1484 12.2737 18.6276 12.2737Z"/>
</mask>
<path fill-rule="evenodd" clip-rule="evenodd" d="M17.8293 8H12.1706C9.87091 8 8 9.87091 8 12.1706V17.8293C8 20.1289 9.87091 22 12.1707 22H17.8294C20.129 22 22 20.129 22 17.8293V12.1706C22 9.87091 20.129 8 17.8293 8ZM20.5916 17.8294C20.5916 19.3549 19.3549 20.5916 17.8294 20.5916H12.1707C10.6451 20.5916 9.40844 19.3549 9.40844 17.8294V12.1707C9.40844 10.6451 10.6451 9.40839 12.1707 9.40839H17.8294C19.3549 9.40839 20.5916 10.6452 20.5916 12.1707V17.8294ZM15.0002 11.3792C13.0036 11.3792 11.3792 13.0036 11.3792 15.0002C11.3792 16.9966 13.0036 18.621 15.0002 18.621C16.9967 18.621 18.621 16.9967 18.621 15.0002C18.621 13.0036 16.9967 11.3792 15.0002 11.3792ZM15.0002 17.2126C13.7783 17.2126 12.7876 16.2222 12.7876 15.0002C12.7876 13.7782 13.7783 12.7876 15.0002 12.7876C16.2221 12.7876 17.2126 13.7782 17.2126 15.0002C17.2126 16.2221 16.2221 17.2126 15.0002 17.2126ZM18.6276 12.2737C19.1068 12.2737 19.4952 11.8852 19.4952 11.4061C19.4952 10.9268 19.1069 10.5384 18.6276 10.5384C18.1484 10.5384 17.7599 10.9269 17.7599 11.4061C17.7599 11.8852 18.1484 12.2737 18.6276 12.2737Z" fill="#F2F2F2"/>
<path d="M22 12.1706L24 12.1706L24 12.1706L22 12.1706ZM12.1706 10H17.8293V6H12.1706V10ZM10 12.1706C10 10.9755 10.9755 10 12.1706 10V6C8.76634 6 6 8.76634 6 12.1706H10ZM10 17.8293V12.1706H6V17.8293H10ZM12.1707 20C10.9755 20 10 19.0244 10 17.8293H6C6 21.2335 8.76629 24 12.1707 24V20ZM17.8294 20H12.1707V24H17.8294V20ZM20 17.8293C20 19.0244 19.0244 20 17.8294 20V24C21.2335 24 24 21.2336 24 17.8293H20ZM20 12.1706V17.8293H24V12.1706H20ZM17.8293 10C19.0245 10 20 10.9755 20 12.1707L24 12.1706C24 8.76631 21.2336 6 17.8293 6V10ZM17.8294 22.5916C20.4595 22.5916 22.5916 20.4595 22.5916 17.8294H18.5916C18.5916 18.2503 18.2503 18.5916 17.8294 18.5916V22.5916ZM12.1707 22.5916H17.8294V18.5916H12.1707V22.5916ZM7.40844 17.8294C7.40844 20.4595 9.54056 22.5916 12.1707 22.5916V18.5916C11.7497 18.5916 11.4084 18.2503 11.4084 17.8294H7.40844ZM7.40844 12.1707V17.8294H11.4084V12.1707H7.40844ZM12.1707 7.40839C9.54052 7.40839 7.40844 9.54061 7.40844 12.1707H11.4084C11.4084 11.7497 11.7497 11.4084 12.1707 11.4084V7.40839ZM17.8294 7.40839H12.1707V11.4084H17.8294V7.40839ZM22.5916 12.1707C22.5916 9.54068 20.4595 7.40839 17.8294 7.40839V11.4084C18.2503 11.4084 18.5916 11.7497 18.5916 12.1707H22.5916ZM22.5916 17.8294V12.1707H18.5916V17.8294H22.5916ZM13.3792 15.0002C13.3792 14.1082 14.1082 13.3792 15.0002 13.3792V9.37923C11.8991 9.37923 9.37923 11.8991 9.37923 15.0002H13.3792ZM15.0002 16.621C14.1082 16.621 13.3792 15.892 13.3792 15.0002H9.37923C9.37923 18.1012 11.8991 20.621 15.0002 20.621V16.621ZM16.621 15.0002C16.621 15.8922 15.8922 16.621 15.0002 16.621V20.621C18.1013 20.621 20.621 18.1013 20.621 15.0002H16.621ZM15.0002 13.3792C15.8921 13.3792 16.621 14.1081 16.621 15.0002H20.621C20.621 11.8992 18.1014 9.37923 15.0002 9.37923V13.3792ZM10.7876 15.0002C10.7876 17.3269 12.6739 19.2126 15.0002 19.2126V15.2126C14.8826 15.2126 14.7876 15.1174 14.7876 15.0002H10.7876ZM15.0002 10.7876C12.6737 10.7876 10.7876 12.6736 10.7876 15.0002H14.7876C14.7876 14.8828 14.8828 14.7876 15.0002 14.7876V10.7876ZM19.2126 15.0002C19.2126 12.6737 17.3268 10.7876 15.0002 10.7876V14.7876C15.1174 14.7876 15.2126 14.8826 15.2126 15.0002H19.2126ZM15.0002 19.2126C17.3267 19.2126 19.2126 17.3267 19.2126 15.0002H15.2126C15.2126 15.1176 15.1176 15.2126 15.0002 15.2126V19.2126ZM17.4952 11.4061C17.4952 10.7807 18.0021 10.2737 18.6276 10.2737V14.2737C20.2114 14.2737 21.4952 12.9897 21.4952 11.4061H17.4952ZM18.6276 12.5384C18.0023 12.5384 17.4952 12.0314 17.4952 11.4061H21.4952C21.4952 9.82222 20.2114 8.53841 18.6276 8.53841V12.5384ZM19.7599 11.4061C19.7599 12.0315 19.2529 12.5384 18.6276 12.5384V8.53841C17.0439 8.53841 15.7599 9.82225 15.7599 11.4061H19.7599ZM18.6276 10.2737C19.253 10.2737 19.7599 10.7807 19.7599 11.4061H15.7599C15.7599 12.9898 17.0439 14.2737 18.6276 14.2737V10.2737Z" fill="#F2F2F2" mask="url(#path-2-inside-1)"/>
</svg>
