<svg width="114" height="114" viewBox="0 0 114 114" fill="none" xmlns="http://www.w3.org/2000/svg">
<path fill-rule="evenodd" clip-rule="evenodd" d="M53.2212 0.257634C51.0101 0.56972 47.7894 1.5941 45.4658 2.72393C36.4189 7.12378 30.9352 16.3432 31.5492 26.1217C31.6352 27.4933 31.8041 29.0164 31.9242 29.5062L32.1428 30.3968H16.6849H1.22701L0.613503 30.9901L0 31.5834L0.0722058 43.5187L0.144166 55.454L0.921482 57.0406C1.34882 57.913 2.16322 59.1143 2.73105 59.7099C4.0025 61.044 6.64833 62.3665 8.49129 62.5893L9.84527 62.7527V87.7935V112.834L10.4482 113.417L11.0509 114H57H102.949L103.552 113.417L104.155 112.834V87.7935V62.7527L105.509 62.5893C107.352 62.3665 109.998 61.044 111.269 59.7099C111.837 59.1143 112.651 57.913 113.079 57.0406L113.856 55.454L113.928 43.5187L114 31.5834L113.386 30.9901L112.773 30.3968H97.3151H81.8572L82.0758 29.5062C82.1959 29.0164 82.3648 27.4933 82.4508 26.1217C82.7283 21.7018 81.8432 17.629 79.7156 13.5337C74.8252 4.12167 64.0609 -1.2724 53.2212 0.257634ZM62.4083 4.48244C70.1849 6.49866 75.899 12.1226 78.0197 19.8476C78.6973 22.316 78.6465 27.2498 77.9166 29.8733C76.8674 33.6443 75.0148 36.7754 72.2523 39.4466C69.4901 42.1181 66.2524 43.9097 62.353 44.9243C59.633 45.6321 54.5391 45.6793 51.9719 45.0207C43.9612 42.9651 38.1968 37.4534 36.0557 29.803C35.3005 27.104 35.3005 22.2892 36.0557 19.5902C38.1649 12.0535 44.0349 6.35592 51.5969 4.50572C54.2341 3.86041 54.6003 3.82549 57.7368 3.91931C59.5387 3.97299 61.2297 4.17701 62.4083 4.48244ZM49.7438 11.9792C49.1878 12.5167 49.1409 12.7387 49.1409 14.8293V17.0963H46.7966C44.6349 17.0963 44.4053 17.1417 43.8495 17.6794L43.2465 18.2622V24.6966V31.131L43.8495 31.7138C44.4053 32.2515 44.6349 32.2969 46.7966 32.2969H49.1409V34.5639C49.1409 36.6545 49.1878 36.8765 49.7438 37.414L50.3465 37.9971H57H63.6535L64.2562 37.414C64.8122 36.8765 64.8591 36.6545 64.8591 34.5639V32.2969H67.2034C69.3651 32.2969 69.5947 32.2515 70.1505 31.7138L70.7535 31.131V24.6966V18.2622L70.1505 17.6794C69.5947 17.1417 69.3651 17.0963 67.2034 17.0963H64.8591V14.8293C64.8591 12.7387 64.8122 12.5167 64.2562 11.9792L63.6535 11.3961H57H50.3465L49.7438 11.9792ZM60.9296 17.4633C60.9296 19.5538 60.9765 19.7759 61.5325 20.3134C62.0883 20.8511 62.3179 20.8965 64.4797 20.8965H66.8239V24.6966V28.4967H64.4797C62.3179 28.4967 62.0883 28.5421 61.5325 29.0798C60.9765 29.6173 60.9296 29.8394 60.9296 31.9299V34.197H57H53.0704V31.9299C53.0704 29.8394 53.0235 29.6173 52.4675 29.0798C51.9117 28.5421 51.6821 28.4967 49.5203 28.4967H47.1761V24.6966V20.8965H49.5203C51.6821 20.8965 51.9117 20.8511 52.4675 20.3134C53.0235 19.7759 53.0704 19.5538 53.0704 17.4633V15.1962H57H60.9296V17.4633ZM15.7396 39.8972V45.5974H9.84527H3.95093V39.8972V34.197H9.84527H15.7396V39.8972ZM31.4579 39.8972V45.5974H25.5635H19.6692V39.8972V34.197H25.5635H31.4579V39.8972ZM94.3308 39.8972V45.5974H88.4365H82.5421V39.8972V34.197H88.4365H94.3308V39.8972ZM110.049 39.8972V45.5974H104.155H98.2604V39.8972V34.197H104.155H110.049V39.8972ZM38.7619 41.8861C39.6751 42.7886 41.0698 43.9928 41.8614 44.5621L43.3006 45.5974H39.344H35.3874V41.7555V37.9135L36.2446 39.0792C36.7159 39.7205 37.8488 40.9835 38.7619 41.8861ZM78.6126 41.7973V45.5974H74.6398H70.667L71.8768 44.7664C73.4924 43.6567 76.7151 40.5413 77.6982 39.1388C78.1337 38.5175 78.5175 38.0066 78.5512 38.0033C78.5848 38 78.6126 39.7072 78.6126 41.7973ZM15.7396 51.6857C15.7396 54.7201 15.4238 55.6566 13.906 57.1247C11.4213 59.5275 8.26927 59.5275 5.78456 57.1247C4.26677 55.6566 3.95093 54.7201 3.95093 51.6857V49.3975H9.84527H15.7396V51.6857ZM31.4579 51.6857C31.4579 54.7201 31.142 55.6566 29.6242 57.1247C28.3523 58.3547 27.1083 58.8979 25.5635 58.8979C24.0187 58.8979 22.7748 58.3547 21.5028 57.1247C19.985 55.6566 19.6692 54.7201 19.6692 51.6857V49.3975H25.5635H31.4579V51.6857ZM47.1761 51.6857C47.1761 54.7201 46.8603 55.6566 45.3425 57.1247C42.8578 59.5275 39.7058 59.5275 37.2211 57.1247C35.7033 55.6566 35.3874 54.7201 35.3874 51.6857V49.3975H41.2818H47.1761V51.6857ZM62.8943 51.6857C62.8943 52.9443 62.76 54.4137 62.5957 54.9515C62.1971 56.2561 60.1626 58.2236 58.8135 58.6091C56.5108 59.267 54.6749 58.8031 52.9393 57.1247C51.4215 55.6566 51.1057 54.7201 51.1057 51.6857V49.3975H57H62.8943V51.6857ZM78.6126 51.6857C78.6126 52.9443 78.4782 54.4137 78.3139 54.9515C77.9153 56.2561 75.8808 58.2236 74.5317 58.6091C72.229 59.267 70.3932 58.8031 68.6575 57.1247C67.1397 55.6566 66.8239 54.7201 66.8239 51.6857V49.3975H72.7182H78.6126V51.6857ZM94.3308 51.6857C94.3308 52.9443 94.1965 54.4137 94.0322 54.9515C93.6336 56.2561 91.5991 58.2236 90.25 58.6091C87.9473 59.267 86.1114 58.8031 84.3758 57.1247C82.858 55.6566 82.5421 54.7201 82.5421 51.6857V49.3975H88.4365H94.3308V51.6857ZM110.049 51.6857C110.049 52.9443 109.915 54.4137 109.75 54.9515C109.352 56.2561 107.317 58.2236 105.968 58.6091C103.666 59.267 101.83 58.8031 100.094 57.1247C98.5762 55.6566 98.2604 54.7201 98.2604 51.6857V49.3975H104.155H110.049V51.6857ZM18.8609 60.1056C19.4594 60.6393 20.6877 61.4143 21.5897 61.8276C23.0734 62.5073 23.4536 62.5793 25.5635 62.5793C27.6734 62.5793 28.0536 62.5073 29.5373 61.8276C30.4394 61.4143 31.6828 60.6258 32.3003 60.0755L33.4226 59.0748L34.545 60.0755C35.1624 60.6258 36.4059 61.4143 37.308 61.8276C38.7916 62.5073 39.1718 62.5793 41.2818 62.5793C43.3917 62.5793 43.7719 62.5073 45.2555 61.8276C46.1576 61.4143 47.4011 60.6258 48.0185 60.0755L49.1409 59.0748L50.2633 60.0755C50.8807 60.6258 52.1242 61.4143 53.0262 61.8276C54.5099 62.5073 54.8901 62.5793 57 62.5793C59.1099 62.5793 59.4901 62.5073 60.9738 61.8276C61.8758 61.4143 63.1193 60.6258 63.7367 60.0755L64.8591 59.0748L65.9815 60.0755C66.5989 60.6258 67.8424 61.4143 68.7445 61.8276C70.2281 62.5073 70.6083 62.5793 72.7182 62.5793C74.8282 62.5793 75.2084 62.5073 76.692 61.8276C77.5941 61.4143 78.8376 60.6258 79.455 60.0755L80.5774 59.0748L81.6998 60.0755C82.3172 60.6258 83.5606 61.4143 84.4627 61.8276C85.9464 62.5073 86.3266 62.5793 88.4365 62.5793C90.5464 62.5793 90.9266 62.5073 92.4103 61.8276C93.3123 61.4143 94.5558 60.6258 95.1732 60.0755L96.2956 59.0748L97.3983 60.0579C98.005 60.5985 98.8891 61.2198 99.3631 61.4385L100.225 61.8359V86.0179V110.2H98.2604H96.2956V107.694C96.2956 104.983 96.0512 104.196 94.9497 103.358L94.3308 102.887V85.2759V67.6641L93.7279 67.0813L93.1252 66.4982H80.5774H68.0295L67.4268 67.0813L66.8239 67.6641V85.2759V102.887L66.205 103.358C65.1035 104.196 64.8591 104.983 64.8591 107.694V110.2H39.317H13.7748V86.0328V61.8661L14.8488 61.3148C15.4397 61.0117 16.2902 60.3975 16.7392 59.9496C17.1879 59.5019 17.6039 59.1354 17.6636 59.1354C17.7233 59.1354 18.2621 59.572 18.8609 60.1056ZM18.3073 67.0813L17.7044 67.6641V86.449V105.234L18.3073 105.817L18.91 106.4H38.3346H57.7591L58.3618 105.817L58.9648 105.234V86.449V67.6641L58.3618 67.0813L57.7591 66.4982H38.3346H18.91L18.3073 67.0813ZM55.0352 86.449V102.6H38.3346H21.634V86.449V70.2983H38.3346H55.0352V86.449ZM90.4013 86.449V102.6H80.5774H70.7535V86.449V70.2983H80.5774H90.4013V86.449ZM30.096 74.6816C29.498 75.2597 29.4931 75.3012 29.4931 79.7987C29.4931 84.3175 29.495 84.3349 30.1066 84.9263L30.7201 85.5196L30.168 86.5188C29.6542 87.4486 29.6105 87.8669 29.537 92.5589L29.4582 97.5998L30.0786 98.1997L30.6987 98.7994H39.317H47.9352L48.5554 98.1997L49.1758 97.5998L49.0969 92.5589C49.0235 87.8669 48.9798 87.4486 48.466 86.5188L47.9139 85.5196L48.5274 84.9263C49.1389 84.3349 49.1409 84.3175 49.1409 79.7987C49.1409 75.3012 49.136 75.2597 48.5379 74.6816L47.9352 74.0985H39.317H30.6987L30.096 74.6816ZM45.2113 79.7987V81.6988H39.317H33.4226V79.7987V77.8986H39.317H45.2113V79.7987ZM75.286 84.1819C74.9058 84.5493 74.683 85.0362 74.683 85.4989C74.683 85.9616 74.9058 86.4485 75.286 86.8159C75.8125 87.3254 76.1087 87.399 77.6302 87.399C79.1517 87.399 79.4479 87.3254 79.9744 86.8159C80.3546 86.4485 80.5774 85.9616 80.5774 85.4989C80.5774 85.0362 80.3546 84.5493 79.9744 84.1819C79.4479 83.6725 79.1517 83.5988 77.6302 83.5988C76.1087 83.5988 75.8125 83.6725 75.286 84.1819ZM43.3693 86.449L44.3286 87.399H39.317H34.3053L35.2646 86.449L36.2239 85.4989H39.317H42.41L43.3693 86.449ZM45.2113 93.0992V94.9993H39.317H33.4226V93.0992V91.1991H39.317H45.2113V93.0992ZM92.3661 108.3V110.2H80.5774H68.7887V108.3V106.4H80.5774H92.3661V108.3Z" fill="#FF9601"/>
</svg>
