<svg width="147" height="103" viewBox="0 0 147 103" fill="none" xmlns="http://www.w3.org/2000/svg">
<path fill-rule="evenodd" clip-rule="evenodd" d="M111.074 0.333442C104.303 2.62045 100.633 9.24156 102.368 16.0385C102.624 17.0441 103.177 18.4644 103.597 19.1949C104.017 19.925 104.314 20.5536 104.258 20.5916C104.202 20.6297 103.547 20.9285 102.803 21.2558C101.227 21.9488 99.1017 23.8367 98.1246 25.4126C97.1793 26.9363 96.4873 29.4761 96.4873 31.4208V33.0522H94.6828H92.8783V27.2235C92.8783 21.8037 92.8362 21.3518 92.2768 20.7812C91.687 20.1796 91.2744 20.1677 71.2243 20.1677C51.1742 20.1677 50.7616 20.1796 50.1718 20.7812C49.6124 21.3518 49.5703 21.8037 49.5703 27.2235V33.0522L47.2395 33.0589C43.7478 33.0691 42.0281 34.0204 41.0104 36.5046C40.605 37.4946 40.5478 41.2808 40.5478 67.1355C40.5478 89.0395 40.6398 96.9503 40.9054 97.854C41.1021 98.5234 41.848 99.7349 42.5631 100.546C44.8942 103.191 41.3364 102.997 87.4082 102.997C118.514 102.997 128.439 102.908 129.384 102.624C131.037 102.126 133.528 99.5846 134.016 97.8994C134.29 96.9543 134.382 90.4911 134.382 72.2071V47.7774H138.451C143.832 47.7774 145.256 47.204 146.448 44.5562C146.86 43.639 147 42.5929 147 40.4148C147 36.2739 146.188 34.6149 143.629 33.524C142.785 33.1645 141.347 33.0522 137.589 33.0522H132.656L132.515 30.8112C132.256 26.6961 129.845 22.9351 126.462 21.3708C125.608 20.9754 124.873 20.6339 124.83 20.6116C124.788 20.5895 125.166 19.752 125.673 18.751C128.984 12.2026 126.295 4.20647 119.727 1.06939C117.99 0.239569 117.292 0.0840327 114.983 0.0116339C113.32 -0.040211 111.813 0.083727 111.074 0.333442ZM121.429 9.02498L122.912 9.20414L123.271 10.7319C124.259 14.9307 122.094 19.3624 118.157 21.2027C116.032 22.1951 112.782 22.108 110.568 20.999C107.329 19.3765 105.676 16.5974 105.666 12.7538C105.663 11.4605 105.75 10.3104 105.86 10.1981C105.97 10.0861 106.376 10.1742 106.762 10.3938C107.187 10.6355 108.475 10.792 110.021 10.7902C112.178 10.7874 112.838 10.6576 114.249 9.96064C115.169 9.50631 116.229 8.80011 116.606 8.39118L117.291 7.64756L118.619 8.24669C119.349 8.57648 120.614 8.92651 121.429 9.02498ZM22.187 21.3843C20.8926 22.0822 18.9645 24.1671 17.9005 26.0191C16.092 29.1663 14.3627 35.3677 13.7748 40.8133C13.5889 42.5346 13.3715 44.2737 13.2912 44.6783L13.1459 45.414L12.0349 44.343C11.4238 43.754 10.5125 42.9855 10.0097 42.6352C7.40398 40.8209 1.80643 40.0516 0.54809 41.3351C-0.289798 42.1898 -0.219123 42.7242 1.12342 45.6882C3.64311 51.251 6.63346 60.711 7.60278 66.1838C8.35225 70.4158 8.60909 73.5464 8.20668 73.5464C7.43827 73.5464 6.86384 74.6791 6.87166 76.1783C6.87587 77.0084 7.32759 83.1052 7.87556 89.7264C8.72728 100.02 8.95074 101.854 9.4181 102.381C9.94231 102.972 10.3348 102.997 19.0334 102.997C26.2369 102.997 28.218 102.91 28.6655 102.577C29.1695 102.201 29.3461 100.733 30.3383 88.695C30.9689 81.0397 31.3443 74.9539 31.2086 74.5852C30.9139 73.7848 30.3386 73.5464 28.701 73.5464H27.4294L27.6676 71.2784C28.141 66.7722 30.445 60.9073 34.0312 55.0801C35.134 53.2876 36.0366 51.6016 36.0366 51.3332C36.0366 50.3092 34.9139 49.618 33.2546 49.6205C31.8225 49.6226 27.9488 50.4245 26.6381 50.9902C25.9843 51.2725 25.9846 51.2632 26.6974 47.7494C27.7317 42.6505 27.9897 39.6212 27.8417 34.3136C27.7193 29.9255 27.5867 28.8353 26.8878 26.466C25.9151 23.1682 25.086 21.5757 24.1049 21.1196C23.2406 20.718 23.4848 20.6843 22.187 21.3843ZM89.2693 28.4506V33.0522H71.2243H53.1793V28.4506V23.8489H71.2243H89.2693V28.4506ZM109.697 24.6812C111.373 25.3862 112.112 25.5135 114.532 25.5135C116.953 25.5135 117.692 25.3862 119.368 24.6812C120.456 24.2235 121.658 23.8489 122.04 23.8489C123.643 23.8489 125.246 24.6334 126.723 26.1393C128.372 27.8223 128.968 29.2789 128.968 31.6306V33.0522H114.532H100.096V31.5729C100.096 29.2061 100.86 27.4072 102.506 25.8979C104.907 23.6959 106.652 23.4004 109.697 24.6812ZM23.5795 27.9367C25.0787 33.7924 24.6021 41.5495 22.1248 51.612C21.3407 54.797 19.5762 57.8899 19.1606 56.8079C19.0352 56.4812 18.4301 54.9869 17.8159 53.4877L16.6996 50.7617L16.8827 46.7386C17.2743 38.1526 19.2358 30.1749 21.8201 26.6605C22.7263 25.4282 22.9855 25.6163 23.5795 27.9367ZM142.803 37.347C143.304 37.8584 143.404 38.3695 143.404 40.4148C143.404 44.5771 149.967 44.0961 93.179 44.0961H44.1568V41.0283C44.1568 36.1429 37.3331 36.7335 93.7805 36.7335C141.8 36.7335 142.206 36.7387 142.803 37.347ZM7.01421 45.2541C8.61931 46.0846 9.84878 47.2022 11.2533 49.1082C14.2487 53.1729 17.2626 61.3147 17.0523 64.7754C16.9901 65.8031 16.9642 68.1972 16.9952 70.0952L17.0514 73.5464H14.6966C12.0882 73.5464 11.9775 73.4612 11.9754 71.4506C11.9706 66.8864 8.88096 54.8516 5.80279 47.4071C5.22836 46.018 4.75859 44.7645 4.75859 44.6216C4.75859 44.3179 5.73272 44.5912 7.01421 45.2541ZM130.703 72.4669L130.622 97.1564L129.639 98.1593L128.656 99.1621H87.4648H46.2735L45.2903 98.1593L44.3072 97.1564L44.2269 72.4669L44.1463 47.7774H87.4648H130.783L130.703 72.4669ZM28.3711 57.7052C25.7392 63.0066 24.6778 66.4673 23.8192 72.5494C23.6827 73.5179 23.6367 73.5464 22.2153 73.5464H20.7525L20.5422 70.9735C19.9329 63.5112 22.4373 57.2604 27.0141 54.8203C27.7774 54.4132 30.1145 53.6303 30.2411 53.7392C30.2793 53.7717 29.4378 55.5566 28.3711 57.7052ZM68.0968 57.4696C61.8992 58.9992 56.736 64.3969 55.4223 70.7189C53.361 80.6412 59.8782 90.2592 69.6454 91.7093C78.8657 93.0785 87.6356 86.4853 89.0254 77.14L89.3806 74.7514L91.0629 76.4497C92.881 78.2849 93.893 78.5941 94.7865 77.587C95.8028 76.4418 95.4298 75.7475 91.7664 71.9644C87.1589 67.2057 87.5261 67.2072 82.8829 71.931C79.1448 75.734 78.7163 76.5528 79.8946 77.6403C80.9042 78.5726 81.7725 78.2597 83.8089 76.2307L85.7331 74.3134L85.5436 76.0779C84.6892 84.0369 76.8053 89.746 69.1536 87.9464C64.3266 86.8114 60.0244 82.4233 58.9119 77.5001C57.2533 70.1621 62.1065 62.54 69.4616 60.9309C72.6601 60.2312 76.8579 61.0754 79.5872 62.9673C80.8895 63.8698 82.0678 63.9447 82.7565 63.1686C83.549 62.2752 83.3529 61.4037 82.1265 60.3671C78.7292 57.496 72.8823 56.2885 68.0968 57.4696ZM74.8333 70.6407C70.701 73.317 71.2288 73.2302 68.8598 71.623C67.7184 70.849 66.5994 70.1894 66.3729 70.1575C65.3891 70.0185 64.8908 70.2213 64.4216 70.9514C63.6364 72.1736 64.2355 72.9835 67.6312 75.2898L70.6757 77.3572L72.2282 76.5225C73.082 76.0635 75.134 74.8208 76.7882 73.7612C79.5024 72.0224 79.805 71.7368 79.8913 70.8299C80.1223 68.4067 78.3827 68.3417 74.8333 70.6407ZM114.454 81.756C109.17 87.1525 108.841 87.6817 110.021 88.8852C111.196 90.0834 111.712 89.7484 117.004 84.3501C122.296 78.9521 122.624 78.426 121.45 77.2277C120.263 76.0172 119.744 76.3531 114.454 81.756ZM27.6117 77.4578C27.6093 77.5845 27.205 82.5196 26.7133 88.425C26.2216 94.3304 25.8174 99.1968 25.815 99.2388C25.8129 99.2808 22.766 99.3155 19.0442 99.3155C13.8358 99.3155 12.2752 99.2272 12.2689 98.932C12.2641 98.7213 11.8746 93.8549 11.4034 88.1182C10.776 80.4814 10.6373 77.6275 10.8855 77.4624C11.3336 77.1648 27.6168 77.1602 27.6117 77.4578ZM119.18 87.3801C117.454 89.1122 115.962 90.7875 115.864 91.1028C115.568 92.0542 116.512 93.18 117.605 93.18C118.412 93.18 119.016 92.7137 121.508 90.1721C123.96 87.6713 124.457 87.0053 124.457 86.2218C124.457 85.2128 124.116 84.7937 123.011 84.4483C122.418 84.2624 121.862 84.6876 119.18 87.3801Z" fill="#FB9405"/>
</svg>
