<svg width="114" height="114" viewBox="0 0 114 114" fill="none" xmlns="http://www.w3.org/2000/svg">
<path fill-rule="evenodd" clip-rule="evenodd" d="M53.9408 0.426201C50.063 1.53547 46.8927 4.98375 46.0812 8.97442C45.8672 10.0267 45.6378 10.4477 44.8483 11.237C43.2514 12.8337 43.2113 14.7238 44.7417 16.2539C46.2148 17.7268 48.2095 17.7375 49.6672 16.2802C51.1787 14.7688 51.1192 12.7364 49.5187 11.2008L48.5455 10.2669L48.8816 8.97642C49.5341 6.47198 51.5011 4.22293 53.8394 3.30804C55.6272 2.60845 58.3824 2.62092 60.219 3.33676C62.052 4.05127 64.0676 6.06408 64.7932 7.90433C65.5223 9.7546 65.5312 12.4908 64.8134 14.305C64.087 16.1417 62.4909 17.7883 60.3655 18.894C58.394 19.9195 56.991 21.2877 56.2735 22.8846C55.9116 23.69 55.7785 24.5214 55.7034 26.4422C55.6121 28.783 55.574 28.956 55.1286 29.0567C54.8663 29.1161 54.1688 29.2675 53.5787 29.3933C51.9347 29.7438 50.0966 30.5569 46.3112 32.6087C44.407 33.6409 42.0972 34.7344 41.1785 35.0388C37.8978 36.1258 31.0846 37.0453 19.4855 37.9671C11.3353 38.6149 7.61742 39.0611 6.50817 39.5244C5.24571 40.0519 4.12154 41.0783 3.42027 42.3439L2.76354 43.5293L2.69339 48.813L2.62302 54.0966L3.18422 54.6577C3.71913 55.1925 3.86566 55.2188 6.31665 55.2188H8.88767V83.2734V111.328H4.87915C1.16748 111.328 0.83767 111.361 0.425237 111.773C-0.141746 112.34 -0.141746 112.988 0.425237 113.555C0.868179 113.998 1.16748 114 56.9899 114C112.812 114 113.112 113.998 113.555 113.555C113.8 113.31 114 112.909 114 112.664C114 112.419 113.8 112.018 113.555 111.773C113.142 111.361 112.812 111.328 109.101 111.328H105.092V83.2734V55.2188H107.663C110.114 55.2188 110.261 55.1925 110.796 54.6577L111.357 54.0966L111.286 48.813L111.216 43.5293L110.56 42.3439C109.863 41.0861 108.735 40.0521 107.495 39.5342C106.356 39.0582 102.716 38.5868 96.2957 38.0836C87.6166 37.4034 83.5502 36.9941 79.4421 36.3867C73.2416 35.4698 72.9536 35.3696 65.6751 31.5892C62.8464 30.1198 61.345 29.5568 58.9385 29.0627C58.331 28.9378 58.3261 28.9222 58.3261 27.13C58.3261 23.8982 59.0717 22.6054 61.7331 21.2227C63.675 20.2139 66.0374 17.9557 66.8705 16.3121C69.0899 11.9331 68.3543 6.95403 64.9671 3.42716C62.1046 0.446685 57.8845 -0.701775 53.9408 0.426201ZM47.8505 13.2374C48.4422 13.9501 47.5732 15.0449 46.8016 14.5591C46.0306 14.0735 46.3052 12.9141 47.1913 12.9141C47.4062 12.9141 47.7028 13.0595 47.8505 13.2374ZM59.5048 31.9454C61.0695 32.2769 63.3813 33.3265 67.5161 35.5829C71.3596 37.6801 74.1847 38.4258 82.3772 39.5053C86.2374 40.014 88.8902 40.2632 94.4028 40.6348C99.8029 40.9986 99.9223 41.0102 103.756 41.5423C106.732 41.9554 107.53 42.3466 108.194 43.7192C108.607 44.5727 108.655 45.0819 108.655 48.6094V52.5469H56.9899H5.32454V48.6433C5.32454 44.3788 5.45682 43.7524 6.57765 42.7137C6.92951 42.3875 7.61831 42.0179 8.10824 41.8926C9.40321 41.5608 14.2491 41.022 18.3522 40.7535C25.5745 40.2805 31.3245 39.6533 36.9473 38.7246C41.5609 37.9627 43.5191 37.2591 48.1315 34.7059C53.4241 31.7764 55.8862 31.1788 59.5048 31.9454ZM42.9291 41.6178C42.4225 42.0286 42.4034 42.156 42.4034 45.1247C42.4034 47.815 42.4622 48.318 42.8681 49.0957C44.0206 51.3043 46.8415 51.8682 48.6767 50.2571C49.906 49.1781 50.0864 48.5177 50.0864 45.095C50.0864 42.3789 50.0425 42.0382 49.641 41.6367C49.396 41.3918 48.9952 41.1914 48.7502 41.1914C48.5052 41.1914 48.1044 41.3918 47.8594 41.6367C47.4603 42.0357 47.414 42.3789 47.414 44.9421C47.414 47.5336 47.3715 47.8406 46.9619 48.2111C46.6041 48.5351 46.3836 48.576 45.9041 48.4079L45.2984 48.1957L45.1871 45.1184C45.0822 42.2197 45.0452 42.0166 44.5499 41.6163C43.8894 41.0825 43.589 41.0828 42.9291 41.6178ZM75.919 41.6367C75.5175 42.0382 75.4737 42.3789 75.4737 45.095C75.4737 48.4035 75.6563 49.1385 76.7268 50.1391C78.491 51.7883 81.1776 51.4499 82.5296 49.4081C83.1444 48.4796 83.1567 48.3984 83.1567 45.2525C83.1567 42.1493 83.1393 42.03 82.6309 41.6176C81.971 41.0828 81.6706 41.0826 81.0101 41.6167C80.5148 42.017 80.4779 42.2203 80.373 45.1189L80.2616 48.1957L79.6559 48.4079C79.1766 48.576 78.956 48.5351 78.5981 48.2111C78.1885 47.8406 78.146 47.5336 78.146 44.9421C78.146 42.3789 78.0997 42.0357 77.7006 41.6367C77.4556 41.3918 77.0548 41.1914 76.8098 41.1914C76.5649 41.1914 76.164 41.3918 75.919 41.6367ZM22.7839 41.5844C22.1601 42.0008 22.0267 42.834 22.0267 46.3125C22.0267 49.7911 22.1601 50.6243 22.7839 51.0406C23.2437 51.3474 28.2263 51.2319 29.0314 50.8957C30.3929 50.3268 31.1171 48.6302 30.6176 47.1802C30.3673 46.4541 30.3673 46.1709 30.6176 45.4448C31.1171 43.9949 30.3929 42.2983 29.0314 41.7294C28.2263 41.3932 23.2437 41.2776 22.7839 41.5844ZM35.1096 41.7191C32.9969 42.5051 31.8253 44.1719 31.8253 46.3918C31.8253 50.9482 37.3555 52.9243 40.3428 49.4353C41.9484 47.5596 41.8909 44.8606 40.206 43.0067C39.0554 41.7407 36.671 41.1382 35.1096 41.7191ZM51.3457 41.8213C51.1431 42.0453 50.9771 42.4806 50.9771 42.7888C50.9771 43.6297 51.6296 44.086 52.832 44.086H53.8722L53.8755 46.9248C53.8789 49.8007 54.0546 50.5998 54.7841 51.0549C55.3246 51.392 56.2143 51.0676 56.5065 50.4265C56.6628 50.0832 56.7672 48.6998 56.7672 46.97V44.086L57.825 44.0826C59.0149 44.0786 59.2601 43.9662 59.6367 43.251C59.9115 42.7295 59.673 41.9485 59.1278 41.5844C58.9931 41.4945 57.2699 41.4194 55.2986 41.4174C52.1064 41.4145 51.674 41.4586 51.3457 41.8213ZM61.0886 41.8821C60.7129 42.2965 60.6575 42.7747 60.6043 46.0569C60.5424 49.8648 60.6611 50.5532 61.465 51.0549C62.0055 51.392 62.8951 51.0676 63.1873 50.4265C63.5381 49.6564 63.5421 42.8994 63.192 42.2343C62.6912 41.2827 61.7714 41.1289 61.0886 41.8821ZM68.3461 41.6098C65.9864 42.3797 64.7344 44.0757 64.7564 46.4717C64.7809 49.0973 66.9188 51.211 69.5506 51.211C70.0978 51.211 70.8209 51.1063 71.1576 50.9783C71.5956 50.8117 71.9468 50.8189 72.3924 51.0034C73.2394 51.3541 74.0063 51.119 74.3297 50.4096C74.5515 49.9231 74.5354 49.7245 74.2379 49.2705C73.9308 48.8018 73.9199 48.619 74.1638 48.0305C74.7869 46.526 74.3455 44.3057 73.165 43.0067C72.1234 41.8607 69.7156 41.1627 68.3461 41.6098ZM84.8269 41.8594C84.4144 42.2718 84.3815 42.6015 84.3815 46.3125C84.3815 51.4704 84.1848 51.2123 88.1116 51.2076C89.6734 51.2056 91.0612 51.1306 91.196 51.0406C91.7411 50.6766 91.9796 49.8955 91.7048 49.374C91.3018 48.6086 91.0989 48.5462 89.0024 48.5424C87.2035 48.5393 87.0538 48.5048 87.0538 48.0938C87.0538 47.7168 87.2024 47.6485 88.0214 47.6485C89.1251 47.6485 89.7262 47.1637 89.7262 46.2738C89.7262 45.4649 89.0699 44.9766 87.9827 44.9766C87.2024 44.9766 87.0538 44.9053 87.0538 44.5313C87.0538 44.1216 87.2024 44.086 88.9122 44.086C90.9603 44.086 91.5077 43.7961 91.5077 42.7113C91.5077 41.6167 90.957 41.4141 87.9827 41.4141C85.5691 41.4141 85.2235 41.4628 84.8269 41.8594ZM28.0395 44.5313C28.0395 44.7989 27.891 44.9766 27.6674 44.9766C27.0964 44.9766 26.4806 45.6497 26.4806 46.2738C26.4806 46.9498 27.0641 47.6485 27.6286 47.6485C27.891 47.6485 28.0395 47.8094 28.0395 48.0938C28.0395 48.4968 27.891 48.5391 26.4806 48.5391H24.9218V46.3125V44.086H26.4806C27.891 44.086 28.0395 44.1283 28.0395 44.5313ZM37.6199 44.4222C39.5729 45.4319 38.8131 48.5391 36.6133 48.5391C34.3703 48.5391 33.6412 45.2992 35.6844 44.4106C36.5957 44.014 36.8333 44.0156 37.6199 44.4222ZM70.5788 44.4222C71.3896 44.8414 71.6878 45.3829 71.6878 46.4352C71.6878 47.1831 71.6437 47.2414 71.1868 47.0998C69.9457 46.7153 69.6546 46.7151 69.2304 47.0989C68.9897 47.3167 68.7928 47.6796 68.7928 47.9056C68.7928 48.4834 68.4583 48.4162 67.9183 47.7297C67.4147 47.0898 67.311 45.8875 67.6969 45.1665C67.9298 44.7312 69.0511 44.1125 69.639 44.0946C69.798 44.09 70.2212 44.2374 70.5788 44.4222ZM102.42 83.2734V111.328H101.084H99.7475V86.6578C99.7475 67.7668 99.6849 61.9249 99.4802 61.7203C99.0941 61.3342 71.8958 61.3342 71.5097 61.7203C71.305 61.9249 71.2424 67.7668 71.2424 86.6578V111.328H41.4012H11.56V83.2734V55.2188H56.9899H102.42V83.2734ZM14.4996 61.7203C14.1121 62.1078 14.1121 105.33 14.4996 105.717C14.8875 106.105 67.0241 106.105 67.4121 105.717C67.7996 105.33 67.7996 62.1078 67.4121 61.7203C67.0241 61.3325 14.8875 61.3325 14.4996 61.7203ZM65.007 83.7188V103.312H58.9942H52.9814V102.443V101.574L55.093 101.497C57.1378 101.422 57.2278 101.397 57.9324 100.691C58.6566 99.9667 58.6601 99.9524 58.6486 97.7969C58.6388 95.9742 58.5241 95.292 57.9248 93.4927C57.5331 92.3166 57.2126 91.0141 57.2124 90.5982C57.2124 90.182 57.5284 88.2583 57.915 86.3227L58.6176 82.8039L58.1753 82.2036C57.8549 81.769 57.1396 81.3973 55.5798 80.8554C53.156 80.0133 52.9867 79.7624 54.1229 78.695C56.2524 76.6946 56.1386 73.0488 53.8996 71.5404C51.1479 69.6863 47.6418 71.6457 47.6452 75.0352C47.6467 76.4818 48.1823 77.7696 49.1675 78.695C50.3037 79.7624 50.1345 80.0133 47.7106 80.8554C46.1509 81.3973 45.4356 81.769 45.1151 82.2036L44.6729 82.8039L45.3755 86.3227C45.7621 88.2583 46.0781 90.182 46.0781 90.5982C46.0778 91.0141 45.7574 92.3166 45.3657 93.4927C44.7664 95.292 44.6517 95.9742 44.6419 97.7969C44.6303 99.9524 44.6339 99.9667 45.3581 100.691C46.0627 101.397 46.1527 101.422 48.1975 101.497L50.3091 101.574V102.443V103.312H42.7374H35.1658V101.531V99.75H37.8109C39.8575 99.75 40.5169 99.6765 40.7256 99.4251C40.9202 99.1907 40.971 98.1217 40.908 95.5843C40.8278 92.3507 40.7637 91.8967 40.1089 89.9302C39.7172 88.7541 39.397 87.4516 39.3967 87.0357C39.3967 86.6195 39.7128 84.6958 40.0994 82.7602L40.802 79.2414L40.3597 78.6411C40.0392 78.2065 39.3239 77.8348 37.7642 77.2929C35.2526 76.4203 35.1116 76.1502 36.4627 74.7992C38.8975 72.3649 37.9089 68.1008 34.7103 67.2395C34.0875 67.0719 33.5717 67.0719 32.9488 67.2395C29.7502 68.1008 28.7617 72.3649 31.1964 74.7992C32.5475 76.1502 32.4066 76.4203 29.895 77.2929C28.3352 77.8348 27.6199 78.2065 27.2995 78.6411L26.8572 79.2414L27.5598 82.7602C27.9464 84.6958 28.2624 86.6195 28.2624 87.0357C28.2622 87.4516 27.942 88.7541 27.5502 89.9302C26.8955 91.8967 26.8314 92.3507 26.7512 95.5843C26.6882 98.1217 26.739 99.1907 26.9336 99.4251C27.1423 99.6765 27.8017 99.75 29.8482 99.75H32.4934V101.531V103.312H24.6991H16.9047V83.7188V64.125H40.9558H65.007V83.7188ZM97.0751 87.7266V111.328H85.495H73.9148V87.7266V64.125H85.495H97.0751V87.7266ZM81.894 69.4029C78.6415 72.6251 78.3179 73.1813 79.2214 73.9987C80.0852 74.7804 80.5569 74.4997 83.7604 71.297C86.9868 68.0709 87.2349 67.6459 86.3857 66.7969C85.5468 65.9581 85.1222 66.2046 81.894 69.4029ZM87.8411 70.1599C87.2482 70.6802 87.0538 71.0267 87.0538 71.5626C87.0538 72.463 87.3995 72.8086 88.3 72.8086C88.8361 72.8086 89.1826 72.6142 89.703 72.0215C90.5054 71.108 90.572 70.5371 89.9489 69.9141C89.3258 69.2911 88.7548 69.3577 87.8411 70.1599ZM34.619 70.238C35.7844 71.403 34.8729 73.6151 33.418 73.1533C32.9361 73.0005 32.4934 72.1324 32.4934 71.3406C32.4934 70.7815 33.3766 69.6914 33.8296 69.6914C33.9632 69.6914 34.3184 69.9374 34.619 70.238ZM84.8269 73.4265C84.6431 73.4815 83.2152 74.7914 81.6535 76.3373C78.6558 79.3046 78.3353 79.8766 79.2214 80.6784C80.0886 81.4632 80.5825 81.1794 83.5199 78.208C85.0631 76.6468 86.392 75.1797 86.4724 74.9481C86.7554 74.133 85.7065 73.1631 84.8269 73.4265ZM52.5198 74.0633C52.7736 74.3859 52.9814 74.9234 52.9814 75.2578C52.9814 76.0044 52.2053 77.0391 51.6452 77.0391C51.0852 77.0391 50.3091 76.0044 50.3091 75.2578C50.3091 74.5113 51.0852 73.4766 51.6452 73.4766C51.8724 73.4766 52.2661 73.7406 52.5198 74.0633ZM34.1476 78.7943C34.2144 78.9025 34.997 79.222 35.8866 79.5041C36.7763 79.7864 37.5802 80.0797 37.6735 80.156C37.7666 80.2322 37.5911 81.5296 37.2838 83.0392C36.5275 86.7509 36.558 87.827 37.5041 90.8438C38.1363 92.8597 38.2835 93.6833 38.2835 95.2038V97.0781H33.8296H29.3757V95.2038C29.3757 93.6833 29.5229 92.8597 30.1551 90.8438C31.1007 87.8285 31.1314 86.7504 30.3778 83.0508C30.0716 81.5476 29.8211 80.2896 29.8211 80.2553C29.8211 80.2208 30.6216 79.9263 31.6004 79.6003C32.5789 79.2745 33.4365 78.9156 33.5065 78.8027C33.667 78.5429 33.9895 78.5387 34.1476 78.7943ZM51.9632 82.3568C52.03 82.465 52.8126 82.7845 53.7023 83.0666C54.5919 83.3489 55.3959 83.6422 55.4892 83.7185C55.5823 83.7947 55.4068 85.0921 55.0995 86.6017C54.3432 90.3134 54.3737 91.3895 55.3197 94.4063C55.7484 95.7734 56.0991 97.3344 56.0991 97.8757V98.8594H51.6452H47.1913V97.8757C47.1913 97.3344 47.5421 95.7734 47.9708 94.4063C48.9163 91.391 48.947 90.3129 48.1934 86.6133C47.8872 85.1101 47.6367 83.8521 47.6367 83.8178C47.6367 83.7833 48.4373 83.4888 49.416 83.1628C50.3946 82.837 51.2522 82.4781 51.3221 82.3652C51.4827 82.1054 51.8051 82.1012 51.9632 82.3568ZM75.6964 88.1719C75.4514 88.4168 75.251 88.8176 75.251 89.0625C75.251 89.3074 75.4514 89.7082 75.6964 89.9531C76.1088 90.3655 76.4386 90.3984 80.1503 90.3984C83.8619 90.3984 84.1917 90.3655 84.6042 89.9531C84.8491 89.7082 85.0496 89.3074 85.0496 89.0625C85.0496 88.8176 84.8491 88.4168 84.6042 88.1719C84.1917 87.7595 83.8619 87.7266 80.1503 87.7266C76.4386 87.7266 76.1088 87.7595 75.6964 88.1719Z" fill="#FB9405"/>
</svg>
