<svg width="114" height="114" viewBox="0 0 114 114" fill="none" xmlns="http://www.w3.org/2000/svg">
<path fill-rule="evenodd" clip-rule="evenodd" d="M5.08735 0.617841C4.88073 0.957573 4.64398 1.4592 4.56126 1.73271C4.24331 2.78366 4.1713 5.9726 4.21993 16.8595C4.27356 28.8879 4.26879 28.807 4.998 30.1271L5.38901 30.835L21.454 30.7662C30.4307 30.7277 38.0219 30.6398 38.6588 30.5668C39.4424 30.4769 39.8666 30.3645 40.0164 30.2069C40.5307 29.6664 40.5439 29.3002 40.541 15.8109C40.5383 3.32191 40.4802 1.02068 40.1576 0.645949C39.7743 0.200812 32.7882 0.00891902 16.7793 0.00364873L5.46312 0L5.08735 0.617841ZM49.8508 0.692976C47.0036 0.889869 46.8748 0.965005 46.6427 2.56758C46.5574 3.15677 46.4961 9.30681 46.4564 21.2501L46.3973 39.0543H24.2142H2.03103L1.01551 40.2394L0 41.4245L0.00407226 59.53C0.00802775 77.3915 0.0927214 83.5767 0.352272 84.9669C0.550977 86.0315 1.14744 86.3863 1.77485 85.813C2.35864 85.2796 2.36597 85.086 2.43623 68.4463L2.50127 53.0408L19.9151 53.0066L37.3289 52.9723L37.3788 68.6824C37.4113 78.9069 37.4711 84.603 37.55 84.9956C37.6167 85.3273 37.7868 85.7073 37.9281 85.8402C38.2732 86.1648 38.8828 86.1513 39.1463 85.813C39.6183 85.2073 39.701 84.3425 39.7579 79.4261L39.8122 74.7301L47.7981 74.7492C52.1904 74.7597 59.3178 74.8054 63.6369 74.8505L71.4897 74.9328L71.6204 79.5275C71.7896 85.4765 71.9031 86.1356 72.7574 86.1356C73.5089 86.1356 73.5178 86.0972 73.6565 82.2896C73.8506 76.9622 73.8567 43.8998 73.664 42.3748C73.4293 40.5183 73.0882 39.7897 72.2459 39.3451C71.9177 39.1718 71.2724 39.1205 68.919 39.0805L65.9994 39.0309L65.9274 21.914C65.8558 4.93908 65.8049 2.81758 65.4448 1.8165C65.2049 1.14947 64.5337 0.832437 63.0276 0.674733C61.5795 0.522976 52.1185 0.536084 49.8508 0.692976ZM38.5079 15.4731V27.9731H22.5696H6.63127V15.4731V2.97299H22.5696H38.5079V15.4731ZM60.2203 3.59948L63.6093 3.6788L63.6789 11.8057C63.7171 16.2755 63.7779 24.2349 63.8141 29.4934L63.8798 39.0543H56.1964H48.513V21.2143V3.37434L52.672 3.44732C54.9596 3.48745 58.3562 3.55597 60.2203 3.59948ZM54.3772 9.32856C53.5527 9.51843 53.0767 9.81884 52.872 10.2784C52.6041 10.8802 52.7847 11.2865 53.487 11.6634C53.9904 11.9334 54.2235 11.9595 56.1331 11.9595C58.0324 11.9595 58.2777 11.9324 58.77 11.6682C59.4468 11.3048 59.7308 10.8397 59.6233 10.2713C59.5274 9.7633 59.2302 9.53181 58.4251 9.33775C57.7252 9.1691 55.0955 9.16316 54.3772 9.32856ZM55.3507 28.1838C54.9384 28.4437 54.7952 28.773 54.7952 29.4611C54.7952 29.8998 54.8688 30.1065 55.1353 30.416C55.4268 30.7545 55.5639 30.8107 56.0951 30.8088C57.796 30.8026 58.5056 28.9845 57.0968 28.2418C56.5058 27.9303 55.7906 27.9065 55.3507 28.1838ZM88.6386 33.509C86.7812 33.5921 86.1503 33.6672 85.8311 33.8432C85.2895 34.1415 84.1703 35.4195 83.8886 36.061C83.4272 37.1117 83.3942 38.0737 83.3316 52.3314L83.2713 66.0814H81.8578C80.2125 66.0814 79.7938 66.2544 79.3778 67.1055C78.8921 68.099 78.819 69.1494 78.819 75.1355C78.819 80.1157 78.842 80.8302 79.0246 81.5156C79.3339 82.6771 80.0015 83.1875 81.4334 83.3572C82.4206 83.4741 82.4795 83.608 82.4826 85.7437C82.4854 87.6597 82.6332 88.857 82.9245 89.3241C83.2187 89.7959 84.0333 90.2341 84.9268 90.4013C85.3427 90.4791 87.8025 90.6075 90.393 90.6864C92.9836 90.7655 95.1155 90.8445 95.1306 90.8621C95.1458 90.8797 95.1935 92.3197 95.2366 94.0621C95.325 97.6321 95.2493 98.9561 94.9359 99.3201C94.7047 99.5886 93.1418 100.21 90.3365 101.148C87.0663 102.242 86.4392 102.603 86.4392 103.391C86.4392 104.252 87.2316 104.585 88.6716 104.33C89.1394 104.248 90.7243 103.822 92.1938 103.384C93.6632 102.946 94.9051 102.616 94.9536 102.651C95.1388 102.784 95.2892 103.84 95.4491 106.128C95.54 107.432 95.6722 108.624 95.7427 108.777C95.8423 108.993 95.985 109.055 96.3861 109.055C97.0652 109.055 97.1264 108.903 97.271 106.854C97.4434 104.413 97.6127 103.016 97.7641 102.784C97.8823 102.604 98.1717 102.661 100.167 103.263C103.577 104.292 104.231 104.453 105.016 104.457C105.88 104.461 106.1 104.267 106.1 103.504C106.1 102.394 105.34 102.001 100.12 100.411C98.6552 99.9649 97.4379 99.5782 97.4153 99.5519C97.3927 99.5257 97.4259 97.9588 97.4889 96.0698C97.5521 94.181 97.6047 92.2321 97.6057 91.7389L97.6076 90.8421L100.836 90.7597C107.142 90.599 108.771 90.402 109.53 89.7078C110.088 89.1986 110.201 88.6555 110.277 86.136C110.356 83.5226 110.4 83.3788 111.123 83.3788C111.712 83.3788 113.08 83.0123 113.341 82.7844C113.452 82.6873 113.634 82.3708 113.744 82.0813C113.921 81.6175 113.95 80.8916 113.989 76.0059C114.036 70.0293 113.944 68.1075 113.56 67.0998C113.226 66.2227 112.877 66.0814 111.045 66.0814C109.979 66.0814 109.57 66.0358 109.535 65.9125C109.509 65.8197 109.431 59.0848 109.361 50.9462L109.235 36.1488L108.104 34.8391L106.973 33.5292L99.0037 33.4656C94.6206 33.4306 89.9564 33.4502 88.6386 33.509ZM14.462 34.4678C13.5782 34.6014 13.3173 34.7555 13.0827 35.2826C12.914 35.6614 12.9165 35.7245 13.1164 36.1232C13.4907 36.8695 13.8282 36.9303 17.9742 36.9974C20.0218 37.0306 23.9612 37.0133 26.7287 36.959L31.7603 36.8602V35.6818V34.5033L28.0084 34.4141C23.1285 34.2982 15.3805 34.3288 14.462 34.4678ZM104.181 36.3636C106.297 36.557 106.472 36.6105 106.588 37.0986C106.831 38.123 106.911 42.2123 106.913 53.6827L106.915 66.0814H105.711C104.181 66.0814 103.644 66.3566 103.195 67.3705C102.92 67.9898 102.898 68.1854 102.86 70.3681L102.82 72.7031H96.6216H90.4235L90.3647 70.7098C90.2969 68.4027 90.1223 67.657 89.4736 66.9035C88.9268 66.2683 88.3575 66.0814 86.9692 66.0814H85.8393L85.8948 52.3314C85.9496 38.7424 85.9939 37.2161 86.3457 36.8076C86.5877 36.5264 88.1229 36.3348 91.0927 36.2148C94.3644 36.0826 102.065 36.1702 104.181 36.3636ZM37.3172 46.0475L37.3479 50.1354H19.8955H2.4431V46.1039C2.4431 43.8865 2.47812 42.0316 2.52104 41.9817C2.56386 41.932 10.4036 41.9066 19.9427 41.9255L37.2863 41.9597L37.3172 46.0475ZM71.7224 48.9192V55.8787L55.755 55.913L39.7876 55.9472V48.9192V41.8912L55.755 41.9254L71.7224 41.9597V48.9192ZM53.359 46.8986C53.0491 46.959 52.7012 47.1075 52.5861 47.2286C52.3024 47.5267 52.2184 48.114 52.4099 48.4596C52.6957 48.9751 53.4984 49.1219 56.0336 49.1219C58.1749 49.1219 58.3983 49.0997 58.6221 48.8645C58.8041 48.6731 58.8666 48.4476 58.8653 47.9861C58.8631 47.2138 58.7787 47.0565 58.2779 46.8897C57.8086 46.7334 54.1732 46.74 53.359 46.8986ZM71.7397 60.8449C71.7001 61.9783 71.6337 64.9509 71.5922 67.4506L71.5168 71.9955L64.8721 72.0763C61.2173 72.1208 54.0782 72.1923 49.0074 72.2351L39.7876 72.3131V65.5486V58.7841H55.7997H71.8117L71.7397 60.8449ZM52.8198 63.4082C52.3419 63.7039 52.0973 64.559 52.308 65.197C52.5245 65.8522 54.2934 66.0997 56.869 65.8348C58.5122 65.6658 58.6597 65.5501 58.6104 64.4685C58.5607 63.3807 58.4505 63.3386 55.4932 63.2783C53.6739 63.2413 53.0399 63.2721 52.8198 63.4082ZM87.8352 74.6626V80.4058H84.5196H81.2039V74.6626V68.9193H84.5196H87.8352V74.6626ZM111.917 74.6626V80.4058H108.602H105.286V74.6626V68.9193H108.602H111.917V74.6626ZM102.864 78.4126C102.903 80.8276 102.937 81.2206 103.15 81.7572C103.646 83.0083 104.189 83.2675 106.493 83.3507L108.223 83.4132L108.145 85.3217C108.103 86.3714 108.04 87.3974 108.006 87.6018L107.943 87.9734H96.39H84.8368L84.7709 87.3991C84.7346 87.0833 84.6703 86.0578 84.6282 85.1203L84.5516 83.416L86.3389 83.3448C88.2418 83.269 88.9265 83.0892 89.4429 82.5296C90.152 81.7612 90.3924 80.5152 90.3937 77.6018L90.3946 75.6761H96.6067H102.819L102.864 78.4126ZM86.3228 106.655C85.6023 107.095 85.6041 108.245 86.3265 109.088C86.6818 109.503 86.8442 109.595 87.2195 109.595C88.2871 109.595 88.6642 107.861 87.8015 106.919C87.4686 106.556 86.7084 106.42 86.3228 106.655ZM104.463 106.882C104.027 107.388 104.009 108.062 104.409 108.855C104.809 109.649 105.235 109.835 105.837 109.478C106.953 108.817 106.967 107.35 105.863 106.687C105.33 106.367 104.849 106.434 104.463 106.882ZM95.6551 111.157C94.7999 111.853 94.8976 113.421 95.8241 113.87C96.332 114.117 96.7954 114.014 97.2714 113.548C97.7599 113.071 97.8769 112.661 97.6808 112.116C97.3225 111.12 96.2975 110.635 95.6551 111.157Z" fill="#FB9405"/>
</svg>
