<svg width="114" height="114" viewBox="0 0 114 114" fill="none" xmlns="http://www.w3.org/2000/svg">
<path fill-rule="evenodd" clip-rule="evenodd" d="M49.1022 0.22312C47.7387 0.544556 45.9083 1.55305 44.7497 2.62142C43.7969 3.49996 42.0375 6.47675 42.0375 7.21061C42.0375 7.41254 41.3499 7.5387 39.8069 7.61947C37.9679 7.71569 37.3039 7.86369 36.0238 8.46309C33.8559 9.47776 32.4722 10.8353 31.4058 12.9931L30.5187 14.7882L30.452 32.0842L30.3853 49.3802H29.1128C27.2227 49.3802 26.7503 49.8561 26.5995 51.913L26.4803 53.5378L26.035 52.6407C25.5564 51.6761 23.6526 49.8554 23.1228 49.8554C22.8656 49.8554 22.8 49.1541 22.8 46.3999C22.8 43.0477 22.7827 42.9268 22.2169 42.3611C21.6389 41.7827 21.5973 41.7779 17.1 41.7779C12.6027 41.7779 12.5611 41.7827 11.9831 42.3611C11.4173 42.9268 11.4 43.0477 11.4 46.3999C11.4 49.3771 11.3485 49.8554 11.0283 49.8554C10.8238 49.8554 10.0966 50.4168 9.41189 51.1026C7.66413 52.8543 7.54775 53.4099 7.64156 59.5491L7.71875 64.5854L4.44244 64.5851C1.28013 64.5849 1.14546 64.6053 0.583062 65.1681C0.00475 65.7464 0 65.788 0 70.2866C0 74.7853 0.00475 74.8269 0.583062 75.4051C1.06162 75.8841 1.40125 75.9884 2.48306 75.9884H3.8V88.7303C3.8 98.0401 3.8779 101.736 4.0888 102.45C4.47426 103.755 6.44171 105.723 7.7463 106.109C8.284 106.268 9.32591 106.398 10.0619 106.398H11.4V109.616C11.4 112.716 11.4214 112.855 11.9831 113.417C12.5602 113.994 12.6098 114 16.986 114C19.6016 114 21.5954 113.899 21.8692 113.752C22.1241 113.616 23.133 111.905 24.1115 109.951L25.8906 106.398H57H88.1094L89.8885 109.951C90.867 111.905 91.8759 113.616 92.1308 113.752C92.4046 113.899 94.3984 114 97.014 114C101.39 114 101.44 113.994 102.017 113.417C102.579 112.855 102.6 112.716 102.6 109.616V106.398H103.983C106.045 106.398 107.404 105.84 108.609 104.5C109.173 103.872 109.762 102.933 109.918 102.415C110.121 101.737 110.2 97.8871 110.2 88.7303V75.9884H111.517C112.599 75.9884 112.938 75.8841 113.417 75.4051C113.995 74.8269 114 74.7853 114 70.2866C114 65.788 113.995 65.7464 113.417 65.1681L112.834 64.5849H106.81H100.787L101.58 62.9813C102.13 61.8685 102.418 60.8935 102.519 59.7957C102.655 58.3146 102.625 58.1742 102.049 57.5981L101.434 56.9826H92.5231H83.6123L83.5468 35.8854L83.4812 14.7882L82.5942 12.9934C81.5278 10.8353 80.1441 9.47776 77.9762 8.46309C76.6961 7.86369 76.0321 7.71569 74.1931 7.61947C72.6501 7.5387 71.9625 7.41254 71.9625 7.21061C71.9625 7.05001 71.5839 6.16172 71.1215 5.23685C69.8276 2.64992 67.5611 0.851737 64.7879 0.211954C63.5353 -0.0771719 50.3357 -0.0676688 49.1022 0.22312ZM64.4537 4.05517C66.4853 4.65575 68.4 7.27166 68.4 9.44688C68.4 9.93224 68.6085 10.4109 68.9831 10.7854C69.5324 11.3351 69.7186 11.3686 72.2211 11.3686C75.397 11.3686 76.4087 11.6352 77.7653 12.8297C79.8304 14.6478 79.666 12.5864 79.8 38.3485L79.9187 61.1707L80.7659 62.8779L81.6133 64.5849H61.5602H41.5072L41.6504 64.0503C41.729 63.7562 41.795 62.9012 41.7967 62.1498L41.8 60.7837H58.3169H74.8341L75.4169 60.2005L76 59.6175V39.8562C76 25.0354 75.9278 19.8507 75.7112 19.1173C75.3257 17.8123 73.3583 15.8442 72.0537 15.4587C71.4958 15.2938 69.6863 15.1698 67.8381 15.1698H64.6V13.8313C64.6 11.7692 64.173 10.6877 62.8268 9.34116C61.3244 7.83827 60.4347 7.56744 57 7.56744C53.5653 7.56744 52.6756 7.83827 51.1732 9.34116C49.827 10.6877 49.4 11.7692 49.4 13.8313V15.1698H46.1619C44.3137 15.1698 42.5042 15.2938 41.9463 15.4587C40.6417 15.8442 38.6743 17.8123 38.2888 19.1173C38.0753 19.8404 38 24.0609 38 35.3209V50.5465L37.4169 49.9635C36.9384 49.4845 36.5987 49.3802 35.5169 49.3802H34.2V32.8371C34.2 20.5429 34.2741 16.0428 34.4888 15.3161C34.8743 14.0111 36.8417 12.0431 38.1463 11.6575C38.684 11.4986 40.3187 11.3686 41.7789 11.3686C44.2814 11.3686 44.4676 11.3351 45.0169 10.7854C45.3915 10.4109 45.6 9.93224 45.6 9.44688C45.6 7.97488 46.1489 6.76492 47.3732 5.53738C48.0308 4.87836 48.9428 4.22099 49.4 4.07679C50.6055 3.69667 63.1797 3.67861 64.4537 4.05517ZM60.2169 11.9518C60.7658 12.5009 60.8 12.689 60.8 15.1698C60.8 17.6505 60.8342 17.8387 61.3831 18.3877C61.9611 18.9662 62.0027 18.9709 66.5 18.9709C70.9973 18.9709 71.0389 18.9757 71.6169 19.5542L72.2 20.1372V38.56V56.9826H57H41.8V38.56V20.1372L42.3831 19.5542C42.9611 18.9757 43.0027 18.9709 47.5 18.9709C51.9973 18.9709 52.0389 18.9662 52.6169 18.3877C53.1658 17.8387 53.2 17.6505 53.2 15.1698C53.2 12.689 53.2342 12.5009 53.7831 11.9518C54.3319 11.4028 54.52 11.3686 57 11.3686C59.48 11.3686 59.6681 11.4028 60.2169 11.9518ZM53.7467 30.9213C51.6486 33.0203 51.3 33.4788 51.3 34.1395C51.3 35.1717 52.2042 36.0762 53.2361 36.0762C53.8966 36.0762 54.355 35.7274 56.4533 33.6287C58.5513 31.5297 58.9 31.0712 58.9 30.4105C58.9 29.3783 57.9958 28.4738 56.9639 28.4738C56.3034 28.4738 55.845 28.8226 53.7467 30.9213ZM57.5394 38.5163C51.9192 44.1382 51.3 44.8348 51.3 45.5354C51.3 46.0447 51.5014 46.5149 51.8831 46.8964C52.2645 47.2782 52.7345 47.4796 53.2437 47.4796C53.9441 47.4796 54.6404 46.8603 60.2606 41.2384C65.8808 35.6165 66.5 34.9199 66.5 34.2193C66.5 33.1754 65.5999 32.275 64.5563 32.275C63.8559 32.275 63.1596 32.8944 57.5394 38.5163ZM19 48.797C19 51.8971 19.0214 52.0365 19.5831 52.5982C19.9505 52.9659 20.4373 53.1814 20.9 53.1814C21.3626 53.1814 21.8495 53.3969 22.2169 53.7646C22.7952 54.3429 22.8 54.3845 22.8 58.8831C22.8 64.9897 23.2047 64.5849 17.1 64.5849C10.9953 64.5849 11.4 64.9897 11.4 58.8831C11.4 54.3845 11.4048 54.3429 11.9831 53.7646C12.3505 53.3969 12.8373 53.1814 13.3 53.1814C13.7626 53.1814 14.2495 52.9659 14.6169 52.5982C15.1786 52.0365 15.2 51.8971 15.2 48.797V45.5791H17.1H19V48.797ZM34.2 54.4987C34.2 56.0841 34.8873 56.9826 36.1 56.9826C36.5626 56.9826 37.0495 57.198 37.4169 57.5658C37.9658 58.1148 38 58.303 38 60.7837C38 63.2645 37.9658 63.4526 37.4169 64.0016C36.8389 64.5801 36.7973 64.5849 32.3 64.5849C27.8027 64.5849 27.7611 64.5801 27.1831 64.0016C26.6342 63.4526 26.6 63.2645 26.6 60.7837C26.6 58.303 26.6342 58.1148 27.1831 57.5658C27.5505 57.198 28.0373 56.9826 28.5 56.9826C29.7127 56.9826 30.4 56.0841 30.4 54.4987V53.1814H32.3H34.2V54.4987ZM98.325 61.1555C98.325 61.8027 95.916 63.9819 94.8537 64.296C93.6049 64.6649 89.1368 64.6704 87.6843 64.3043C86.8592 64.0967 86.2474 63.7006 85.3228 62.7758C83.2544 60.7068 83.0271 60.7837 91.2 60.7837C97.507 60.7837 98.325 60.8265 98.325 61.1555ZM110.2 70.2866V72.1872H57H3.8V70.2866V68.386H57H110.2V70.2866ZM15.2 77.3269C15.2 79.389 15.627 80.4704 16.9732 81.817C18.6077 83.452 19.2123 83.5907 24.7 83.5907C30.1877 83.5907 30.7923 83.452 32.4268 81.817C33.773 80.4704 34.2 79.389 34.2 77.3269V75.9884H38H41.8V81.6901V87.3919H24.7H7.6V81.6901V75.9884H11.4H15.2V77.3269ZM30.4 77.3057C30.4 78.3879 30.2957 78.7276 29.8169 79.2063C29.2389 79.7848 29.1973 79.7895 24.7 79.7895C20.2027 79.7895 20.1611 79.7848 19.5831 79.2063C19.1043 78.7276 19 78.3879 19 77.3057V75.9884H24.7H30.4V77.3057ZM53.2 77.3269C53.2 79.389 53.627 80.4704 54.9732 81.817C56.6077 83.452 57.2123 83.5907 62.7 83.5907C68.1877 83.5907 68.7923 83.452 70.4268 81.817C71.773 80.4704 72.2 79.389 72.2 77.3269V75.9884H76H79.8V81.6901V87.3919H62.7H45.6V81.6901V75.9884H49.4H53.2V77.3269ZM68.4 77.3057C68.4 78.3879 68.2957 78.7276 67.8169 79.2063C67.2389 79.7848 67.1973 79.7895 62.7 79.7895C58.2027 79.7895 58.1611 79.7848 57.5831 79.2063C57.1043 78.7276 57 78.3879 57 77.3057V75.9884H62.7H68.4V77.3057ZM106.4 88.7092V101.43L105.817 102.013L105.234 102.597H94.4169H83.6V100.696V98.7954H84.9827C87.0454 98.7954 88.4037 98.238 89.6085 96.8976C90.1733 96.2692 90.7623 95.3311 90.9176 94.8127C91.3024 93.5281 91.2974 85.0449 90.9112 83.737C90.5257 82.4321 88.5583 80.464 87.2537 80.0784C86.716 79.9195 85.6741 79.7895 84.9381 79.7895H83.6V77.889V75.9884H95H106.4V88.7092ZM86.8169 84.1739C87.3953 84.7522 87.4 84.7938 87.4 89.2924C87.4 93.7911 87.3953 93.8327 86.8169 94.4109C86.3384 94.8899 85.9988 94.9942 84.9169 94.9942H83.6V89.2924V83.5907H84.9169C85.9988 83.5907 86.3384 83.695 86.8169 84.1739ZM15.2 92.5315C15.2 94.5936 15.627 95.6751 16.9732 97.0216C18.6098 98.6587 19.2083 98.7954 24.7447 98.7954C30.3069 98.7954 31.0681 98.6117 32.6085 96.8976C33.7815 95.5926 34.2 94.4444 34.2 92.5315V91.193H38H41.8V96.8948V102.597H25.2831H8.76589L8.18306 102.013C7.6 101.43 7.6 101.43 7.6 96.3115V91.193H11.4H15.2V92.5315ZM30.4 92.5104C30.4 93.5925 30.2957 93.9322 29.8169 94.4109C29.2389 94.9894 29.1973 94.9942 24.7 94.9942C20.2027 94.9942 20.1611 94.9894 19.5831 94.4109C19.1043 93.9322 19 93.5925 19 92.5104V91.193H24.7H30.4V92.5104ZM53.2 92.5315C53.2 94.5936 53.627 95.6751 54.9732 97.0216C56.6098 98.6587 57.2083 98.7954 62.7446 98.7954C68.3069 98.7954 69.0681 98.6117 70.6085 96.8976C71.7815 95.5926 72.2 94.4444 72.2 92.5315V91.193H76H79.8V96.8948V102.597H62.7H45.6V96.8948V91.193H49.4H53.2V92.5315ZM68.4 92.5104C68.4 93.5925 68.2957 93.9322 67.8169 94.4109C67.2389 94.9894 67.1973 94.9942 62.7 94.9942C58.2027 94.9942 58.1611 94.9894 57.5831 94.4109C57.1043 93.9322 57 93.5925 57 92.5104V91.193H62.7H68.4V92.5104ZM20.6625 108.298L19.7073 110.199H17.4536H15.2V108.298V106.398H18.4089H21.6177L20.6625 108.298ZM98.8 108.298V110.199H96.5464H94.2927L93.3375 108.298L92.3823 106.398H95.5911H98.8V108.298Z" fill="#FF9601"/>
</svg>
