<svg width="114" height="114" viewBox="0 0 114 114" fill="none" xmlns="http://www.w3.org/2000/svg">
<path fill-rule="evenodd" clip-rule="evenodd" d="M10.3034 0.555141C9.77169 1.05523 9.49602 2.09195 7.53513 10.9686C1.34024 39.0104 0.178723 44.3236 0.0492448 45.2086C-0.0615136 45.9656 0.00400526 46.3023 0.354109 46.7756C0.783548 47.3563 0.920603 47.3826 4.10608 47.5L7.41211 47.6218L7.41947 80.2287L7.42705 112.836L8.04613 113.418L8.66544 114H56.9998H105.334L105.949 113.422L106.563 112.844L106.574 80.2331L106.585 47.6218L109.892 47.5C113.079 47.3826 113.216 47.3563 113.645 46.7756C113.992 46.3069 114.061 45.9632 113.954 45.2314C113.878 44.7136 112.023 36.1607 109.831 26.2251C107.64 16.2893 105.514 6.62564 105.108 4.75C104.513 2.00596 104.251 1.20894 103.767 0.669872L103.165 0H57.0294H10.894L10.3034 0.555141ZM18.4461 4.32664C18.4461 4.56292 17.2863 11.3864 15.8687 19.4901C14.4512 27.5941 12.9286 36.3343 12.4849 38.9135L11.6784 43.6026H7.93092C5.86974 43.6026 4.18341 43.5166 4.18341 43.4116C4.18341 43.3066 5.34292 37.963 6.76027 31.5366C8.17739 25.1104 10.0295 16.6986 10.8757 12.844C11.7221 8.98919 12.5219 5.39917 12.6532 4.86644L12.8919 3.89744H15.6691C18.1726 3.89744 18.4461 3.93958 18.4461 4.32664ZM28.9953 4.38462C28.9752 4.58558 27.875 13.4919 26.5504 24.1763L24.1418 43.6026H19.7549C15.6909 43.6026 15.3745 43.5711 15.4583 43.1763C15.508 42.9417 16.8087 35.5154 18.3491 26.6731C19.8893 17.8308 21.4131 9.08614 21.7354 7.2407L22.321 3.88526L25.6763 3.95224C28.5023 4.00876 29.0258 4.07696 28.9953 4.38462ZM39.4959 5.17628C39.4273 5.87977 38.982 11.7167 38.5067 18.1474C38.0313 24.5782 37.4136 32.9365 37.1339 36.7212L36.6256 43.6026H32.1979H27.7705L27.8964 42.9327C28.0462 42.1369 32.7087 4.58826 32.7087 4.17927C32.7087 3.97806 33.6968 3.89744 36.1649 3.89744H39.621L39.4959 5.17628ZM50.3182 5.41987C50.3262 8.38704 49.6329 39.131 49.5081 41.3494L49.3811 43.6026H44.8115H40.2421L40.3778 42.2019C40.4524 41.4317 40.8652 36.033 41.2948 30.2051C41.7245 24.3772 42.3251 16.3057 42.6295 12.2682C42.9337 8.23065 43.1828 4.69544 43.1828 4.41238C43.1828 3.90962 43.2675 3.89744 46.7485 3.89744H50.3142L50.3182 5.41987ZM59.9829 6.15064C60.0529 7.38978 60.2142 13.501 60.3415 19.7308C60.4687 25.9606 60.6372 33.8802 60.7161 37.3301L60.8596 43.6026H56.9998H53.1399L53.2835 37.3301C53.3624 33.8802 53.5308 25.9606 53.6581 19.7308C53.7853 13.501 53.9467 7.38978 54.0167 6.15064L54.1444 3.89744H56.9998H59.8552L59.9829 6.15064ZM70.8167 4.37536C70.8167 4.97045 73.435 40.2802 73.6216 42.2019L73.7575 43.6026H69.1881H64.6185L64.4915 41.3494C64.3667 39.131 63.6734 8.38704 63.6814 5.41987L63.6854 3.89744H67.2511C70.6453 3.89744 70.8167 3.92033 70.8167 4.37536ZM81.2909 4.20947C81.2909 4.56828 85.8926 41.6129 86.086 42.8109L86.2139 43.6026H81.7466H77.2795V42.9132C77.2795 42.0945 74.6774 6.73136 74.4938 5.05449L74.367 3.89744H77.829C80.495 3.89744 81.2909 3.96929 81.2909 4.20947ZM92.2653 7.24679C92.5869 9.08906 94.1103 17.8308 95.6504 26.6731C97.1908 35.5154 98.4916 42.9417 98.5413 43.1763C98.6251 43.5711 98.3086 43.6026 94.2442 43.6026H89.8567L87.4487 24.1763C86.1243 13.4919 84.9927 4.55805 84.9336 4.32372C84.8349 3.93105 85.0974 3.89744 88.2535 3.89744H91.6805L92.2653 7.24679ZM101.215 4.32372C101.436 5.10808 109.816 43.1687 109.816 43.3872C109.816 43.5056 108.132 43.6026 106.073 43.6026H102.33L101.52 38.9135C101.074 36.3343 99.5493 27.5848 98.1315 19.4701C96.7137 11.3552 95.5535 4.53174 95.5535 4.30667C95.5535 3.94542 95.8782 3.89744 98.3242 3.89744C100.769 3.89744 101.109 3.94762 101.215 4.32372ZM13.5433 74.5502V101.6L14.1329 102.198L14.7226 102.795H56.9998H99.2769L99.8666 102.198L100.456 101.6V74.5502V47.5H101.682H102.908V78.8013V110.103H56.9998H11.0919V78.8013V47.5H12.3176H13.5433V74.5502ZM55.2169 73.2012V98.9026L45.3557 98.839L35.4944 98.7756L35.432 95.807L35.3694 92.8386L39.4077 92.7621C43.3428 92.6878 43.4569 92.6713 43.8715 92.1108C44.1057 91.7946 44.2971 91.2234 44.2971 90.8414C44.2971 90.4597 42.8847 85.2925 41.1584 79.3589L38.0195 68.5705L38.106 66.5C38.2199 63.7728 38.6894 62.7107 41.8194 58.102C43.9269 54.9989 44.2971 54.319 44.2971 53.5522C44.2971 52.8685 44.1554 52.5289 43.7099 52.146C43.1367 51.653 42.8969 51.641 33.56 51.641H23.9971L23.4502 52.239C22.8666 52.8768 22.7491 53.7944 23.1467 54.6065C23.2806 54.88 24.3918 56.5801 25.6157 58.3843C26.8396 60.1883 28.0751 62.177 28.3615 62.8035C29.0082 64.2188 29.4029 66.4871 29.2329 67.8112C29.162 68.3627 27.7005 73.6815 25.9852 79.6305C22.5829 91.4299 22.5319 91.7286 23.7934 92.4418C24.2931 92.7241 25.2839 92.8077 28.1291 92.8077H31.8173V95.8526V98.8974H24.4631H17.1089V73.1987V47.5H36.1629H55.2169V73.2012ZM96.8906 73.1987V98.8974H88.645H80.3994V95.7308V92.5641H84.5334C88.8318 92.5641 89.7419 92.3819 90.0666 91.457C90.1426 91.2402 90.205 86.765 90.205 81.5119C90.205 71.3394 90.1272 70.4306 89.0606 68.1369C88.3288 66.5633 86.7655 64.5233 85.5661 63.5769L84.4857 62.7244L85.3682 61.6021C86.5917 60.0463 89.5364 54.3707 89.5364 53.5681C89.5364 53.2078 89.3448 52.6541 89.1106 52.3379L88.6847 51.7628L78.7679 51.6946L68.8514 51.6264L68.2294 52.2113C67.2408 53.1408 67.3977 53.9951 69.1703 57.3337C70.0144 58.9241 71.1539 60.7761 71.7023 61.4494L72.6992 62.6734L72.148 63.0644C70.0682 64.5389 68.1984 67.2848 67.4104 70.0218C66.9348 71.6743 66.9168 72.0972 66.9168 81.5626V91.3878L67.5421 91.9761C68.1567 92.5541 68.2403 92.5641 72.5073 92.5641H76.8471L76.7847 95.6699L76.7223 98.7756L67.7525 98.8392L58.7826 98.903V73.2014V47.5H77.8366H96.8906V73.1987ZM38.0449 56.9391C36.1453 59.8054 35.5715 60.8697 35.0429 62.5068C34.7449 63.4303 34.4989 64.4875 34.4962 64.8558C34.492 65.4591 34.4133 65.5256 33.7046 65.5256C33.2643 65.5256 32.8839 65.3914 32.8413 65.2212C32.7992 65.0538 32.6383 64.3138 32.4838 63.5769C32.1126 61.8075 31.3729 60.2293 29.7829 57.8146C29.0633 56.7221 28.4745 55.7628 28.4745 55.6832C28.4745 55.6035 30.8367 55.5385 33.7238 55.5385H38.9731L38.0449 56.9391ZM84.4108 55.7514C84.4108 56.2468 83.1474 58.3765 82.355 59.2172C80.2971 61.4002 76.8405 61.4099 74.7559 59.2388C74.1769 58.6357 72.5995 56.0393 72.5995 55.6892C72.5995 55.6064 75.2571 55.5385 78.5052 55.5385C81.7533 55.5385 84.4108 55.6342 84.4108 55.7514ZM81.7925 65.711C83.3572 66.4769 85.1302 68.4297 85.8874 70.2216L86.5279 71.7372L86.5992 80.2178L86.6705 88.6981L85.8192 88.6216L84.9679 88.5449L84.9073 83.991L84.8467 79.4373L84.2644 78.9365C83.6159 78.3789 82.7006 78.2968 82.1629 78.7482C81.3963 79.3915 81.2909 80.074 81.2909 84.3953V88.6818L78.5609 88.6133L75.8309 88.5449L75.7703 83.991L75.7097 79.4373L75.1274 78.9365C74.4789 78.3789 73.5636 78.2968 73.0259 78.7482C72.2595 79.3915 72.1538 80.0743 72.1538 84.3878V88.6667H71.3739H70.5939L70.5992 80.3237C70.6043 72.1868 70.617 71.9472 71.116 70.6215C72.0504 68.1389 73.4047 66.6542 75.7017 65.5948C76.7533 65.1096 77.2376 65.0343 78.8395 65.1072C80.1541 65.1668 81.0577 65.3515 81.7925 65.711ZM34.7926 70.3365C34.8662 70.7048 34.9907 71.2529 35.0694 71.5545C35.2078 72.0862 35.1646 72.1026 33.6262 72.1026C32.7537 72.1026 32.0401 72.0641 32.0401 72.0171C32.0401 71.97 32.1493 71.5591 32.2826 71.1036C32.4161 70.6483 32.5632 70.1387 32.61 69.9712C32.661 69.7877 33.0849 69.6667 33.6768 69.6667C34.5669 69.6667 34.6712 69.7293 34.7926 70.3365ZM38.1446 82.1523C39.112 85.5343 39.9501 88.4384 40.0069 88.6058C40.0883 88.845 38.7422 88.9103 33.7354 88.9103C28.431 88.9103 27.3602 88.8533 27.3602 88.5705C27.3602 88.3069 30.3389 77.7166 30.8102 76.3045C30.884 76.0833 31.6608 76.0005 33.6489 76.0017L36.3858 76.0034L38.1446 82.1523Z" fill="#FF9601"/>
</svg>
