<svg width="69" height="64" viewBox="0 0 69 64" fill="none" xmlns="http://www.w3.org/2000/svg">
<g clip-path="url(#clip0_4_6)">
<path fill-rule="evenodd" clip-rule="evenodd" d="M6.23627 0.311658C5.91444 0.59241 5.74759 1.17443 4.56074 6.15781C0.811198 21.9006 0.108174 24.8834 0.0298061 25.3803C-0.0372319 25.8052 0.00242423 25.9943 0.214329 26.26C0.474253 26.586 0.557207 26.6008 2.48526 26.6667L4.48628 26.735L4.49073 45.0407L4.49532 63.3465L4.87003 63.6733L5.24487 64H34.4999H63.7548L64.127 63.6755L64.4987 63.351L64.5053 45.0431L64.512 26.735L66.5136 26.6667C68.4425 26.6008 68.5255 26.586 68.7851 26.26C68.9952 25.9969 69.0369 25.8039 68.9722 25.3931C68.9262 25.1024 67.8034 20.3007 66.4767 14.7229C65.1505 9.14487 63.8637 3.71966 63.618 2.66667C63.2579 1.12615 63.0993 0.678703 62.8063 0.376068L62.442 0H34.5178H6.59374L6.23627 0.311658ZM11.1647 2.42899C11.1647 2.56164 10.4628 6.39237 9.60474 10.9418C8.74678 15.4914 7.8252 20.3982 7.55665 21.8462L7.0685 24.4787H4.80029C3.55274 24.4787 2.53206 24.4304 2.53206 24.3714C2.53206 24.3125 3.23387 21.3126 4.09174 17.7048C4.94947 14.0971 6.07049 9.37465 6.58266 7.21067C7.09495 5.04656 7.57904 3.03111 7.65852 2.73204L7.80299 2.18804H9.48393C10.9992 2.18804 11.1647 2.21169 11.1647 2.42899ZM17.5498 2.46154C17.5376 2.57436 16.8717 7.5744 16.07 13.5727L14.6121 24.4787H11.9569C9.49712 24.4787 9.30562 24.461 9.35634 24.2393C9.38642 24.1076 10.1737 19.9385 11.106 14.9744C12.0383 10.0103 12.9606 5.10099 13.1556 4.06495L13.5101 2.1812L15.5409 2.2188C17.2514 2.25053 17.5682 2.28882 17.5498 2.46154ZM23.9054 2.90598C23.8639 3.30092 23.5944 6.5778 23.3067 10.188C23.0189 13.7983 22.6451 18.4907 22.4758 20.6154L22.1681 24.4787H19.4882H16.8085L16.8847 24.1026C16.9753 23.6558 19.7974 2.57587 19.7974 2.34626C19.7974 2.2333 20.3954 2.18804 21.8893 2.18804H23.9811L23.9054 2.90598ZM30.4557 3.04273C30.4606 4.70851 30.041 21.9683 29.9654 23.2137L29.8886 24.4787H27.1227H24.3571L24.4392 23.6923C24.4843 23.2599 24.7342 20.2291 24.9942 16.9572C25.2543 13.6854 25.6178 9.15408 25.8021 6.88741C25.9862 4.62072 26.137 2.63604 26.137 2.47713C26.137 2.19487 26.1882 2.18804 28.2951 2.18804H30.4533L30.4557 3.04273ZM36.3054 3.45299C36.3478 4.14865 36.4454 7.57951 36.5225 11.0769C36.5995 14.5744 36.7015 19.0205 36.7492 20.9572L36.8361 24.4787H34.4999H32.1636L32.2505 20.9572C32.2983 19.0205 32.4002 14.5744 32.4773 11.0769C32.5543 7.57951 32.6519 4.14865 32.6943 3.45299L32.7716 2.18804H34.4999H36.2281L36.3054 3.45299ZM42.8627 2.45634C42.8627 2.79043 44.4475 22.6134 44.5604 23.6923L44.6427 24.4787H41.877H39.1112L39.0343 23.2137C38.9588 21.9683 38.5392 4.70851 38.544 3.04273L38.5464 2.18804H40.7046C42.759 2.18804 42.8627 2.20089 42.8627 2.45634ZM49.2024 2.36321C49.2024 2.56465 51.9876 23.3616 52.1047 24.0342L52.1821 24.4787H49.4782H46.7744V24.0916C46.7744 23.632 45.1995 3.77901 45.0883 2.83761L45.0116 2.18804H47.107C48.7207 2.18804 49.2024 2.22837 49.2024 2.36321ZM55.8448 4.06837C56.0394 5.10263 56.9615 10.0103 57.8937 14.9744C58.826 19.9385 59.6133 24.1076 59.6434 24.2393C59.6941 24.461 59.5026 24.4787 57.0425 24.4787H54.3869L52.9295 13.5727C52.1279 7.5744 51.4429 2.55891 51.4072 2.42735C51.3474 2.20691 51.5063 2.18804 53.4166 2.18804H55.4908L55.8448 4.06837ZM61.2617 2.42735C61.3955 2.86769 66.4676 24.2351 66.4676 24.3577C66.4676 24.4242 65.4483 24.4787 64.2021 24.4787H61.9366L61.4463 21.8462C61.1764 20.3982 60.2535 15.4862 59.3954 10.9306C58.5372 6.37485 57.835 2.54413 57.835 2.41778C57.835 2.21497 58.0315 2.18804 59.512 2.18804C60.9918 2.18804 61.1975 2.21621 61.2617 2.42735ZM8.19726 41.8527V57.0386L8.55412 57.3743L8.91105 57.7095H34.4999H60.0886L60.4456 57.3743L60.8023 57.0386V41.8527V26.6667H61.5444H62.2864V44.2393V61.8122H34.4999H6.71352V44.2393V26.6667H7.45539H8.19726V41.8527ZM33.4208 41.0954V55.5243L27.4521 55.4886L21.4835 55.453L21.4457 53.7864L21.4078 52.1199L23.852 52.077C26.2338 52.0353 26.3029 52.026 26.5538 51.7113C26.6956 51.5338 26.8114 51.2131 26.8114 50.9987C26.8114 50.7844 25.9565 47.8835 24.9117 44.5524L23.0118 38.4957L23.0642 37.3333C23.1331 35.8023 23.4173 35.206 25.3117 32.6187C26.5873 30.8766 26.8114 30.4949 26.8114 30.0644C26.8114 29.6806 26.7256 29.4899 26.456 29.2749C26.1091 28.9982 25.9639 28.9914 20.3126 28.9914H14.5246L14.1935 29.3272C13.8403 29.6852 13.7692 30.2004 14.0098 30.6563C14.0909 30.8098 14.7635 31.7643 15.5042 32.7772C16.245 33.7899 16.9928 34.9064 17.1662 35.2581C17.5576 36.0527 17.7965 37.3261 17.6936 38.0694C17.6507 38.3791 16.7661 41.3651 15.7279 44.7048C13.6686 51.3291 13.6377 51.4968 14.4013 51.8972C14.7037 52.0556 15.3034 52.1026 17.0255 52.1026H19.2578V53.812V55.5213H14.8066H10.3554V41.094V26.6667H21.8881H33.4208V41.0954ZM58.6443 41.094V55.5213H53.6535H48.6628V53.7436V51.9658H51.1649C53.7666 51.9658 54.3175 51.8635 54.514 51.3443C54.56 51.2226 54.5978 48.7102 54.5978 45.7611C54.5978 40.0502 54.5507 39.54 53.9051 38.2523C53.4622 37.3689 52.516 36.2236 51.79 35.6923L51.1361 35.2137L51.6702 34.5836C52.4108 33.7102 54.1931 30.5239 54.1931 30.0733C54.1931 29.871 54.0771 29.5602 53.9354 29.3827L53.6776 29.0598L47.6753 29.0215L41.6732 28.9832L41.2967 29.3116C40.6984 29.8334 40.7933 30.313 41.8662 32.1873C42.3771 33.0802 43.0668 34.1199 43.3988 34.4979L44.0021 35.1851L43.6685 35.4046C42.4097 36.2324 41.278 37.7739 40.801 39.3105C40.5132 40.2382 40.5023 40.4756 40.5023 45.7895V51.3054L40.8807 51.6357C41.2527 51.9602 41.3033 51.9658 43.886 51.9658H46.5127L46.4749 53.7094L46.4372 55.453L41.0081 55.4887L35.5789 55.5245V41.0955V26.6667H47.1116H58.6443V41.094ZM23.0272 31.9658C21.8774 33.575 21.5301 34.1725 21.2102 35.0915C21.0298 35.61 20.8809 36.2035 20.8793 36.4103C20.8767 36.749 20.8291 36.7863 20.4002 36.7863C20.1337 36.7863 19.9034 36.711 19.8776 36.6154C19.8521 36.5214 19.7548 36.106 19.6612 35.6923C19.4366 34.6989 18.9889 33.8129 18.0265 32.4573C17.5909 31.844 17.2346 31.3054 17.2346 31.2607C17.2346 31.216 18.6643 31.1795 20.4118 31.1795H23.589L23.0272 31.9658ZM51.0907 31.299C51.0907 31.5772 50.3261 32.7728 49.8464 33.2447C48.6009 34.4703 46.5087 34.4757 45.247 33.2569C44.8965 32.9183 43.9418 31.4607 43.9418 31.2641C43.9418 31.2176 45.5503 31.1795 47.5163 31.1795C49.4823 31.1795 51.0907 31.2332 51.0907 31.299ZM49.506 36.8904C50.453 37.3204 51.5262 38.4167 51.9845 39.4227L52.3721 40.2735L52.4153 45.0346L52.4585 49.7954L51.9432 49.7525L51.4279 49.7094L51.3913 47.1528L51.3546 44.5964L51.0021 44.3152C50.6096 44.0022 50.0556 43.9561 49.7302 44.2095C49.2662 44.5707 49.2024 44.9538 49.2024 47.3798V49.7863L47.55 49.7478L45.8976 49.7094L45.861 47.1528L45.8243 44.5964L45.4718 44.3152C45.0793 44.0022 44.5253 43.9561 44.1999 44.2095C43.736 44.5707 43.672 44.954 43.672 47.3756V49.7778H43.2H42.7279L42.7311 45.094C42.7342 40.5259 42.7419 40.3914 43.0439 39.6472C43.6094 38.2534 44.4292 37.4199 45.8194 36.8252C46.4559 36.5528 46.7491 36.5105 47.7186 36.5514C48.5143 36.5849 49.0612 36.6886 49.506 36.8904ZM21.0587 39.4872C21.1032 39.6939 21.1786 40.0016 21.2262 40.1709C21.31 40.4694 21.2838 40.4787 20.3527 40.4787C19.8246 40.4787 19.3927 40.457 19.3927 40.4307C19.3927 40.4042 19.4588 40.1735 19.5395 39.9178C19.6203 39.6622 19.7093 39.3761 19.7376 39.2821C19.7685 39.1791 20.0251 39.1111 20.3833 39.1111C20.9221 39.1111 20.9852 39.1463 21.0587 39.4872ZM23.0875 46.1206C23.6731 48.0193 24.1803 49.6496 24.2147 49.7436C24.264 49.8779 23.4492 49.9146 20.4188 49.9146C17.2082 49.9146 16.5601 49.8826 16.5601 49.7238C16.5601 49.5758 18.363 43.6304 18.6483 42.8376C18.6929 42.7134 19.1631 42.6669 20.3664 42.6676L22.023 42.6686L23.0875 46.1206Z" fill="white"/>
</g>
<defs>
<clipPath id="clip0_4_6">
<rect width="69" height="64" fill="white"/>
</clipPath>
</defs>
</svg>
