<svg width="208" height="214" viewBox="0 0 208 214" fill="none" xmlns="http://www.w3.org/2000/svg">
<path fill-rule="evenodd" clip-rule="evenodd" d="M130.401 1.72424C128.147 2.76324 125.222 5.12825 123.901 6.97925C121.54 10.2902 121.5 10.7132 121.5 32.5212C121.5 53.4232 121.62 54.8592 123.584 57.5212C124.73 59.0752 127.075 61.2462 128.795 62.3462C131.868 64.3112 131.924 64.4882 131.961 72.3962C132.027 86.0772 135.045 86.3592 147.5 73.8462L156.458 64.8462L176.479 64.8442C198.95 64.8432 201.531 64.2342 205.73 57.9482C207.916 54.6762 208 53.7462 208 32.8462C208 11.9842 207.913 11.0132 205.75 7.83624C204.512 6.01824 202.23 3.58924 200.679 2.43824C197.974 0.433244 196.545 0.335244 166.179 0.090244C136.915 -0.145756 134.188 -0.0207571 130.401 1.72424ZM197.985 11.5542C200.018 14.1382 200.101 15.1402 199.807 33.5202C199.538 50.4122 199.281 52.9982 197.716 54.5632C196.135 56.1442 193.476 56.3802 174.216 56.6442L152.5 56.9412L146.75 62.6122L141 68.2832V63.6872C141 58.8652 140.118 57.5702 136 56.3502C130.076 54.5952 130 54.2962 130 32.6912C130 14.1792 130.134 12.7122 132 10.8462C133.914 8.93224 135.333 8.84624 164.927 8.84624H195.855L197.985 11.5542ZM62.951 11.1602C52.962 13.9602 46.292 20.5932 43.375 30.6292C38.241 48.2892 53.378 66.2682 71.961 64.5832C94.341 62.5542 104.799 36.3962 89.966 19.5452C83.206 11.8652 72.4 8.51125 62.951 11.1602ZM77.5 20.7362C84.816 24.1132 88.186 29.6152 88.14 38.1082C88.074 50.2232 76.899 58.5232 64.858 55.3992C55.918 53.0802 50.457 45.4062 51.218 36.2322C52.316 22.9922 65.52 15.2072 77.5 20.7362ZM140.523 20.8202C138.85 22.6692 138.842 22.9552 140.391 25.3202C142.008 27.7872 142.324 27.8462 153.952 27.8462C163.441 27.8462 166.176 27.5272 167.429 26.2752C168.293 25.4102 169 24.0922 169 23.3462C169 19.7062 166.15 18.8462 154.084 18.8462C143.631 18.8462 142.11 19.0682 140.523 20.8202ZM140.01 39.8282C139.236 41.2732 139.236 42.4192 140.01 43.8642C141.052 45.8132 141.902 45.8732 164.687 45.6142C185.897 45.3732 188.395 45.1692 189.387 43.5962C190.191 42.3202 190.191 41.3722 189.387 40.0962C188.395 38.5232 185.897 38.3192 164.687 38.0782C141.902 37.8192 141.052 37.8792 140.01 39.8282ZM57.489 70.8862C36.959 73.5722 26.457 84.1692 24.397 104.279L23.724 110.846H13.796C2.902 110.846 0 111.758 0 115.181C0 118.677 1.93 119.846 7.7 119.846H13V165.811C13 210.231 13.065 211.81 14.934 212.811C16.224 213.501 45.074 213.846 101.5 213.846C157.926 213.846 186.776 213.501 188.066 212.811C189.935 211.81 190 210.231 190 165.811V119.846H195.3C198.215 119.846 201.14 119.306 201.8 118.646C203.637 116.809 203.228 113.038 201.066 111.881C199.82 111.215 184.15 110.846 157.066 110.846H115L114.984 106.596C114.945 95.9242 110.14 84.5812 103.251 78.8992C94.498 71.6802 76.078 68.4542 57.489 70.8862ZM89.931 81.2452C99.943 84.9512 105.16 92.2992 106.51 104.596L107.196 110.846H101.098H95V105.881C95 101.94 94.588 100.696 93 99.8462C89.3 97.8662 87 100.179 87 105.881V110.846H70H53V107.069C53 102.999 50.735 98.8462 48.515 98.8462C45.837 98.8462 44 101.926 44 106.417V110.846H38.366H32.731L33.232 103.842C34.162 90.8472 40.397 83.4902 53.248 80.2272C60.551 78.3722 83.924 79.0212 89.931 81.2452ZM182 162.346V204.846H101.5H21V162.346V119.846H101.5H182V162.346Z" fill="white"/>
</svg>
