<svg width="64" height="58" viewBox="0 0 64 58" fill="none" xmlns="http://www.w3.org/2000/svg">
<path d="M9.02061 0.162787C8.43116 0.374265 7.7377 0.841743 7.37941 1.28696C6.89398 1.91026 1.50805 13.8977 1.51961 14.3652C1.53116 15.4894 2.00503 17.3816 2.52513 18.361C2.90654 19.0957 3.80805 20.2198 4.32815 20.6205L4.7789 20.9656V35.3127V49.6487H3.60001C2.25931 49.6487 1.64674 49.8379 1.2191 50.3722C0.76835 50.9176 0.710561 51.3628 0.756792 53.8337C0.791466 56.1155 0.803024 56.1823 1.08041 56.583C1.23066 56.8056 1.55428 57.0838 1.78544 57.2063L2.21307 57.44H31.9397H61.6663L62.094 57.2063C62.3251 57.0838 62.6488 56.8056 62.799 56.583C63.0764 56.1823 63.088 56.1155 63.1226 53.8337C63.1689 51.3628 63.1111 50.9176 62.6603 50.3722C62.2327 49.8379 61.6201 49.6487 60.291 49.6487H59.1005V35.335V21.0212L59.7709 20.3868C61.0422 19.1847 61.7472 17.9158 62.0478 16.2908C62.1518 15.7565 62.2789 15.0998 62.3367 14.8327C62.4523 14.3875 62.406 14.265 61.5508 12.384C61.0538 11.3044 59.69 8.41044 58.5111 5.96174C56.604 1.96592 56.3266 1.45392 55.8412 0.986439C55.4945 0.663656 55.0553 0.385395 54.6508 0.2407C54.0035 0.00696062 54.0035 0.00696062 31.7317 0.00696062C13.2854 0.0180911 9.3789 0.0403519 9.02061 0.162787ZM53.807 2.77844C54.0035 2.92313 54.8819 4.63722 56.4885 7.96522C57.806 10.7033 58.8694 12.9628 58.8347 12.985C58.8116 13.0073 46.6643 13.0184 31.8472 13.0073L4.90604 12.9739L7.15981 8.02087C8.65076 4.72626 9.50604 2.97879 9.70252 2.81183L9.99147 2.56696H31.7548C53.1483 2.56696 53.5297 2.56696 53.807 2.77844ZM16.0593 16.057C15.9206 16.7583 15.2734 17.8379 14.6146 18.4724C12.2568 20.7318 8.28091 20.7318 5.92312 18.4724C5.26433 17.8379 4.61709 16.7583 4.4784 16.057L4.40905 15.7009H10.2689H16.1402L16.0593 16.057ZM30.4025 16.0793C30.2869 16.7917 29.7206 17.7489 28.9925 18.439C26.6462 20.7096 22.7282 20.7318 20.3704 18.4835C19.6885 17.8268 19.0759 16.8139 18.9372 16.1127L18.8563 15.7009H24.6583H30.4719L30.4025 16.0793ZM44.9422 16.1127C44.8035 16.8139 44.191 17.8268 43.5091 18.4835C42.3764 19.5631 40.8623 20.153 39.1633 20.153C36.5744 20.153 34.1819 18.5169 33.5116 16.2797L33.3382 15.7009H39.1864H45.0231L44.9422 16.1127ZM59.401 16.057C59.2623 16.7583 58.6151 17.8379 57.9563 18.4724C56.7774 19.5965 55.3558 20.153 53.6106 20.153C51.8653 20.153 50.4437 19.5965 49.2648 18.4724C48.606 17.8379 47.9588 16.7583 47.8201 16.057L47.7508 15.7009H53.6106H59.4819L59.401 16.057ZM20.6131 21.8449C22.1618 22.5795 22.9246 22.7576 24.6583 22.7576C27.2472 22.7576 29.0387 22.0564 30.8764 20.3089L31.9397 19.296L33.0146 20.3089C33.8121 21.0769 34.3091 21.4442 35.0025 21.7892C37.6493 23.1137 40.5734 23.136 43.2548 21.8671C44.191 21.4219 44.5377 21.177 45.4161 20.3311L46.4679 19.3183L46.803 19.7412C47.7508 20.921 49.8081 22.1343 51.5302 22.5572C52.5935 22.8132 54.6161 22.8132 55.6101 22.5684C56.0146 22.457 56.3729 22.3791 56.396 22.3791C56.4191 22.3791 56.4422 28.512 56.4422 36.0139V49.6487H54.1307H51.8191V41.0894C51.8191 32.864 51.8075 32.5078 51.588 31.8177C50.9869 29.9256 49.3689 28.5231 47.3809 28.1781C46.9764 28.1002 45.104 28.0557 42.8156 28.0557C38.5508 28.0557 37.8457 28.1336 36.7593 28.6901C35.4995 29.3357 34.3437 30.7715 34.0317 32.0737C33.9508 32.3854 33.9045 35.7579 33.9045 41.1005V49.6487H20.6709H7.43719V36.0139C7.43719 28.512 7.46031 22.3791 7.48343 22.3791C7.50654 22.3791 7.86483 22.457 8.26936 22.5684C9.26333 22.8132 11.2859 22.8132 12.3493 22.5572C14.0829 22.1343 16.1402 20.9099 17.0764 19.7412L17.4116 19.3183L18.4633 20.32C19.3417 21.1659 19.6885 21.4108 20.6131 21.8449ZM46.9648 30.7381C47.7045 30.8939 48.4327 31.417 48.8141 32.0626L49.103 32.5635L49.1377 41.1005L49.1608 49.6487H42.8618H36.5628V41.2897C36.5628 35.257 36.5975 32.7972 36.7015 32.4967C36.8518 31.9847 37.4874 31.239 37.9613 31.0052C38.1347 30.905 38.4814 30.7937 38.7241 30.7381C39.3714 30.5934 46.2598 30.5934 46.9648 30.7381ZM60.4643 53.5666L60.499 54.88H31.9397H3.39197V53.6223C3.39197 52.921 3.42664 52.32 3.47287 52.2866C3.50755 52.2421 16.3483 52.2198 31.9859 52.231L60.4297 52.2644L60.4643 53.5666Z" fill="white"/>
<path d="M16.695 25.1729C16.1518 25.3843 16.1171 25.5513 16.1055 27.4101V29.1687H14.4412C12.7191 29.1687 12.1297 29.2689 11.9447 29.6139C11.8754 29.7363 11.8292 31.0163 11.8292 32.6525C11.8292 35.3795 11.8407 35.4908 12.0719 35.6911C12.2799 35.8803 12.5573 35.9137 14.187 35.9583L16.0478 36.0139L16.0824 37.817C16.1171 40.2657 15.8397 40.0765 19.5729 40.0765C23.2714 40.0765 22.9593 40.2769 23.0402 37.8282L23.098 36.0139L24.9819 35.9583C27.5246 35.8803 27.3166 36.1809 27.3166 32.5746V29.7586L27.0161 29.4915C26.7387 29.2355 26.6462 29.2243 24.8779 29.1909L23.0402 29.1576V27.3989C23.0402 24.9503 23.2829 25.1172 19.7116 25.0838C18.105 25.0727 16.8568 25.1061 16.695 25.1729ZM21.0754 28.6567C21.0754 29.5471 21.1216 30.393 21.191 30.5489C21.3875 31.0609 21.8267 31.1722 23.6759 31.1722H25.3518V32.6191V34.0661H23.5488H21.7457L21.4106 34.3889L21.0754 34.7116V36.448V38.1843H19.5729H18.0704V36.448V34.7116L17.7352 34.3889L17.4 34.0661H15.597H13.794V32.6191V31.1722H15.4699C18.0241 31.1722 18.0704 31.1276 18.0704 28.6678V27.0539H19.5729H21.0754V28.6567Z" fill="white"/>
</svg>
