<svg width="69" height="69" viewBox="0 0 69 69" fill="none" xmlns="http://www.w3.org/2000/svg">
<path fill-rule="evenodd" clip-rule="evenodd" d="M12.2743 0.161667C12.085 0.247657 11.8336 0.483795 11.7156 0.686294C11.5155 1.0297 11.5007 1.24746 11.4968 3.89499L11.4927 6.73532L6.64366 10.349C3.32955 12.8188 1.7382 14.0704 1.61617 14.3032C1.46497 14.5917 1.43249 15.0863 1.40321 17.5397C1.35923 21.243 1.39128 21.5273 1.91485 22.075L2.31777 22.4964L18.5952 22.496C34.333 22.4956 34.8835 22.4886 35.2006 22.2863C35.8483 21.8733 35.8842 21.6487 35.884 18.0242C35.8839 15.135 35.8623 14.7098 35.6977 14.3653C35.5505 14.057 34.5077 13.2243 30.7199 10.3908L25.9283 6.80617L25.8751 3.91047C25.8253 1.20524 25.8073 0.994164 25.6013 0.700551C25.0944 -0.0215631 25.2737 -0.00362989 18.6344 0.00104831C13.7098 0.00438989 12.5558 0.0335731 12.2743 0.161667ZM22.9114 5.4927C22.9464 7.95244 22.9499 7.98574 23.213 8.33616C23.3594 8.5312 25.6115 10.2822 28.2176 12.2273L32.956 15.7639L32.9852 17.6265L33.0144 19.489H18.6902H4.36593V17.6212V15.7535L9.12264 12.1911C11.7389 10.2319 13.979 8.48753 14.1006 8.31477C14.3066 8.02239 14.3241 7.82724 14.3542 5.50228L14.3864 3.0039H18.6312H22.8759L22.9114 5.4927ZM6.9039 31.7996C6.43879 32.053 5.96314 32.5776 5.96314 32.8373C5.96314 32.9116 5.09021 32.9642 3.48246 32.9872C0.73909 33.0262 0.633141 33.0518 0.208495 33.7802C0.0052235 34.129 0.000964316 34.4811 0.000644873 50.9944C0.00021895 69.4646 -0.0410957 68.2712 0.615997 68.7772C0.903815 68.9989 1.07269 69 34.5 69C67.9273 69 68.0962 68.9989 68.384 68.7772C69.0411 68.2712 68.9998 69.4646 68.9994 50.9944C68.999 34.4811 68.9948 34.129 68.7915 33.7802C68.6774 33.5845 68.452 33.3339 68.2908 33.2233C68.0115 33.032 67.1307 33.021 49.707 32.9933L31.4163 32.9642L31.2646 32.6592C31.0555 32.2388 30.6836 31.8954 30.2161 31.6911C29.8683 31.5391 28.4963 31.5193 18.6111 31.5239L7.40063 31.529L6.9039 31.7996ZM34.6065 51.0669V66.0483H18.7408H2.8752V51.0669V36.0855H18.7408H34.6065V51.0669ZM66.1248 40.5409V44.9964H51.8031H37.4815V40.5409V36.0855H51.8031H66.1248V40.5409ZM6.65527 39.1388C6.47958 39.2204 6.21604 39.4231 6.06962 39.5889L5.80342 39.8905L5.77531 50.9209L5.74709 61.9512L5.97784 62.3417C6.41345 63.079 5.72069 63.0409 18.6895 63.0409C31.5259 63.0409 30.7987 63.0769 31.2962 62.4154C31.5182 62.1201 31.5185 62.1063 31.5185 51.102C31.5185 38.7532 31.5736 39.5941 30.7395 39.1979C30.3105 38.9942 29.8631 38.9865 18.6344 38.9883C9.15161 38.9899 6.91508 39.0179 6.65527 39.1388ZM42.6458 39.0619C42.2456 39.1691 41.8716 39.5353 41.6975 39.9903C41.4641 40.6004 41.6113 41.1787 42.1186 41.6446L42.4935 41.9889H51.6041C59.8468 41.9889 60.7427 41.9716 61.0095 41.8067C61.8778 41.2702 61.8979 39.8528 61.0458 39.2486C60.7591 39.0455 60.3985 39.0365 51.8031 39.0211C46.8837 39.0122 42.7629 39.0305 42.6458 39.0619ZM28.6436 51.0112V60.0334H18.6344H8.62516V51.0112V41.9889H18.6344H28.6436V51.0112ZM66.1248 57.026V66.0483H51.8031H37.4815V57.026V48.0038H51.8031H66.1248V57.026ZM42.63 52.5808C42.4456 52.6368 42.1461 52.8595 41.9645 53.0759L41.6342 53.4695L41.6346 57.7261C41.635 61.7513 41.6464 62.0021 41.8429 62.3392C42.425 63.3381 43.8661 63.2487 44.3155 62.1859C44.5059 61.7357 44.517 61.4401 44.4875 57.611C44.4564 53.577 44.4524 53.5123 44.2178 53.1681C44.0867 52.9759 43.7863 52.7378 43.5501 52.639C43.0716 52.4387 43.0945 52.4402 42.63 52.5808Z" fill="white"/>
</svg>
