<svg width="69" height="69" viewBox="0 0 69 69" fill="none" xmlns="http://www.w3.org/2000/svg">
<path fill-rule="evenodd" clip-rule="evenodd" d="M8.43686 0.506705C8.3074 0.785437 7.40131 2.81772 6.42334 5.02299C4.86829 8.52948 2.19981 14.5358 0.599784 18.1311L0.0802111 19.2985L34.4193 19.3207C53.3058 19.333 68.7584 19.3183 68.7584 19.2883C68.7584 19.2358 66.7307 14.6506 62.5862 5.33142C61.5084 2.90805 60.5418 0.717582 60.4383 0.463701L60.25 0.00211496L34.4611 0.00105739L8.67217 0L8.43686 0.506705ZM59.978 8.28352C60.9979 10.5857 62.1454 13.1733 62.528 14.0335L63.2237 15.5977H34.5438C18.7698 15.5977 5.86388 15.5714 5.86388 15.5391C5.86388 15.5069 6.10467 14.9418 6.3989 14.2834C6.69313 13.6249 7.74202 11.2621 8.72974 9.03257C9.71754 6.80307 10.6262 4.77069 10.7491 4.51611L10.9726 4.05338L34.5481 4.07549L58.1237 4.0977L59.978 8.28352ZM0.0353078 23.727C0.0665676 25.3846 0.0931798 25.6995 0.266571 26.4696C0.638315 28.12 1.38585 29.5646 2.5214 30.827C3.44795 31.8569 4.85974 32.814 5.99507 33.1818L6.46359 33.3336V48.8271V64.3207L3.97105 64.3471C1.57941 64.3725 1.46621 64.3813 1.17468 64.5648C0.792591 64.8053 0.425044 65.2398 0.218444 65.6954C-0.00652187 66.1916 -0.00479765 67.1403 0.221967 67.6454C0.438762 68.1283 0.992144 68.6894 1.42109 68.8612C1.73436 68.9867 4.90847 69 34.5106 69C67.1967 69 67.2542 68.9996 67.6589 68.8216C68.1237 68.6173 68.536 68.185 68.7756 67.6512C69.0066 67.1361 69.0077 66.1958 68.7778 65.6836C68.5704 65.2215 68.2275 64.8174 67.8314 64.5684C67.5322 64.3803 67.4352 64.3727 65.0289 64.3471L62.5364 64.3207V48.8271V33.3336L63.0049 33.1818C64.1403 32.814 65.552 31.8569 66.4786 30.827C67.6138 29.5651 68.3452 28.1518 68.728 26.4808C68.9089 25.6907 68.9334 25.4061 68.9649 23.727L69 21.8544H34.5H0L0.0353078 23.727ZM17.185 26.8491C17.9987 29.7715 19.9833 32.0422 22.6374 33.0874L23.3312 33.3606V48.823V64.2854H16.8465C13.2799 64.2854 10.3617 64.2557 10.3617 64.2193C10.3617 64.183 10.3617 57.2197 10.3617 48.7454V33.3375L10.9052 33.1517C11.6093 32.911 12.8066 32.2144 13.4777 31.6551C15.2453 30.1817 16.5158 27.7814 16.7767 25.4225L16.8351 24.8946L16.9264 25.5713C16.9766 25.9435 17.093 26.5185 17.185 26.8491ZM34.4595 26.4231C34.6431 27.2559 35.0928 28.4363 35.503 29.1621C35.7105 29.5292 36.1853 30.1878 36.5582 30.6257C39.5612 34.1523 44.432 34.6739 48.0362 31.8547C49.8633 30.4256 51.1149 28.2043 51.4823 25.7385C51.6042 24.9199 51.6667 24.7447 51.6667 25.2211C51.6667 25.7632 52.0216 27.2042 52.3627 28.0474C53.3073 30.3823 55.3487 32.4041 57.499 33.1345L58.1135 33.3432V48.8366V64.3299L41.8277 64.3076L25.5418 64.2854L25.5391 48.9741L25.5363 33.6628H25.8523C26.8005 33.6628 28.4397 33.2131 29.3804 32.695C32.0467 31.2262 33.7388 28.6252 34.1684 25.3352L34.226 24.8946L34.2848 25.3957C34.3171 25.6713 34.3957 26.1336 34.4595 26.4231ZM42.0988 38.9268C41.2392 39.8386 40.0623 41.0889 37.8072 43.4868L36.7313 44.6307L37.0317 44.9409C37.1968 45.1115 37.5537 45.4825 37.8247 45.7655L38.3174 46.2801L39.8758 44.6217C40.7328 43.7096 41.9739 42.3909 42.6336 41.6912C43.2932 40.9915 43.999 40.2391 44.202 40.0193L44.5711 39.6196L43.9771 38.9727C43.6504 38.6169 43.2944 38.2487 43.1858 38.1546L42.9884 37.9835L42.0988 38.9268ZM48.1391 39.1525C47.5389 39.7925 45.6683 41.7833 43.9822 43.5766C42.2961 45.3699 40.1718 47.6303 39.2616 48.5996C38.3513 49.569 37.4075 50.5697 37.1641 50.8233C36.9207 51.077 36.7362 51.2967 36.754 51.3115C36.7718 51.3264 37.1108 51.6838 37.5072 52.106C37.9037 52.5281 38.2617 52.8736 38.3028 52.8736C38.368 52.8736 39.3823 51.8171 41.809 49.2211C42.18 48.8242 44.2715 46.6034 46.4567 44.2859C48.6419 41.9685 50.5236 39.9665 50.6383 39.8372L50.8469 39.602L50.0894 38.8135C49.6727 38.3798 49.309 38.0168 49.281 38.0069C49.2531 37.9971 48.7393 38.5126 48.1391 39.1525ZM18.8273 40.8283C17.489 41.2714 16.8372 42.7455 17.4031 44.0493C17.4872 44.2432 17.7252 44.573 17.9319 44.7823L18.3078 45.1628L18.3078 47.8726C18.3078 49.6151 18.2812 50.5824 18.2331 50.5824C18.092 50.5824 17.5473 51.2314 17.3876 51.5898C17.1719 52.0737 17.1627 52.956 17.3683 53.4435C17.571 53.9242 18.0235 54.4344 18.4437 54.6564C18.9346 54.9156 19.8596 54.9208 20.3357 54.667C21.3435 54.1298 21.8193 52.968 21.4976 51.8296C21.4002 51.4846 21.2655 51.267 20.926 50.9058L20.4818 50.4333V47.7862V45.139L20.6639 44.9988C21.0299 44.7168 21.3777 44.208 21.4999 43.7754C21.7251 42.9781 21.5171 42.018 20.9947 41.4448C20.5074 40.91 19.471 40.6152 18.8273 40.8283ZM46.155 47.9374C44.4656 49.73 43.0833 51.2348 43.0833 51.2816C43.0833 51.3284 43.4207 51.7228 43.833 52.1579L44.5826 52.9491L44.845 52.6614C44.9893 52.5031 46.3386 51.0721 47.8435 49.4813C49.3484 47.8905 50.6409 46.5221 50.7158 46.4404C50.8458 46.2986 50.8177 46.2551 50.0972 45.485C49.6821 45.0412 49.3164 44.6782 49.2846 44.6782C49.2528 44.6782 47.8445 46.1448 46.155 47.9374Z" fill="white"/>
</svg>
