<svg width="20" height="22" viewBox="0 0 20 22" fill="none" xmlns="http://www.w3.org/2000/svg">
<path d="M19.375 9.28125H16.25V8.25C16.25 8.05991 16.1103 7.90625 15.9375 7.90625C15.4594 7.90625 15.0359 8.14894 14.7491 8.52225C14.6725 8.47069 14.5922 8.42566 14.5059 8.39403L13.865 8.15856C13.6094 8.06506 13.4375 7.80312 13.4375 7.50681V7.21875H16.875C17.2197 7.21875 17.5 6.91041 17.5 6.53125V1.03125C17.5 0.652094 17.2197 0.34375 16.875 0.34375H8.125C7.78031 0.34375 7.5 0.652094 7.5 1.03125V6.53125C7.5 6.91041 7.78031 7.21875 8.125 7.21875H11.5625V7.50681C11.5625 7.80312 11.3906 8.06506 11.135 8.15891L10.4941 8.39403C10.1141 8.53325 9.835 8.87116 9.7325 9.28125H5.9375V3.4375C5.9375 3.24741 5.79781 3.09375 5.625 3.09375H1.875C1.70219 3.09375 1.5625 3.24741 1.5625 3.4375V9.28125H0.625C0.452188 9.28125 0.3125 9.43491 0.3125 9.625V11.6875V21.3125C0.3125 21.5026 0.452188 21.6562 0.625 21.6562H1.875C2.04781 21.6562 2.1875 21.5026 2.1875 21.3125V18.9062H5.3125V21.3125C5.3125 21.5026 5.45219 21.6562 5.625 21.6562H6.875C7.04781 21.6562 7.1875 21.5026 7.1875 21.3125V12.0312H14.375V14.4375H10.3125C9.45094 14.4375 8.75 15.2085 8.75 16.1562V16.8438C8.75 17.0338 8.88969 17.1875 9.0625 17.1875H11.5625V17.4481C11.5625 18.2511 11.2906 19.0063 10.7997 19.5938H10.3125C9.79562 19.5938 9.375 20.0564 9.375 20.625C9.375 21.1936 9.79562 21.6562 10.3125 21.6562H14.6875C15.2044 21.6562 15.625 21.1936 15.625 20.625C15.625 20.0564 15.2044 19.5938 14.6875 19.5938H14.2003C13.7094 19.0063 13.4375 18.2511 13.4375 17.4481V17.1875H15.3125C15.8294 17.1875 16.25 16.7248 16.25 16.1562V14.7812V12.0312H17.8125V21.3125C17.8125 21.5026 17.9522 21.6562 18.125 21.6562H19.375C19.5478 21.6562 19.6875 21.5026 19.6875 21.3125V11.6875V9.625C19.6875 9.43491 19.5478 9.28125 19.375 9.28125ZM16.875 1.03125L16.8753 5.15625H8.125V1.03125H16.875ZM8.125 5.84375H16.8756V6.53125H8.125V5.84375ZM10.6919 9.04578L11.3328 8.811C11.8438 8.62366 12.1875 8.09944 12.1875 7.50681V7.21875H12.8125V7.50681C12.8125 8.09978 13.1562 8.62366 13.6672 8.811L14.3081 9.04613C14.3591 9.06503 14.4069 9.0915 14.4503 9.12519C14.4356 9.17744 14.4166 9.22728 14.4066 9.28159H10.4109C10.4778 9.174 10.5741 9.08909 10.6919 9.04578ZM5.3125 7.21875H2.1875V5.84375H5.3125V7.21875ZM5.3125 3.78125V5.15625H2.1875V3.78125H5.3125ZM2.1875 7.90625H5.3125V9.28125H2.1875V7.90625ZM1.5625 20.9688H0.9375V12.0312H1.5625V20.9688ZM5.3125 12.0312V14.7812H2.1875V12.0312H5.3125ZM2.1875 18.2188V15.4688H5.3125V18.2188H2.1875ZM6.5625 20.9688H5.9375V12.0312H6.5625V20.9688ZM6.875 11.3438H5.625H1.875H0.9375V9.96875H14.375V11.3438H6.875ZM15 9.625C15 9.17675 15.2612 8.7945 15.625 8.65253V14.4375H15V9.625ZM15 20.625C15 20.8148 14.86 20.9688 14.6875 20.9688H10.3125C10.14 20.9688 10 20.8148 10 20.625C10 20.4352 10.14 20.2812 10.3125 20.2812H14.6875C14.86 20.2812 15 20.4352 15 20.625ZM13.4028 19.5938H11.5972C11.9809 18.964 12.1875 18.2236 12.1875 17.4481V17.1875H12.8125V17.4481C12.8125 18.2236 13.0191 18.964 13.4028 19.5938ZM15.625 16.1562C15.625 16.346 15.485 16.5 15.3125 16.5H9.375V16.1562C9.375 15.5877 9.79562 15.125 10.3125 15.125H15.625V16.1562ZM16.25 9.96875H19.0625V11.3438H18.125H16.25V9.96875ZM19.0625 20.9688H18.4375V12.0312H19.0625V20.9688Z" fill="white"/>
</svg>
