<svg width="69" height="64" viewBox="0 0 69 64" fill="none" xmlns="http://www.w3.org/2000/svg">
<path fill-rule="evenodd" clip-rule="evenodd" d="M17.9138 0.0359323C17.9075 0.054995 17.7759 0.0803892 17.6214 0.0923676C17.4668 0.104312 17.3404 0.125497 17.3404 0.139392C17.3404 0.153286 17.2714 0.175053 17.187 0.18775C17.1027 0.200447 17.0337 0.223308 17.0337 0.238572C17.0337 0.253836 16.9724 0.276184 16.8974 0.288231C16.8224 0.300278 16.7611 0.32533 16.7611 0.343947C16.7611 0.362531 16.7162 0.377761 16.6613 0.377761C16.6064 0.377761 16.5385 0.400862 16.5104 0.429097C16.4823 0.457331 16.4198 0.480433 16.3716 0.480433C16.3165 0.480433 16.284 0.499461 16.284 0.531768C16.284 0.565992 16.2499 0.583104 16.1818 0.583104C16.1136 0.583104 16.0796 0.600216 16.0796 0.63444C16.0796 0.666371 16.0474 0.685776 15.9944 0.685776C15.9475 0.685776 15.9092 0.699944 15.9092 0.717296C15.9092 0.734613 15.8632 0.758947 15.8069 0.771336C15.7507 0.783725 15.7047 0.808058 15.7047 0.825376C15.7047 0.842727 15.6817 0.856896 15.6536 0.856896C15.6255 0.856896 15.6025 0.87832 15.6025 0.904535C15.6025 0.930716 15.5642 0.961826 15.5173 0.973634C15.4704 0.985441 15.4321 1.01022 15.4321 1.02867C15.4321 1.04715 15.4086 1.06224 15.3799 1.06224C15.3512 1.06224 15.3189 1.08534 15.3081 1.11357C15.2973 1.14181 15.2518 1.16491 15.207 1.16491C15.1572 1.16491 15.1254 1.18493 15.1254 1.21625C15.1254 1.24448 15.1024 1.26758 15.0743 1.26758C15.0462 1.26758 15.0232 1.29068 15.0232 1.31892C15.0232 1.34715 15.0066 1.37025 14.9864 1.37025C14.9385 1.37025 14.6484 1.6617 14.6484 1.70979C14.6484 1.73008 14.6323 1.74672 14.6126 1.74672C14.593 1.74672 14.5414 1.78522 14.498 1.83228C14.4546 1.87933 14.4016 1.91784 14.3803 1.91784C14.3591 1.91784 14.3417 1.93396 14.3417 1.9537C14.3417 1.97342 14.3033 2.02523 14.2565 2.06883C14.2096 2.11247 14.1713 2.16562 14.1713 2.18701C14.1713 2.20836 14.15 2.22585 14.1239 2.22585C14.0978 2.22585 14.0668 2.26435 14.0551 2.31141C14.0433 2.35847 14.0186 2.39697 14.0003 2.39697C13.9819 2.39697 13.9668 2.42055 13.9668 2.44937C13.9668 2.47822 13.9438 2.51066 13.9157 2.52148C13.8876 2.53233 13.8646 2.56265 13.8646 2.58886C13.8646 2.61508 13.8416 2.63654 13.8135 2.63654C13.7817 2.63654 13.7624 2.66885 13.7624 2.7221C13.7624 2.77535 13.7431 2.80766 13.7113 2.80766C13.6801 2.80766 13.6601 2.83959 13.6601 2.88956C13.6601 2.93459 13.6371 2.98032 13.609 2.99117C13.5809 3.00198 13.5579 3.03443 13.5579 3.06328C13.5579 3.09209 13.5438 3.11567 13.5265 3.11567C13.5093 3.11567 13.4851 3.16188 13.4727 3.21834C13.4604 3.27481 13.4362 3.32102 13.4189 3.32102C13.4016 3.32102 13.3875 3.36 13.3875 3.40764C13.3875 3.45531 13.3645 3.50316 13.3364 3.51397C13.3083 3.52482 13.2853 3.56945 13.2853 3.61315C13.2853 3.65682 13.2623 3.71569 13.2342 3.74392C13.2061 3.77216 13.1831 3.83359 13.1831 3.88041C13.1831 3.92726 13.1668 3.97103 13.1468 3.9777C13.1269 3.98438 13.1018 4.05498 13.0912 4.13459C13.0806 4.21416 13.0597 4.27929 13.0447 4.27929C13.0298 4.27929 13.0071 4.36399 12.9942 4.46752C12.9813 4.57104 12.9584 4.65575 12.9433 4.65575C12.9283 4.65575 12.905 4.75972 12.8916 4.88676C12.8783 5.0138 12.8523 5.12749 12.8339 5.13933C12.7881 5.16883 12.7895 6.95015 12.8354 6.97876C12.8541 6.9905 12.8805 7.08862 12.8939 7.19687C12.9073 7.30512 12.9299 7.39366 12.9441 7.39366C12.9583 7.39366 12.9776 7.47385 12.987 7.5719C12.9964 7.66992 13.0213 7.75589 13.0424 7.76297C13.0636 7.77005 13.0808 7.84275 13.0808 7.92454C13.0808 8.01109 13.1022 8.0947 13.132 8.12458C13.1601 8.15282 13.1831 8.21551 13.1831 8.26394C13.1831 8.31935 13.202 8.35193 13.2342 8.35193C13.2683 8.35193 13.2853 8.38615 13.2853 8.4546C13.2853 8.52305 13.3023 8.55727 13.3364 8.55727C13.3705 8.55727 13.3875 8.5915 13.3875 8.65995C13.3875 8.71641 13.4016 8.76262 13.4189 8.76262C13.4362 8.76262 13.4604 8.80882 13.4727 8.86529C13.4851 8.92176 13.5093 8.96796 13.5265 8.96796C13.5438 8.96796 13.5579 8.98997 13.5579 9.01687C13.5579 9.04373 13.5789 9.08682 13.6045 9.11256C13.6302 9.13833 13.6619 9.19333 13.675 9.2348C13.6881 9.27625 13.7131 9.3102 13.7306 9.3102C13.7481 9.3102 13.7624 9.341 13.7624 9.37865C13.7624 9.41667 13.7851 9.4471 13.8135 9.4471C13.8453 9.4471 13.8646 9.4794 13.8646 9.53266C13.8646 9.58591 13.8839 9.61821 13.9157 9.61821C13.9438 9.61821 13.9668 9.64132 13.9668 9.66955C13.9668 9.69779 13.9898 9.72089 14.0179 9.72089C14.0461 9.72089 14.0691 9.74399 14.0691 9.77222C14.0691 9.80046 14.0844 9.82356 14.1031 9.82356C14.1219 9.82356 14.1372 9.84546 14.1372 9.87226C14.1372 9.89906 14.1832 9.96716 14.2394 10.0236C14.2957 10.0801 14.3417 10.1429 14.3417 10.1632C14.3417 10.1834 14.3647 10.2 14.3928 10.2C14.4209 10.2 14.4439 10.2231 14.4439 10.2514C14.4439 10.2796 14.4669 10.3027 14.495 10.3027C14.5231 10.3027 14.5461 10.3258 14.5461 10.354C14.5461 10.3823 14.5691 10.4054 14.5972 10.4054C14.6254 10.4054 14.6484 10.4285 14.6484 10.4567C14.6484 10.4849 14.6649 10.508 14.6851 10.508C14.7052 10.508 14.7678 10.5542 14.824 10.6107C14.8802 10.6672 14.9424 10.7134 14.9623 10.7134C14.9821 10.7134 15.0339 10.7519 15.0773 10.7989C15.1207 10.846 15.1723 10.8845 15.1919 10.8845C15.2116 10.8845 15.2277 10.9076 15.2277 10.9358C15.2277 10.9678 15.2598 10.9872 15.3128 10.9872C15.3659 10.9872 15.398 11.0066 15.398 11.0385C15.398 11.0667 15.4194 11.0898 15.4455 11.0898C15.4716 11.0898 15.5018 11.1129 15.5126 11.1412C15.5234 11.1694 15.571 11.1925 15.6185 11.1925C15.6724 11.1925 15.7047 11.2117 15.7047 11.2439C15.7047 11.2721 15.7277 11.2952 15.7558 11.2952C15.7839 11.2952 15.8069 11.3094 15.8069 11.3267C15.8069 11.344 15.853 11.3684 15.9092 11.3807C15.9654 11.3931 16.0114 11.4175 16.0114 11.4348C16.0114 11.4521 16.0497 11.4663 16.0966 11.4663C16.1496 11.4663 16.1818 11.4857 16.1818 11.5176C16.1818 11.5519 16.2159 11.569 16.284 11.569C16.3522 11.569 16.3862 11.5861 16.3862 11.6203C16.3862 11.6574 16.4241 11.6716 16.5226 11.6716C16.621 11.6716 16.6589 11.6859 16.6589 11.723C16.6589 11.7575 16.6932 11.7743 16.7635 11.7743C16.8211 11.7743 16.8912 11.7974 16.9193 11.8257C16.9474 11.8539 17.0307 11.877 17.1043 11.877C17.1779 11.877 17.2382 11.8906 17.2382 11.9073C17.2382 11.9239 17.3225 11.9481 17.4256 11.9611C17.5287 11.974 17.613 11.9973 17.613 12.0127C17.613 12.0282 17.751 12.0518 17.9197 12.0652C18.0884 12.0786 18.2264 12.1034 18.2264 12.1202C18.2264 12.1371 18.5091 12.1508 18.8568 12.1508C19.2129 12.1508 19.4872 12.1372 19.4872 12.1196C19.4872 12.1025 19.6175 12.0776 19.7768 12.0642C19.9361 12.0509 20.0665 12.0282 20.0665 12.0138C20.0665 11.9993 20.1508 11.977 20.2539 11.964C20.357 11.9511 20.4413 11.9283 20.4413 11.9133C20.4413 11.8983 20.5062 11.8773 20.5854 11.8666C20.6647 11.8559 20.735 11.8308 20.7416 11.8108C20.7482 11.7907 20.8142 11.7743 20.8882 11.7743C20.9764 11.7743 21.0295 11.7566 21.0424 11.723C21.0543 11.6918 21.1059 11.6716 21.174 11.6716C21.242 11.6716 21.2936 11.6515 21.3056 11.6203C21.3163 11.5921 21.3623 11.569 21.4078 11.569C21.4532 11.569 21.4992 11.5459 21.51 11.5176C21.5208 11.4894 21.5668 11.4663 21.6122 11.4663C21.6577 11.4663 21.7037 11.4432 21.7145 11.415C21.7252 11.3867 21.7652 11.3636 21.8033 11.3636C21.8414 11.3636 21.8725 11.3482 21.8725 11.3294C21.8725 11.3106 21.896 11.2952 21.9247 11.2952C21.9534 11.2952 21.9852 11.2735 21.9953 11.2469C22.0055 11.2204 22.051 11.1893 22.0965 11.1778C22.142 11.1664 22.1792 11.1419 22.1792 11.1234C22.1792 11.1049 22.2022 11.0898 22.2303 11.0898C22.2584 11.0898 22.2814 11.0667 22.2814 11.0385C22.2814 11.0043 22.3155 10.9872 22.3837 10.9872C22.4518 10.9872 22.4859 10.9701 22.4859 10.9358C22.4859 10.9076 22.5089 10.8845 22.537 10.8845C22.5651 10.8845 22.5881 10.8614 22.5881 10.8332C22.5881 10.8049 22.6053 10.7818 22.6262 10.7818C22.6471 10.7818 22.7238 10.7202 22.7965 10.6449C22.8693 10.5696 22.9436 10.508 22.9616 10.508C23.0128 10.508 23.2697 10.2346 23.2697 10.1802C23.2697 10.1534 23.2927 10.1316 23.3208 10.1316C23.3489 10.1316 23.3719 10.1155 23.3719 10.0957C23.3719 10.076 23.4102 10.0242 23.4571 9.98058C23.5039 9.93694 23.5423 9.88379 23.5423 9.8624C23.5423 9.84105 23.5653 9.82356 23.5934 9.82356C23.6215 9.82356 23.6445 9.80046 23.6445 9.77222C23.6445 9.74399 23.6595 9.72089 23.6779 9.72089C23.6963 9.72089 23.7207 9.68351 23.7321 9.63779C23.7435 9.5921 23.7745 9.54638 23.8009 9.53621C23.8273 9.52602 23.8489 9.49412 23.8489 9.46527C23.8489 9.43645 23.864 9.41287 23.8824 9.41287C23.9007 9.41287 23.9254 9.37437 23.9372 9.32731C23.9489 9.28025 23.9706 9.24175 23.9853 9.24175C23.9999 9.24175 24.0216 9.20325 24.0333 9.15619C24.0451 9.10913 24.0698 9.07063 24.0881 9.07063C24.1065 9.07063 24.1216 9.03983 24.1216 9.00218C24.1216 8.96416 24.1443 8.93374 24.1727 8.93374C24.2045 8.93374 24.2238 8.90143 24.2238 8.84818C24.2238 8.79492 24.2431 8.76262 24.2749 8.76262C24.3071 8.76262 24.326 8.73004 24.326 8.67463C24.326 8.6262 24.349 8.5635 24.3771 8.53527C24.4052 8.50703 24.4282 8.43882 24.4282 8.38372C24.4282 8.32859 24.4429 8.28348 24.4608 8.28348C24.4787 8.28348 24.5034 8.22958 24.5157 8.1637C24.528 8.09782 24.5497 8.04391 24.564 8.04391C24.5782 8.04391 24.5997 7.98231 24.6117 7.90702C24.6237 7.83173 24.6467 7.77012 24.6628 7.77012C24.6789 7.77012 24.7026 7.66232 24.7155 7.53056C24.7285 7.39879 24.7517 7.29099 24.7672 7.29099C24.7827 7.29099 24.8016 7.18041 24.8092 7.04523C24.8177 6.89471 24.839 6.79413 24.8642 6.78571C24.924 6.76569 24.9231 5.35186 24.8632 5.33184C24.8359 5.3227 24.8167 5.21983 24.8085 5.0381C24.8015 4.88426 24.7829 4.75842 24.7671 4.75842C24.7513 4.75842 24.7279 4.66602 24.7152 4.55308C24.7025 4.44014 24.6806 4.34773 24.6667 4.34773C24.6528 4.34773 24.6316 4.28613 24.6196 4.21084C24.6076 4.13555 24.5846 4.07394 24.5685 4.07394C24.5524 4.07394 24.5294 4.01234 24.5174 3.93705C24.5054 3.86175 24.4804 3.80015 24.4619 3.80015C24.4434 3.80015 24.4282 3.75395 24.4282 3.69748C24.4282 3.62903 24.4112 3.59481 24.3771 3.59481C24.3431 3.59481 24.326 3.56058 24.326 3.49214C24.326 3.43567 24.311 3.38946 24.2926 3.38946C24.2742 3.38946 24.2486 3.34727 24.2357 3.29569C24.2228 3.24412 24.1919 3.18142 24.1669 3.15633C24.142 3.13128 24.1216 3.08877 24.1216 3.06191C24.1216 3.03501 24.1079 3.013 24.0912 3.013C24.0745 3.013 24.0504 2.97142 24.0377 2.92063C24.025 2.86981 23.9792 2.7952 23.9358 2.75485C23.8924 2.71447 23.8464 2.64824 23.8336 2.60765C23.8208 2.56706 23.796 2.53387 23.7785 2.53387C23.761 2.53387 23.7467 2.51077 23.7467 2.48253C23.7467 2.4543 23.7237 2.4312 23.6956 2.4312C23.6672 2.4312 23.6445 2.40077 23.6445 2.36271C23.6445 2.32503 23.5832 2.23444 23.5082 2.16137C23.4332 2.08831 23.3719 2.0113 23.3719 1.99029C23.3719 1.96928 23.3489 1.95206 23.3208 1.95206C23.2927 1.95206 23.2697 1.92896 23.2697 1.90072C23.2697 1.87249 23.2466 1.84939 23.2185 1.84939C23.1904 1.84939 23.1674 1.82629 23.1674 1.79805C23.1674 1.76982 23.1444 1.74672 23.1163 1.74672C23.0882 1.74672 23.0652 1.72362 23.0652 1.69538C23.0652 1.66715 23.0422 1.64405 23.0141 1.64405C22.986 1.64405 22.963 1.62094 22.963 1.59271C22.963 1.56447 22.9464 1.54137 22.9262 1.54137C22.906 1.54137 22.8204 1.47207 22.7361 1.38737C22.6517 1.30266 22.561 1.23336 22.5343 1.23336C22.5077 1.23336 22.4859 1.21796 22.4859 1.19913C22.4859 1.18031 22.4629 1.16491 22.4348 1.16491C22.4067 1.16491 22.3837 1.14181 22.3837 1.11357C22.3837 1.08164 22.3515 1.06224 22.2985 1.06224C22.2455 1.06224 22.2133 1.04283 22.2133 1.0109C22.2133 0.982668 22.1919 0.959567 22.1658 0.959567C22.1397 0.959567 22.1095 0.936466 22.0987 0.908231C22.088 0.879997 22.0472 0.856896 22.0083 0.856896C21.9693 0.856896 21.9019 0.818394 21.8585 0.771336C21.8128 0.72178 21.7417 0.685776 21.6897 0.685776C21.6326 0.685776 21.5999 0.66709 21.5999 0.63444C21.5999 0.602509 21.5677 0.583104 21.5147 0.583104C21.4617 0.583104 21.4295 0.563699 21.4295 0.531768C21.4295 0.494944 21.3921 0.480433 21.2969 0.480433C21.2104 0.480433 21.1574 0.462568 21.1446 0.429097C21.1338 0.400862 21.0851 0.377761 21.0363 0.377761C20.9875 0.377761 20.9246 0.35466 20.8965 0.326425C20.8684 0.29819 20.8017 0.275089 20.7484 0.275089C20.6951 0.275089 20.646 0.258696 20.6394 0.238641C20.6327 0.21862 20.5624 0.193499 20.4832 0.182822C20.4039 0.172144 20.3391 0.15226 20.3391 0.138638C20.3391 0.124983 20.2205 0.104859 20.0757 0.0938392C19.9308 0.0828533 19.8069 0.0575277 19.8002 0.0375752C19.784 -0.0114334 17.9301 -0.0130421 17.9138 0.0359323ZM19.6113 2.48253C19.6414 2.51272 19.7246 2.53387 19.8133 2.53387C19.8963 2.53387 19.9643 2.5491 19.9643 2.56768C19.9643 2.5863 20.0256 2.61135 20.1006 2.6234C20.1755 2.63544 20.2369 2.65748 20.2369 2.67241C20.2369 2.68733 20.2829 2.70971 20.3391 2.7221C20.3953 2.73449 20.4413 2.75882 20.4413 2.77614C20.4413 2.79349 20.4709 2.80766 20.5071 2.80766C20.5432 2.80766 20.5937 2.82874 20.6194 2.85448C20.645 2.88025 20.6998 2.91208 20.7411 2.92522C20.7824 2.93839 20.8162 2.96351 20.8162 2.98107C20.8162 2.99863 20.8375 3.013 20.8636 3.013C20.8897 3.013 20.9199 3.0361 20.9307 3.06434C20.9415 3.09257 20.9738 3.11567 21.0025 3.11567C21.0312 3.11567 21.0547 3.13077 21.0547 3.14925C21.0547 3.16769 21.093 3.19247 21.1399 3.20428C21.1867 3.21609 21.2251 3.2472 21.2251 3.27338C21.2251 3.29959 21.2416 3.32102 21.2618 3.32102C21.3094 3.32102 21.4977 3.51007 21.4977 3.55795C21.4977 3.57821 21.519 3.59481 21.5451 3.59481C21.5712 3.59481 21.6022 3.63331 21.6139 3.68037C21.6257 3.72743 21.6503 3.76593 21.6687 3.76593C21.6871 3.76593 21.7021 3.78903 21.7021 3.81726C21.7021 3.8455 21.7251 3.8686 21.7533 3.8686C21.7814 3.8686 21.8044 3.89006 21.8044 3.91627C21.8044 3.94249 21.8274 3.97281 21.8555 3.98366C21.8836 3.99447 21.9066 4.04232 21.9066 4.08999C21.9066 4.14417 21.9258 4.17661 21.9577 4.17661C21.9889 4.17661 22.0088 4.20855 22.0088 4.25851C22.0088 4.30355 22.0318 4.34927 22.0599 4.36012C22.0881 4.37094 22.1111 4.40338 22.1111 4.43223C22.1111 4.46105 22.1262 4.48463 22.1447 4.48463C22.1633 4.48463 22.1882 4.54623 22.2002 4.62152C22.2122 4.69682 22.2334 4.75842 22.2472 4.75842C22.2611 4.75842 22.281 4.82225 22.2914 4.90024C22.3018 4.97824 22.3249 5.05141 22.3426 5.06281C22.3604 5.0742 22.3819 5.18276 22.3904 5.30405C22.3993 5.42935 22.4233 5.53031 22.446 5.5379C22.4742 5.54735 22.4859 5.70588 22.4859 6.07888C22.4859 6.52506 22.478 6.60651 22.4348 6.60651C22.3951 6.60651 22.3837 6.65182 22.3837 6.80901C22.3837 6.92876 22.368 7.01675 22.3453 7.02435C22.3241 7.03144 22.2992 7.11741 22.2898 7.21542C22.2805 7.31347 22.2606 7.39366 22.2457 7.39366C22.2309 7.39366 22.2086 7.43986 22.1962 7.49633C22.1839 7.5528 22.1614 7.599 22.1461 7.599C22.1309 7.599 22.1088 7.63751 22.0971 7.68456C22.0853 7.73162 22.0619 7.77012 22.045 7.77012C22.0281 7.77012 22.0041 7.81633 21.9918 7.8728C21.9795 7.92926 21.9552 7.97547 21.938 7.97547C21.9207 7.97547 21.9066 7.99857 21.9066 8.0268C21.9066 8.05504 21.8836 8.07814 21.8555 8.07814C21.8237 8.07814 21.8044 8.11045 21.8044 8.1637C21.8044 8.21695 21.7851 8.24926 21.7533 8.24926C21.7251 8.24926 21.7021 8.26538 21.7021 8.28513C21.7021 8.30484 21.6638 8.35665 21.617 8.40025C21.5701 8.44389 21.5318 8.49704 21.5318 8.51843C21.5318 8.53978 21.5088 8.55727 21.4806 8.55727C21.4525 8.55727 21.4295 8.58037 21.4295 8.60861C21.4295 8.63684 21.4065 8.65995 21.3784 8.65995C21.3503 8.65995 21.3273 8.68305 21.3273 8.71128C21.3273 8.73952 21.3099 8.76262 21.2886 8.76262C21.2673 8.76262 21.2144 8.80112 21.171 8.84818C21.1275 8.89524 21.076 8.93374 21.0563 8.93374C21.0367 8.93374 21.0206 8.95684 21.0206 8.98507C21.0206 9.017 20.9884 9.03641 20.9354 9.03641C20.8824 9.03641 20.8502 9.05581 20.8502 9.08774C20.8502 9.11625 20.8199 9.13908 20.7821 9.13908C20.7446 9.13908 20.7139 9.15417 20.7139 9.17265C20.7139 9.1911 20.6756 9.21588 20.6287 9.22769C20.5819 9.23949 20.5435 9.2706 20.5435 9.29678C20.5435 9.32512 20.5081 9.34442 20.4559 9.34442C20.4077 9.34442 20.3453 9.36752 20.3172 9.39576C20.2891 9.42399 20.2212 9.4471 20.1663 9.4471C20.1114 9.4471 20.0665 9.4625 20.0665 9.48132C20.0665 9.50014 20.0216 9.51554 19.9667 9.51554C19.9118 9.51554 19.8465 9.53608 19.8215 9.56116C19.7965 9.58622 19.6766 9.61719 19.555 9.62992C19.4333 9.64268 19.3287 9.66835 19.3225 9.68701C19.3056 9.73728 18.3379 9.73194 18.3212 9.68149C18.314 9.65983 18.2207 9.63481 18.1139 9.62591C18.0071 9.61702 17.9197 9.59641 17.9197 9.58016C17.9197 9.5639 17.8583 9.54073 17.7834 9.52868C17.7084 9.51664 17.6471 9.49539 17.6471 9.48146C17.6471 9.46753 17.5822 9.44737 17.503 9.43669C17.4237 9.42601 17.3534 9.40089 17.3468 9.38087C17.3401 9.36082 17.2976 9.34442 17.2524 9.34442C17.2019 9.34442 17.17 9.32457 17.17 9.29309C17.17 9.25886 17.1359 9.24175 17.0678 9.24175C16.9996 9.24175 16.9655 9.22464 16.9655 9.19042C16.9655 9.16218 16.9425 9.13908 16.9144 9.13908C16.8863 9.13908 16.8633 9.12399 16.8633 9.10551C16.8633 9.08706 16.825 9.06228 16.7781 9.05048C16.7313 9.03867 16.6929 9.01478 16.6929 8.99739C16.6929 8.98004 16.6661 8.95561 16.6333 8.94315C16.5568 8.91402 16.4885 8.84619 16.4885 8.79927C16.4885 8.77911 16.4655 8.76262 16.4374 8.76262C16.4092 8.76262 16.3862 8.74119 16.3862 8.71498C16.3862 8.6888 16.3481 8.65775 16.3016 8.64602C16.2493 8.63284 16.2088 8.59211 16.1957 8.53965C16.184 8.49286 16.1531 8.4546 16.127 8.4546C16.1009 8.4546 16.0796 8.4315 16.0796 8.40327C16.0796 8.37503 16.0566 8.35193 16.0284 8.35193C16.0003 8.35193 15.9773 8.33444 15.9773 8.31309C15.9773 8.2917 15.939 8.23855 15.8921 8.19491C15.8453 8.15131 15.8069 8.08409 15.8069 8.04556C15.8069 8.00606 15.7846 7.97547 15.7558 7.97547C15.724 7.97547 15.7047 7.94316 15.7047 7.88991C15.7047 7.84285 15.6889 7.80435 15.6696 7.80435C15.6502 7.80435 15.6243 7.77738 15.6119 7.74446C15.5994 7.71153 15.5692 7.6642 15.5448 7.63935C15.5203 7.61447 15.5003 7.549 15.5003 7.4939C15.5003 7.43877 15.4851 7.39366 15.4666 7.39366C15.4481 7.39366 15.4231 7.33206 15.4111 7.25677C15.3991 7.18147 15.3779 7.11987 15.364 7.11987C15.3501 7.11987 15.3306 7.04721 15.3206 6.95844C15.3107 6.86962 15.2857 6.79135 15.2651 6.78444C15.2119 6.76664 15.2128 5.3509 15.2661 5.33307C15.2872 5.32599 15.3121 5.24002 15.3215 5.142C15.3309 5.04395 15.3518 4.96376 15.3679 4.96376C15.384 4.96376 15.407 4.90216 15.419 4.82687C15.431 4.75158 15.4542 4.68997 15.4705 4.68997C15.4869 4.68997 15.5003 4.64377 15.5003 4.5873C15.5003 4.51885 15.5173 4.48463 15.5514 4.48463C15.5855 4.48463 15.6025 4.45041 15.6025 4.38196C15.6025 4.31351 15.6195 4.27929 15.6536 4.27929C15.6854 4.27929 15.7047 4.24698 15.7047 4.19373C15.7047 4.14047 15.724 4.10817 15.7558 4.10817C15.7839 4.10817 15.8069 4.08387 15.8069 4.0542C15.8069 4.02452 15.853 3.95402 15.9092 3.89755C15.9654 3.84108 16.0114 3.77992 16.0114 3.76165C16.0114 3.74337 16.0497 3.69276 16.0966 3.64916C16.1435 3.60552 16.1818 3.55237 16.1818 3.53098C16.1818 3.50962 16.2048 3.49214 16.2329 3.49214C16.261 3.49214 16.284 3.46903 16.284 3.4408C16.284 3.41257 16.3014 3.38946 16.3227 3.38946C16.344 3.38946 16.3953 3.35278 16.4366 3.30791C16.478 3.26304 16.545 3.21581 16.5854 3.20294C16.6258 3.19004 16.6589 3.16516 16.6589 3.1476C16.6589 3.13005 16.6819 3.11567 16.71 3.11567C16.7381 3.11567 16.7611 3.09257 16.7611 3.06434C16.7611 3.0361 16.7825 3.013 16.8086 3.013C16.8347 3.013 16.8648 2.9899 16.8756 2.96167C16.8864 2.93343 16.9341 2.91033 16.9815 2.91033C17.0355 2.91033 17.0678 2.8911 17.0678 2.85899C17.0678 2.82706 17.0999 2.80766 17.153 2.80766C17.1998 2.80766 17.2382 2.79349 17.2382 2.77614C17.2382 2.75882 17.2842 2.73449 17.3404 2.7221C17.3966 2.70971 17.4426 2.68538 17.4426 2.66806C17.4426 2.65071 17.4875 2.63654 17.5424 2.63654C17.5973 2.63654 17.6629 2.61573 17.6883 2.59027C17.7136 2.56484 17.8176 2.53599 17.9193 2.52617C18.021 2.51634 18.11 2.49098 18.117 2.46977C18.126 2.4428 18.3448 2.4312 18.845 2.4312C19.4353 2.4312 19.5691 2.44016 19.6113 2.48253ZM32.1039 7.58942C32.043 7.59709 31.9932 7.61776 31.9932 7.63538C31.9932 7.65304 31.9636 7.66745 31.9274 7.66745C31.8913 7.66745 31.8387 7.69055 31.8106 7.71879C31.7825 7.74702 31.7431 7.77012 31.723 7.77012C31.7029 7.77012 31.6865 7.79322 31.6865 7.82146C31.6865 7.84969 31.6713 7.8728 31.6528 7.8728C31.6078 7.8728 31.482 7.98259 31.482 8.02194C31.482 8.03912 31.4437 8.08885 31.3968 8.13249C31.35 8.17609 31.3117 8.24378 31.3117 8.28293C31.3117 8.32205 31.2886 8.36295 31.2605 8.37376C31.2153 8.39122 31.2094 9.29925 31.2094 16.2613C31.2094 21.031 31.2218 24.1291 31.2408 24.1291C31.258 24.1291 31.2823 24.1754 31.2946 24.2318C31.3069 24.2883 31.3302 24.3345 31.3461 24.3345C31.3621 24.3345 31.3852 24.366 31.3974 24.4045C31.4289 24.5044 31.6898 24.7651 31.7896 24.7964C31.836 24.811 31.8838 24.8383 31.8958 24.8571C31.9079 24.876 31.9961 24.899 32.0918 24.9082C32.1875 24.9175 32.2658 24.9384 32.2658 24.9549C32.2658 24.9718 34.6419 24.9847 37.7322 24.9847C40.7388 24.9847 43.2229 24.9941 43.2526 25.0055C43.3004 25.0239 43.3065 25.1661 43.3065 26.2547C43.3065 27.4375 43.304 27.4856 43.2383 27.5515C43.1706 27.6196 43.1248 27.62 35.8986 27.62C29.2992 27.62 28.625 27.615 28.6062 27.5658C28.5949 27.5361 28.5855 26.313 28.5855 24.8479C28.5855 22.9978 28.5745 22.1804 28.5493 22.172C28.5275 22.1647 28.5052 21.9763 28.4932 21.6985C28.4822 21.4448 28.4606 21.2289 28.4451 21.2186C28.4296 21.2084 28.4067 21.0891 28.3941 20.9534C28.3816 20.8177 28.3599 20.7068 28.3461 20.7068C28.3322 20.7068 28.3102 20.6221 28.2974 20.5185C28.2845 20.415 28.2597 20.3303 28.2423 20.3303C28.225 20.3303 28.2107 20.2682 28.2107 20.1923C28.2107 20.1013 28.1933 20.0477 28.1596 20.0347C28.1237 20.0208 28.1085 19.9646 28.1085 19.8464C28.1085 19.7282 28.0932 19.672 28.0574 19.6582C28.024 19.6453 28.0063 19.5921 28.0063 19.5053C28.0063 19.4096 27.9918 19.372 27.9551 19.372C27.9211 19.372 27.904 19.3378 27.904 19.2694C27.904 19.2129 27.8889 19.1667 27.8704 19.1667C27.8518 19.1667 27.8269 19.1051 27.8149 19.0298C27.8029 18.9545 27.7809 18.8929 27.7661 18.8929C27.7512 18.8929 27.7289 18.8467 27.7166 18.7902C27.7043 18.7338 27.6813 18.6875 27.6655 18.6875C27.6497 18.6875 27.6267 18.6413 27.6144 18.5849C27.602 18.5284 27.5795 18.4822 27.5642 18.4822C27.549 18.4822 27.5269 18.4437 27.5152 18.3966C27.5034 18.3496 27.4788 18.3111 27.4604 18.3111C27.442 18.3111 27.427 18.2649 27.427 18.2084C27.427 18.14 27.4099 18.1057 27.3758 18.1057C27.3475 18.1057 27.3247 18.0753 27.3247 18.0373C27.3247 17.9996 27.3097 17.9688 27.2913 17.9688C27.2729 17.9688 27.2483 17.9303 27.2365 17.8833C27.2247 17.8362 27.2031 17.7977 27.1884 17.7977C27.1737 17.7977 27.1521 17.7592 27.1403 17.7122C27.1286 17.6651 27.1039 17.6266 27.0855 17.6266C27.0671 17.6266 27.0521 17.603 27.0521 17.5742C27.0521 17.5454 27.0291 17.5129 27.001 17.5021C26.9729 17.4913 26.9499 17.4455 26.9499 17.4005C26.9499 17.3505 26.93 17.3186 26.8988 17.3186C26.8707 17.3186 26.8477 17.2955 26.8477 17.2673C26.8477 17.239 26.8247 17.2159 26.7965 17.2159C26.7667 17.2159 26.7448 17.1839 26.744 17.1389C26.7432 17.0966 26.6972 17.0241 26.6418 16.978C26.5863 16.9318 26.541 16.874 26.541 16.8496C26.541 16.8252 26.5267 16.8052 26.5092 16.8052C26.4917 16.8052 26.4666 16.7706 26.4533 16.7282C26.4401 16.6859 26.3931 16.6173 26.3488 16.5759C26.3046 16.5344 26.2684 16.4844 26.2684 16.4646C26.2684 16.4449 26.2454 16.4288 26.2172 16.4288C26.1891 16.4288 26.1661 16.4057 26.1661 16.3774C26.1661 16.3492 26.1431 16.3261 26.115 16.3261C26.0869 16.3261 26.0639 16.3096 26.0639 16.2894C26.0639 16.242 25.9772 16.155 25.93 16.155C25.9099 16.155 25.8935 16.1319 25.8935 16.1036C25.8935 16.0754 25.8705 16.0523 25.8424 16.0523C25.8143 16.0523 25.7913 16.0292 25.7913 16.001C25.7913 15.9727 25.7683 15.9496 25.7402 15.9496C25.7121 15.9496 25.6891 15.9265 25.6891 15.8983C25.6891 15.8701 25.6661 15.847 25.638 15.847C25.6098 15.847 25.5868 15.8239 25.5868 15.7956C25.5868 15.7674 25.5638 15.7443 25.5357 15.7443C25.5076 15.7443 25.4846 15.7212 25.4846 15.693C25.4846 15.6647 25.4681 15.6416 25.4479 15.6416C25.4277 15.6416 25.3664 15.5966 25.3116 15.5416C25.2568 15.4866 25.212 15.425 25.212 15.4047C25.212 15.3844 25.1906 15.3678 25.1645 15.3678C25.1384 15.3678 25.1082 15.3447 25.0974 15.3165C25.0867 15.2883 25.0544 15.2652 25.0256 15.2652C24.9969 15.2652 24.9735 15.2501 24.9735 15.2316C24.9735 15.2131 24.9351 15.1884 24.8883 15.1766C24.8414 15.1647 24.8031 15.1336 24.8031 15.1075C24.8031 15.0812 24.7857 15.0598 24.7644 15.0598C24.7431 15.0598 24.6918 15.0231 24.6505 14.9783C24.6091 14.9334 24.5421 14.8862 24.5017 14.8733C24.4613 14.8604 24.4282 14.8355 24.4282 14.818C24.4282 14.8004 24.4052 14.786 24.3771 14.786C24.349 14.786 24.326 14.7629 24.326 14.7347C24.326 14.7034 24.2942 14.6834 24.2445 14.6834C24.1996 14.6834 24.1541 14.6603 24.1433 14.632C24.1325 14.6038 24.1002 14.5807 24.0715 14.5807C24.0428 14.5807 24.0193 14.5656 24.0193 14.5471C24.0193 14.5287 23.981 14.5039 23.9341 14.4921C23.8873 14.4803 23.8489 14.4569 23.8489 14.4401C23.8489 14.4233 23.8255 14.4096 23.7968 14.4096C23.7681 14.4096 23.7357 14.3865 23.725 14.3582C23.7142 14.33 23.6758 14.3069 23.6398 14.3069C23.6037 14.3069 23.5654 14.2838 23.5546 14.2556C23.5438 14.2273 23.4983 14.2042 23.4534 14.2042C23.4037 14.2042 23.3719 14.1842 23.3719 14.1529C23.3719 14.1187 23.3378 14.1015 23.2697 14.1015C23.2015 14.1015 23.1674 14.0844 23.1674 14.0502C23.1674 14.0179 23.135 13.9989 23.0798 13.9989C23.0316 13.9989 22.9692 13.9758 22.9411 13.9475C22.9129 13.9193 22.8604 13.8962 22.8242 13.8962C22.7881 13.8962 22.7585 13.881 22.7585 13.8624C22.7585 13.8438 22.6972 13.8187 22.6222 13.8067C22.5472 13.7946 22.4859 13.7726 22.4859 13.7577C22.4859 13.7427 22.4399 13.7204 22.3837 13.708C22.3274 13.6956 22.2814 13.6712 22.2814 13.6539C22.2814 13.6366 22.2201 13.6224 22.1451 13.6224C22.0467 13.6224 22.0088 13.6081 22.0088 13.5711C22.0088 13.5331 21.9691 13.5197 21.8555 13.5197C21.7419 13.5197 21.7021 13.5064 21.7021 13.4684C21.7021 13.429 21.6586 13.4171 21.5147 13.4171C21.3709 13.4171 21.3273 13.4052 21.3273 13.3657C21.3273 13.3277 21.2875 13.3144 21.174 13.3144C21.0896 13.3144 21.0206 13.2999 21.0206 13.2823C21.0206 13.2646 20.9133 13.2395 20.7821 13.2265C20.6509 13.2135 20.5435 13.1918 20.5435 13.1784C20.5435 13.1649 20.3481 13.1439 20.1092 13.1317C19.8677 13.1195 19.6697 13.0943 19.6633 13.0751C19.6485 13.0303 18.0322 13.0278 18.0162 13.0725C18.01 13.0901 17.817 13.1153 17.5874 13.1287C17.3578 13.142 17.17 13.164 17.17 13.1774C17.17 13.1908 17.0676 13.2114 16.9424 13.2232C16.8173 13.2349 16.7061 13.2581 16.6954 13.2747C16.6847 13.2913 16.5922 13.3128 16.4899 13.3224C16.3876 13.3321 16.2982 13.3573 16.2911 13.3785C16.2841 13.3997 16.2183 13.4171 16.1449 13.4171C16.049 13.4171 16.0114 13.4315 16.0114 13.4684C16.0114 13.5056 15.9733 13.5197 15.8727 13.5197C15.7948 13.5197 15.7115 13.5423 15.6828 13.5711C15.6547 13.5993 15.5868 13.6224 15.5319 13.6224C15.477 13.6224 15.4321 13.6371 15.4321 13.6551C15.4321 13.6731 15.3784 13.6979 15.3128 13.7102C15.2472 13.7226 15.1936 13.7444 15.1936 13.7587C15.1936 13.7731 15.1322 13.7946 15.0573 13.8067C14.9823 13.8187 14.921 13.8438 14.921 13.8624C14.921 13.881 14.8822 13.8962 14.8347 13.8962C14.7873 13.8962 14.7396 13.9193 14.7288 13.9475C14.718 13.9758 14.6725 13.9989 14.6277 13.9989C14.5779 13.9989 14.5461 14.0189 14.5461 14.0502C14.5461 14.0844 14.5121 14.1015 14.4439 14.1015C14.3757 14.1015 14.3417 14.1187 14.3417 14.1529C14.3417 14.1871 14.3076 14.2042 14.2394 14.2042C14.1832 14.2042 14.1372 14.2193 14.1372 14.2378C14.1372 14.2562 14.0989 14.281 14.052 14.2928C14.0052 14.3046 13.9668 14.328 13.9668 14.3448C13.9668 14.3616 13.9438 14.3753 13.9157 14.3753C13.8876 14.3753 13.8646 14.3972 13.8646 14.424C13.8646 14.4507 13.8186 14.4827 13.7624 14.4951C13.7061 14.5075 13.6601 14.5302 13.6601 14.5455C13.6601 14.5608 13.6218 14.5829 13.575 14.5947C13.5281 14.6066 13.4898 14.6313 13.4898 14.6498C13.4898 14.6683 13.4668 14.6834 13.4386 14.6834C13.4105 14.6834 13.3875 14.7065 13.3875 14.7347C13.3875 14.7632 13.3572 14.786 13.3194 14.786C13.2819 14.786 13.2512 14.8011 13.2512 14.8196C13.2512 14.838 13.2129 14.8628 13.166 14.8746C13.1192 14.8864 13.0808 14.9175 13.0808 14.9437C13.0808 14.9699 13.0634 14.9914 13.0422 14.9914C13.0209 14.9914 12.968 15.0299 12.9245 15.0769C12.8811 15.124 12.8142 15.1625 12.7758 15.1625C12.7365 15.1625 12.706 15.1849 12.706 15.2138C12.706 15.2421 12.683 15.2652 12.6549 15.2652C12.6268 15.2652 12.6038 15.2883 12.6038 15.3165C12.6038 15.3447 12.5808 15.3678 12.5527 15.3678C12.5246 15.3678 12.5016 15.3909 12.5016 15.4192C12.5016 15.4474 12.485 15.4705 12.4649 15.4705C12.4447 15.4705 12.3821 15.5167 12.3259 15.5732C12.2697 15.6296 12.2019 15.6758 12.1752 15.6758C12.1485 15.6758 12.1267 15.6989 12.1267 15.7272C12.1267 15.7554 12.1037 15.7785 12.0756 15.7785C12.0475 15.7785 12.0245 15.795 12.0245 15.8152C12.0245 15.8626 11.9378 15.9496 11.8906 15.9496C11.8705 15.9496 11.8541 15.9727 11.8541 16.001C11.8541 16.0292 11.8311 16.0523 11.803 16.0523C11.7749 16.0523 11.7519 16.0742 11.7519 16.101C11.7519 16.1278 11.7059 16.1959 11.6496 16.2524C11.5934 16.3089 11.5474 16.3717 11.5474 16.3919C11.5474 16.4122 11.5244 16.4288 11.4963 16.4288C11.4682 16.4288 11.4452 16.4519 11.4452 16.4801C11.4452 16.5083 11.4222 16.5314 11.3941 16.5314C11.366 16.5314 11.343 16.5545 11.343 16.5828C11.343 16.611 11.32 16.6341 11.2918 16.6341C11.2637 16.6341 11.2407 16.6572 11.2407 16.6855C11.2407 16.7137 11.2264 16.7368 11.2089 16.7368C11.1915 16.7368 11.1667 16.77 11.1538 16.8106C11.141 16.8512 11.0951 16.9174 11.0517 16.9578C11.0083 16.9981 10.9624 17.0727 10.9498 17.1236C10.937 17.1743 10.913 17.2159 10.8963 17.2159C10.8796 17.2159 10.8659 17.239 10.8659 17.2673C10.8659 17.2955 10.8429 17.3186 10.8148 17.3186C10.7867 17.3186 10.7637 17.3417 10.7637 17.3699C10.7637 17.3982 10.7407 17.4213 10.7125 17.4213C10.6814 17.4213 10.6614 17.4532 10.6614 17.5032C10.6614 17.5482 10.6384 17.5939 10.6103 17.6048C10.5822 17.6156 10.5592 17.6634 10.5592 17.7111C10.5592 17.7653 10.5401 17.7977 10.5081 17.7977C10.48 17.7977 10.457 17.8208 10.457 17.8491C10.457 17.8773 10.4429 17.9004 10.4256 17.9004C10.4083 17.9004 10.3841 17.9466 10.3718 18.0031C10.3594 18.0595 10.3369 18.1057 10.3217 18.1057C10.3064 18.1057 10.2843 18.1442 10.2726 18.1913C10.2608 18.2384 10.2362 18.2769 10.2178 18.2769C10.1994 18.2769 10.1844 18.3231 10.1844 18.3795C10.1844 18.448 10.1673 18.4822 10.1333 18.4822C10.1021 18.4822 10.0821 18.5141 10.0821 18.5641C10.0821 18.6091 10.0591 18.6549 10.031 18.6657C10.0029 18.6765 9.97991 18.7244 9.97991 18.772C9.97991 18.8197 9.9658 18.8587 9.94852 18.8587C9.93128 18.8587 9.90705 18.9049 9.89472 18.9613C9.88238 19.0178 9.85832 19.064 9.84129 19.064C9.82428 19.064 9.80053 19.1256 9.78854 19.2009C9.77654 19.2762 9.75538 19.3378 9.74151 19.3378C9.72764 19.3378 9.70757 19.4029 9.69694 19.4825C9.68631 19.5621 9.66129 19.6327 9.64136 19.6394C9.62139 19.6461 9.60507 19.7123 9.60507 19.7866C9.60507 19.8752 9.58745 19.9285 9.55395 19.9414C9.52063 19.9543 9.50284 20.0075 9.50284 20.0944C9.50284 20.19 9.48839 20.2276 9.45173 20.2276C9.41257 20.2276 9.40061 20.2711 9.40061 20.413C9.40061 20.5192 9.38436 20.6038 9.36251 20.6111C9.34142 20.6182 9.31651 20.7343 9.3068 20.8707C9.29712 21.0064 9.27794 21.1174 9.2641 21.1174C9.2503 21.1174 9.22815 21.2715 9.21486 21.4597C9.20157 21.6479 9.17659 21.8019 9.15935 21.8019C9.14051 21.8019 9.128 22.9403 9.128 24.652C9.128 27.4652 9.12712 27.5029 9.05947 27.5611C8.99541 27.6161 8.7136 27.62 4.74883 27.62C1.00078 27.62 0.506705 27.626 0.506705 27.6713C0.506705 27.7055 0.472629 27.7227 0.404476 27.7227C0.336324 27.7227 0.302248 27.7398 0.302248 27.774C0.302248 27.8022 0.279246 27.8253 0.251133 27.8253C0.22302 27.8253 0.200019 27.8484 0.200019 27.8767C0.200019 27.9049 0.184037 27.928 0.164511 27.928C0.144986 27.928 0.0988804 27.9562 0.062078 27.9906C-0.00413216 28.0526 -0.00477961 28.1397 0.00387576 36.0443C0.0119859 43.4725 0.0166203 44.0393 0.0698133 44.0927C0.101266 44.1243 0.143418 44.1501 0.163523 44.1501C0.183594 44.1501 0.200019 44.1716 0.200019 44.1978C0.200019 44.224 0.238355 44.2551 0.285209 44.2669C0.332064 44.2787 0.3704 44.3035 0.3704 44.3219C0.3704 44.3404 0.399978 44.3555 0.436133 44.3555C0.472254 44.3555 0.524834 44.3786 0.552947 44.4068C0.597212 44.4513 0.869379 44.4581 2.58294 44.4581H4.56178V53.8013C4.56178 62.0835 4.56757 63.1444 4.6129 63.1444C4.64697 63.1444 4.66401 63.1786 4.66401 63.2471C4.66401 63.3155 4.68105 63.3497 4.71512 63.3497C4.74692 63.3497 4.76624 63.3821 4.76624 63.4353C4.76624 63.4886 4.78556 63.5209 4.81735 63.5209C4.84547 63.5209 4.86847 63.5363 4.86847 63.5551C4.86847 63.6145 5.00194 63.7262 5.07292 63.7262C5.11078 63.7262 5.14108 63.749 5.14108 63.7775C5.14108 63.8058 5.16282 63.8289 5.18936 63.8289C5.21591 63.8289 5.24307 63.8453 5.24971 63.8653C5.25636 63.8853 5.32666 63.9105 5.40592 63.9211C5.48515 63.9318 5.54999 63.9539 5.54999 63.9703C5.54999 63.9871 18.2593 64 34.7534 64C54.1996 64 63.9567 63.9886 63.9567 63.9658C63.9567 63.947 64.0016 63.9316 64.0565 63.9316C64.1114 63.9316 64.1767 63.911 64.2017 63.886C64.2266 63.8609 64.2891 63.8298 64.3404 63.8169C64.3918 63.8039 64.4338 63.7782 64.4338 63.7598C64.4338 63.7413 64.4568 63.7262 64.4849 63.7262C64.513 63.7262 64.536 63.7031 64.536 63.6749C64.536 63.6466 64.559 63.6235 64.5871 63.6235C64.6152 63.6235 64.6382 63.606 64.6382 63.5847C64.6382 63.5633 64.6766 63.5102 64.7234 63.4665C64.7703 63.4229 64.8086 63.3552 64.8086 63.3161C64.8086 63.277 64.8316 63.2361 64.8597 63.2252C64.905 63.2078 64.9108 62.1381 64.9108 53.8832C64.9108 45.6195 64.9166 44.5608 64.962 44.5608C64.9901 44.5608 65.0131 44.5377 65.0131 44.5095C65.0131 44.4644 65.2573 44.4581 67.0065 44.4581H69V36.0391V27.62H59.8009H50.6019L50.582 27.5088C50.5711 27.4476 50.5665 26.8585 50.572 26.1997L50.5818 25.0019L55.7699 24.9932C58.6805 24.9883 60.958 24.9715 60.958 24.9548C60.958 24.9384 61.0378 24.9173 61.1355 24.9079C61.2331 24.8985 61.3187 24.8734 61.3257 24.8522C61.3328 24.831 61.376 24.8136 61.4219 24.8136C61.4678 24.8136 61.5142 24.7905 61.525 24.7623C61.5358 24.7341 61.566 24.711 61.5921 24.711C61.6182 24.711 61.6395 24.6935 61.6395 24.6721C61.6395 24.6507 61.6779 24.5976 61.7247 24.5539C61.7716 24.5103 61.8099 24.4585 61.8099 24.4388C61.8099 24.4191 61.8329 24.4029 61.861 24.4029C61.8932 24.4029 61.9121 24.3704 61.9121 24.315C61.9121 24.2665 61.9351 24.2038 61.9633 24.1756C62.0084 24.1302 62.0144 23.2024 62.0144 16.2381C62.0144 9.25099 62.0085 8.35193 61.9633 8.35193C61.9292 8.35193 61.9121 8.31771 61.9121 8.24926C61.9121 8.19279 61.8971 8.14659 61.8787 8.14659C61.8603 8.14659 61.8357 8.10808 61.8239 8.06103C61.8122 8.01397 61.7812 7.97547 61.7551 7.97547C61.729 7.97547 61.7077 7.95237 61.7077 7.92413C61.7077 7.8959 61.6847 7.8728 61.6566 7.8728C61.6285 7.8728 61.6055 7.8577 61.6055 7.83922C61.6055 7.82078 61.5671 7.796 61.5203 7.78419C61.4734 7.77238 61.4351 7.74127 61.4351 7.71509C61.4351 7.68528 61.3979 7.66745 61.3357 7.66745C61.281 7.66745 61.2299 7.64822 61.2221 7.62467C61.2108 7.59055 58.276 7.58124 46.7113 7.57871C38.7382 7.57693 32.1649 7.58176 32.1039 7.58942ZM46.7141 10.0778C46.7141 10.1047 46.6911 10.1498 46.663 10.178C46.6349 10.2062 46.6119 10.2458 46.6119 10.266C46.6119 10.2862 46.5889 10.3027 46.5608 10.3027C46.5327 10.3027 46.5097 10.3258 46.5097 10.354C46.5097 10.3823 46.4867 10.4054 46.4586 10.4054C46.4304 10.4054 46.4074 10.4285 46.4074 10.4567C46.4074 10.4849 46.3931 10.508 46.3756 10.508C46.3582 10.508 46.3334 10.5412 46.3205 10.5818C46.3077 10.6224 46.2607 10.6896 46.216 10.7312C46.1714 10.7728 46.1348 10.8243 46.1348 10.8457C46.1348 10.867 46.1118 10.8845 46.0837 10.8845C46.0556 10.8845 46.0326 10.9076 46.0326 10.9358C46.0326 10.9641 46.0096 10.9872 45.9815 10.9872C45.9534 10.9872 45.9304 11.0103 45.9304 11.0385C45.9304 11.0667 45.9161 11.0898 45.8986 11.0898C45.8811 11.0898 45.8566 11.1221 45.8441 11.1616C45.8317 11.201 45.7616 11.2916 45.6885 11.3629C45.6154 11.4342 45.5555 11.5097 45.5555 11.5307C45.5555 11.5518 45.5342 11.569 45.5081 11.569C45.482 11.569 45.4511 11.6075 45.4393 11.6545C45.4275 11.7016 45.4029 11.7401 45.3845 11.7401C45.3661 11.7401 45.3504 11.7594 45.3496 11.7829C45.3488 11.8064 45.3028 11.8634 45.2474 11.9096C45.192 11.9558 45.1466 12.0069 45.1466 12.0233C45.1466 12.0633 45.0573 12.1508 45.0164 12.1508C44.9984 12.1508 44.974 12.1893 44.9622 12.2363C44.9505 12.2834 44.9258 12.3219 44.9074 12.3219C44.889 12.3219 44.874 12.3419 44.874 12.3663C44.874 12.3907 44.8286 12.4485 44.7732 12.4946C44.7178 12.5408 44.6718 12.5979 44.671 12.6214C44.6702 12.6449 44.6465 12.6641 44.6184 12.6641C44.5866 12.6641 44.5673 12.6964 44.5673 12.7497C44.5673 12.803 44.548 12.8353 44.5162 12.8353C44.4881 12.8353 44.4651 12.8584 44.4651 12.8866C44.4651 12.9148 44.4421 12.9379 44.414 12.9379C44.3859 12.9379 44.3629 12.9554 44.3629 12.9768C44.3629 12.9982 44.3245 13.0513 44.2777 13.095C44.2308 13.1386 44.1925 13.1904 44.1925 13.2101C44.1925 13.2298 44.1695 13.2459 44.1414 13.2459C44.1096 13.2459 44.0902 13.2783 44.0902 13.3315C44.0902 13.3848 44.0709 13.4171 44.0391 13.4171C44.011 13.4171 43.988 13.4402 43.988 13.4684C43.988 13.4966 43.965 13.5197 43.9369 13.5197C43.9088 13.5197 43.8858 13.5372 43.8858 13.5586C43.8858 13.58 43.8475 13.6331 43.8006 13.6768C43.7537 13.7204 43.7154 13.771 43.7154 13.7893C43.7154 13.8075 43.6694 13.8687 43.6132 13.9252C43.557 13.9816 43.511 14.0444 43.511 14.0647C43.511 14.0849 43.488 14.1015 43.4598 14.1015C43.4317 14.1015 43.4087 14.1246 43.4087 14.1529C43.4087 14.1811 43.3857 14.2042 43.3576 14.2042C43.3295 14.2042 43.3065 14.2273 43.3065 14.2556C43.3065 14.2838 43.2922 14.3069 43.2747 14.3069C43.2572 14.3069 43.2324 14.3401 43.2196 14.3807C43.2068 14.4213 43.1598 14.4885 43.1151 14.5301C43.0704 14.5716 43.0339 14.6231 43.0339 14.6445C43.0339 14.6659 43.0109 14.6834 42.9828 14.6834C42.9547 14.6834 42.9317 14.7065 42.9317 14.7347C42.9317 14.7629 42.9087 14.786 42.8805 14.786C42.8487 14.786 42.8294 14.8183 42.8294 14.8716C42.8294 14.9248 42.8101 14.9571 42.7783 14.9571C42.7502 14.9571 42.7272 14.9733 42.7272 14.993C42.7272 15.0127 42.6889 15.0645 42.642 15.1081C42.5952 15.1518 42.5568 15.2049 42.5568 15.2263C42.5568 15.2477 42.5338 15.2652 42.5057 15.2652C42.4776 15.2652 42.4546 15.2883 42.4546 15.3165C42.4546 15.3447 42.4333 15.3678 42.4072 15.3678C42.3811 15.3678 42.3501 15.4063 42.3384 15.4534C42.3266 15.5004 42.3019 15.539 42.2836 15.539C42.2652 15.539 42.2501 15.5621 42.2501 15.5903C42.2501 15.6185 42.2271 15.6416 42.199 15.6416C42.1709 15.6416 42.1479 15.6577 42.1479 15.6775C42.1479 15.6972 42.1096 15.749 42.0627 15.7926C42.0159 15.8363 41.9775 15.8894 41.9775 15.9108C41.9775 15.9321 41.9562 15.9496 41.9301 15.9496C41.904 15.9496 41.8726 15.9901 41.8602 16.0396C41.8363 16.1354 41.6666 16.3261 41.6053 16.3261C41.5851 16.3261 41.5686 16.3569 41.5686 16.3945C41.5686 16.4322 41.5536 16.463 41.5352 16.463C41.5168 16.463 41.4921 16.5015 41.4804 16.5486C41.4686 16.5956 41.4376 16.6341 41.4116 16.6341C41.3855 16.6341 41.3641 16.6572 41.3641 16.6855C41.3641 16.7137 41.3411 16.7368 41.313 16.7368C41.2849 16.7368 41.2619 16.7543 41.2619 16.7756C41.2619 16.797 41.2254 16.8485 41.1807 16.8901C41.136 16.9317 41.089 16.9989 41.0762 17.0395C41.0634 17.0801 41.0386 17.1132 41.0211 17.1132C41.0036 17.1132 40.9893 17.1364 40.9893 17.1646C40.9893 17.1928 40.9663 17.2159 40.9382 17.2159C40.9101 17.2159 40.8871 17.239 40.8871 17.2673C40.8871 17.2955 40.8641 17.3186 40.836 17.3186C40.8079 17.3186 40.7849 17.3352 40.7849 17.3555C40.7849 17.3757 40.7388 17.4385 40.6826 17.495C40.6264 17.5515 40.5804 17.6196 40.5804 17.6464C40.5804 17.6732 40.5651 17.6951 40.5463 17.6951C40.5276 17.6951 40.5122 17.7182 40.5122 17.7464C40.5122 17.7746 40.4892 17.7977 40.4611 17.7977C40.4278 17.7977 40.41 17.8312 40.41 17.8939C40.41 17.9467 40.3875 18.0199 40.36 18.0564C40.2876 18.1525 40.2867 18.7406 40.3589 18.7684C40.3888 18.7799 40.41 18.8312 40.41 18.8918C40.41 18.9489 40.425 18.9956 40.4434 18.9956C40.4618 18.9956 40.4865 19.0341 40.4982 19.0811C40.51 19.1282 40.541 19.1667 40.567 19.1667C40.5931 19.1667 40.6145 19.1898 40.6145 19.218C40.6145 19.2463 40.6319 19.2694 40.6531 19.2694C40.6744 19.2694 40.7274 19.3079 40.7708 19.3549C40.8142 19.402 40.8812 19.4405 40.9195 19.4405C40.9588 19.4405 40.9893 19.4629 40.9893 19.4918C40.9893 19.5258 41.0231 19.5431 41.0891 19.5431C41.144 19.5431 41.2119 19.5662 41.24 19.5945C41.2752 19.6298 41.3617 19.6458 41.5175 19.6458C41.6733 19.6458 41.7598 19.6298 41.795 19.5945C41.8231 19.5662 41.8894 19.5431 41.9422 19.5431C41.9963 19.5431 42.047 19.5207 42.058 19.4918C42.0688 19.4636 42.1011 19.4405 42.1298 19.4405C42.1585 19.4405 42.182 19.4261 42.182 19.4085C42.182 19.391 42.2158 19.3659 42.257 19.3527C42.3454 19.3245 42.4205 19.2555 42.4205 19.2023C42.4205 19.1815 42.4429 19.1559 42.4703 19.1453C42.4977 19.1348 42.5304 19.0936 42.543 19.0539C42.5699 18.9686 42.6394 18.8929 42.6907 18.8929C42.7108 18.8929 42.7272 18.8693 42.7272 18.8405C42.7272 18.8116 42.7502 18.7792 42.7783 18.7684C42.8064 18.7575 42.8294 18.7272 42.8294 18.701C42.8294 18.6748 42.8524 18.6533 42.8805 18.6533C42.9123 18.6533 42.9317 18.621 42.9317 18.5678C42.9317 18.5145 42.951 18.4822 42.9828 18.4822C43.0109 18.4822 43.0339 18.4591 43.0339 18.4309C43.0339 18.4026 43.0569 18.3795 43.085 18.3795C43.1131 18.3795 43.1361 18.362 43.1361 18.3407C43.1361 18.3193 43.1745 18.2661 43.2213 18.2225C43.2682 18.1789 43.3065 18.1271 43.3065 18.1074C43.3065 18.0876 43.3295 18.0715 43.3576 18.0715C43.3894 18.0715 43.4087 18.0392 43.4087 17.986C43.4087 17.9327 43.428 17.9004 43.4598 17.9004C43.488 17.9004 43.511 17.8773 43.511 17.8491C43.511 17.8208 43.534 17.7977 43.5621 17.7977C43.5902 17.7977 43.6132 17.7746 43.6132 17.7464C43.6132 17.7182 43.6362 17.6951 43.6643 17.6951C43.6924 17.6951 43.7154 17.672 43.7154 17.6437C43.7154 17.6155 43.7307 17.5924 43.7495 17.5924C43.7682 17.5924 43.7836 17.5693 43.7836 17.541C43.7836 17.5128 43.8066 17.4897 43.8347 17.4897C43.8665 17.4897 43.8858 17.4574 43.8858 17.4042C43.8858 17.3509 43.9051 17.3186 43.9369 17.3186C43.965 17.3186 43.988 17.2955 43.988 17.2673C43.988 17.239 44.011 17.2159 44.0391 17.2159C44.0672 17.2159 44.0902 17.1928 44.0902 17.1646C44.0902 17.1364 44.1133 17.1132 44.1414 17.1132C44.1695 17.1132 44.1925 17.0901 44.1925 17.0619C44.1925 17.0337 44.2068 17.0106 44.2243 17.0106C44.2418 17.0106 44.2665 16.9774 44.2794 16.9368C44.2922 16.8962 44.3392 16.829 44.3839 16.7874C44.4286 16.7459 44.4651 16.6943 44.4651 16.673C44.4651 16.6516 44.4881 16.6341 44.5162 16.6341C44.5443 16.6341 44.5673 16.611 44.5673 16.5828C44.5673 16.5545 44.5903 16.5314 44.6184 16.5314C44.6502 16.5314 44.6695 16.4991 44.6695 16.4459C44.6695 16.3926 44.6889 16.3603 44.7207 16.3603C44.7488 16.3603 44.7718 16.3372 44.7718 16.309C44.7718 16.2808 44.7948 16.2577 44.8229 16.2577C44.851 16.2577 44.874 16.2346 44.874 16.2063C44.874 16.1781 44.8893 16.155 44.9081 16.155C44.9268 16.155 44.9422 16.1319 44.9422 16.1036C44.9422 16.0754 44.9652 16.0523 44.9933 16.0523C45.0214 16.0523 45.0444 16.0292 45.0444 16.001C45.0444 15.9727 45.0657 15.9496 45.0918 15.9496C45.1179 15.9496 45.1489 15.9111 45.1606 15.8641C45.1724 15.817 45.197 15.7785 45.2154 15.7785C45.2338 15.7785 45.2488 15.7631 45.2488 15.7443C45.2488 15.7254 45.308 15.6523 45.3803 15.5817C45.4526 15.5111 45.5226 15.4187 45.5359 15.3764C45.5492 15.3341 45.5749 15.2994 45.593 15.2994C45.611 15.2994 45.636 15.2724 45.6484 15.2395C45.6774 15.1626 45.7449 15.094 45.7916 15.094C45.8117 15.094 45.8281 15.0705 45.8281 15.0416C45.8281 15.0128 45.8511 14.9803 45.8793 14.9695C45.9074 14.9587 45.9304 14.9284 45.9304 14.9021C45.9304 14.8759 45.9454 14.8545 45.9638 14.8545C45.9822 14.8545 46.0068 14.816 46.0186 14.7689C46.0303 14.7219 46.0613 14.6834 46.0874 14.6834C46.1135 14.6834 46.1348 14.6603 46.1348 14.632C46.1348 14.6038 46.1578 14.5807 46.1859 14.5807C46.2141 14.5807 46.2371 14.5632 46.2371 14.5418C46.2371 14.5204 46.2736 14.4689 46.3183 14.4274C46.3629 14.3858 46.41 14.3186 46.4228 14.278C46.4356 14.2374 46.4604 14.2042 46.4779 14.2042C46.4954 14.2042 46.5097 14.1811 46.5097 14.1529C46.5097 14.1246 46.5327 14.1015 46.5608 14.1015C46.5889 14.1015 46.6119 14.0784 46.6119 14.0502C46.6119 14.022 46.6349 13.9989 46.663 13.9989C46.6911 13.9989 46.7141 13.9814 46.7141 13.96C46.7141 13.9386 46.7507 13.8871 46.7953 13.8456C46.84 13.804 46.887 13.7368 46.8998 13.6962C46.9127 13.6556 46.9375 13.6224 46.9549 13.6224C46.9724 13.6224 46.9867 13.5993 46.9867 13.5711C46.9867 13.5428 47.0097 13.5197 47.0378 13.5197C47.066 13.5197 47.089 13.4966 47.089 13.4684C47.089 13.4402 47.112 13.4171 47.1401 13.4171C47.1682 13.4171 47.1912 13.394 47.1912 13.3657C47.1912 13.3375 47.2142 13.3144 47.2423 13.3144C47.2741 13.3144 47.2934 13.2821 47.2934 13.2288C47.2934 13.1756 47.3127 13.1433 47.3445 13.1433C47.3726 13.1433 47.3956 13.1272 47.3956 13.1074C47.3956 13.0877 47.434 13.0359 47.4808 12.9923C47.5277 12.9486 47.566 12.8955 47.566 12.8741C47.566 12.8528 47.589 12.8353 47.6171 12.8353C47.6453 12.8353 47.6683 12.8122 47.6683 12.7839C47.6683 12.7557 47.6913 12.7326 47.7194 12.7326C47.7512 12.7326 47.7705 12.7003 47.7705 12.647C47.7705 12.5938 47.7898 12.5615 47.8216 12.5615C47.8497 12.5615 47.8727 12.5384 47.8727 12.5101C47.8727 12.4819 47.8957 12.4588 47.9238 12.4588C47.9519 12.4588 47.9749 12.4357 47.9749 12.4075C47.9749 12.3792 47.9903 12.3561 48.009 12.3561C48.0278 12.3561 48.0431 12.333 48.0431 12.3048C48.0431 12.2766 48.0661 12.2535 48.0942 12.2535C48.1223 12.2535 48.1453 12.2304 48.1453 12.2021C48.1453 12.1739 48.1667 12.1508 48.1928 12.1508C48.2188 12.1508 48.2498 12.1123 48.2616 12.0652C48.2733 12.0182 48.298 11.9797 48.3164 11.9797C48.3348 11.9797 48.3498 11.9566 48.3498 11.9283C48.3498 11.9001 48.3728 11.877 48.4009 11.877C48.429 11.877 48.452 11.8609 48.452 11.8411C48.452 11.8214 48.4903 11.7696 48.5372 11.726C48.5841 11.6824 48.6224 11.6304 48.6224 11.6105C48.6224 11.5905 48.6684 11.528 48.7246 11.4716C48.7808 11.4151 48.8269 11.3523 48.8269 11.332C48.8269 11.3118 48.8499 11.2952 48.878 11.2952C48.9061 11.2952 48.9291 11.2716 48.9291 11.2428C48.9291 11.2139 48.9521 11.1815 48.9802 11.1707C49.0083 11.1598 49.0313 11.1141 49.0313 11.0691C49.0313 11.024 49.0465 10.9872 49.065 10.9872C49.1168 10.9872 49.2358 10.8746 49.2358 10.8256C49.2358 10.8015 49.2588 10.7818 49.2869 10.7818C49.315 10.7818 49.338 10.7643 49.338 10.743C49.338 10.7216 49.3745 10.6701 49.4192 10.6285C49.4639 10.587 49.5109 10.5197 49.5237 10.4792C49.5366 10.4386 49.5613 10.4054 49.5788 10.4054C49.5963 10.4054 49.6106 10.3823 49.6106 10.354C49.6106 10.3258 49.6336 10.3027 49.6617 10.3027C49.6898 10.3027 49.7128 10.2796 49.7128 10.2514C49.7128 10.2231 49.7358 10.2 49.7639 10.2C49.7921 10.2 49.8151 10.1835 49.8151 10.1634C49.8151 10.1432 49.837 10.1047 49.8638 10.0778C49.9365 10.0047 52.3367 10.0047 52.3367 10.0778C52.3367 10.1047 52.3137 10.1498 52.2856 10.178C52.2575 10.2062 52.2345 10.2458 52.2345 10.266C52.2345 10.2862 52.2115 10.3027 52.1834 10.3027C52.1553 10.3027 52.1322 10.3258 52.1322 10.354C52.1322 10.3823 52.1092 10.4054 52.0811 10.4054C52.053 10.4054 52.03 10.4285 52.03 10.4567C52.03 10.4849 52.007 10.508 51.9789 10.508C51.9508 10.508 51.9278 10.5311 51.9278 10.5594C51.9278 10.5876 51.9135 10.6107 51.896 10.6107C51.8785 10.6107 51.8537 10.6439 51.8409 10.6845C51.8281 10.7251 51.7811 10.7923 51.7364 10.8339C51.6917 10.8754 51.6552 10.9269 51.6552 10.9483C51.6552 10.9697 51.6322 10.9872 51.6041 10.9872C51.576 10.9872 51.553 11.0103 51.553 11.0385C51.553 11.0667 51.53 11.0898 51.5018 11.0898C51.4737 11.0898 51.4507 11.1129 51.4507 11.1412C51.4507 11.1694 51.4364 11.1925 51.4189 11.1925C51.4014 11.1925 51.3767 11.2257 51.3638 11.2663C51.351 11.3069 51.304 11.3741 51.2593 11.4157C51.2146 11.4572 51.1781 11.5087 51.1781 11.5301C51.1781 11.5515 51.1551 11.569 51.127 11.569C51.0989 11.569 51.0759 11.5921 51.0759 11.6203C51.0759 11.6485 51.0546 11.6716 51.0285 11.6716C51.0024 11.6716 50.9714 11.7102 50.9596 11.7572C50.9479 11.8043 50.9232 11.8428 50.9049 11.8428C50.8865 11.8428 50.8714 11.8659 50.8714 11.8941C50.8714 11.9223 50.8484 11.9454 50.8203 11.9454C50.7922 11.9454 50.7692 11.9616 50.7692 11.9813C50.7692 12.001 50.7309 12.0528 50.684 12.0964C50.6372 12.1401 50.5988 12.1921 50.5988 12.212C50.5988 12.2319 50.5528 12.2944 50.4966 12.3509C50.4404 12.4073 50.3944 12.4701 50.3944 12.4904C50.3944 12.5106 50.3714 12.5272 50.3432 12.5272C50.3151 12.5272 50.2921 12.5508 50.2921 12.5796C50.2921 12.6085 50.2691 12.6409 50.241 12.6518C50.2129 12.6626 50.1899 12.6859 50.1899 12.7035C50.1899 12.7387 50.1366 12.8099 50.0451 12.8966C50.0123 12.9277 49.9854 12.9728 49.9854 12.9969C49.9854 13.0209 49.9624 13.0406 49.9343 13.0406C49.9062 13.0406 49.8832 13.0581 49.8832 13.0794C49.8832 13.1008 49.8467 13.1523 49.802 13.1939C49.7573 13.2355 49.7103 13.3027 49.6975 13.3433C49.6847 13.3839 49.6599 13.4171 49.6424 13.4171C49.6249 13.4171 49.6106 13.4402 49.6106 13.4684C49.6106 13.4966 49.5876 13.5197 49.5595 13.5197C49.5314 13.5197 49.5084 13.5428 49.5084 13.5711C49.5084 13.5993 49.4854 13.6224 49.4573 13.6224C49.4291 13.6224 49.4061 13.6399 49.4061 13.6613C49.4061 13.6826 49.3696 13.7342 49.3249 13.7757C49.2803 13.8173 49.2332 13.8845 49.2204 13.9251C49.2076 13.9657 49.1828 13.9989 49.1653 13.9989C49.1478 13.9989 49.1335 14.022 49.1335 14.0502C49.1335 14.0784 49.1105 14.1015 49.0824 14.1015C49.0483 14.1015 49.0313 14.1358 49.0313 14.2042C49.0313 14.2727 49.0143 14.3069 48.9802 14.3069C48.9374 14.3069 48.9291 14.3789 48.9291 14.7494C48.9291 15.097 48.94 15.2028 48.9802 15.2432C49.0083 15.2714 49.0313 15.3341 49.0313 15.3825C49.0313 15.4379 49.0503 15.4705 49.0824 15.4705C49.1105 15.4705 49.1335 15.4936 49.1335 15.5218C49.1335 15.5501 49.1501 15.5732 49.1702 15.5732C49.1904 15.5732 49.2529 15.6194 49.3092 15.6758C49.3654 15.7323 49.4332 15.7785 49.4599 15.7785C49.4866 15.7785 49.5084 15.7927 49.5084 15.81C49.5084 15.8274 49.5544 15.8517 49.6106 15.8641C49.6668 15.8765 49.7128 15.9008 49.7128 15.9181C49.7128 15.9355 49.8887 15.9496 50.1047 15.9496C50.3382 15.9496 50.4966 15.936 50.4966 15.9161C50.4966 15.8976 50.5349 15.8728 50.5818 15.861C50.6286 15.8492 50.667 15.827 50.667 15.8117C50.667 15.7965 50.713 15.7738 50.7692 15.7614C50.8254 15.749 50.8714 15.717 50.8714 15.6903C50.8714 15.6635 50.8944 15.6416 50.9225 15.6416C50.9507 15.6416 50.9737 15.625 50.9737 15.6048C50.9737 15.5845 51.0197 15.5217 51.0759 15.4652C51.1321 15.4088 51.1781 15.3407 51.1781 15.3139C51.1781 15.2871 51.2011 15.2652 51.2292 15.2652C51.2573 15.2652 51.2803 15.2477 51.2803 15.2263C51.2803 15.2049 51.3187 15.1518 51.3655 15.1081C51.4124 15.0645 51.4507 15.0192 51.4507 15.0075C51.4507 14.9957 51.4967 14.9399 51.553 14.8834C51.6092 14.827 51.6552 14.7588 51.6552 14.7321C51.6552 14.7053 51.6782 14.6834 51.7063 14.6834C51.7344 14.6834 51.7574 14.6659 51.7574 14.6445C51.7574 14.6231 51.7957 14.57 51.8426 14.5263C51.8895 14.4827 51.9278 14.4309 51.9278 14.4112C51.9278 14.3915 51.9508 14.3753 51.9789 14.3753C52.0107 14.3753 52.03 14.343 52.03 14.2898C52.03 14.2365 52.0493 14.2042 52.0811 14.2042C52.1092 14.2042 52.1322 14.1811 52.1322 14.1529C52.1322 14.1246 52.1553 14.1015 52.1834 14.1015C52.2115 14.1015 52.2345 14.0784 52.2345 14.0502C52.2345 14.022 52.2575 13.9989 52.2856 13.9989C52.3137 13.9989 52.3367 13.9758 52.3367 13.9475C52.3367 13.9193 52.3517 13.8962 52.3701 13.8962C52.3885 13.8962 52.4132 13.8577 52.4249 13.8106C52.4367 13.7636 52.46 13.7251 52.4767 13.7251C52.4934 13.7251 52.5071 13.702 52.5071 13.6737C52.5071 13.6455 52.5301 13.6224 52.5582 13.6224C52.5863 13.6224 52.6093 13.5993 52.6093 13.5711C52.6093 13.5428 52.6323 13.5197 52.6604 13.5197C52.6885 13.5197 52.7115 13.4966 52.7115 13.4684C52.7115 13.4402 52.7345 13.4171 52.7627 13.4171C52.7908 13.4171 52.8138 13.394 52.8138 13.3657C52.8138 13.3375 52.8288 13.3144 52.8472 13.3144C52.8656 13.3144 52.8902 13.2759 52.902 13.2288C52.9138 13.1818 52.9447 13.1433 52.9708 13.1433C52.9969 13.1433 53.0182 13.1202 53.0182 13.0919C53.0182 13.0637 53.0336 13.0406 53.0523 13.0406C53.071 13.0406 53.0864 13.0175 53.0864 12.9893C53.0864 12.961 53.1094 12.9379 53.1375 12.9379C53.1656 12.9379 53.1886 12.9148 53.1886 12.8866C53.1886 12.8584 53.2116 12.8353 53.2397 12.8353C53.2678 12.8353 53.2908 12.8122 53.2908 12.7839C53.2908 12.7557 53.3138 12.7326 53.342 12.7326C53.3737 12.7326 53.3931 12.7003 53.3931 12.647C53.3931 12.5938 53.4124 12.5615 53.4442 12.5615C53.4723 12.5615 53.4953 12.5384 53.4953 12.5101C53.4953 12.4819 53.5106 12.4588 53.5294 12.4588C53.5481 12.4588 53.5635 12.4357 53.5635 12.4075C53.5635 12.3792 53.5865 12.3561 53.6146 12.3561C53.6427 12.3561 53.6657 12.333 53.6657 12.3048C53.6657 12.2766 53.687 12.2535 53.7131 12.2535C53.7392 12.2535 53.7702 12.215 53.7819 12.1679C53.7937 12.1208 53.8183 12.0823 53.8367 12.0823C53.8551 12.0823 53.8701 12.0592 53.8701 12.031C53.8701 12.0028 53.8931 11.9797 53.9213 11.9797C53.9494 11.9797 53.9724 11.9635 53.9724 11.9438C53.9724 11.9241 54.0086 11.874 54.0528 11.8326C54.0971 11.7911 54.1437 11.724 54.1563 11.6834C54.169 11.6428 54.2018 11.6009 54.2292 11.5903C54.2566 11.5798 54.2791 11.5534 54.2791 11.5318C54.2791 11.5102 54.3404 11.4327 54.4154 11.3597C54.4903 11.2866 54.5517 11.2114 54.5517 11.1925C54.5517 11.1737 54.5667 11.1583 54.5851 11.1583C54.6035 11.1583 54.6281 11.1198 54.6399 11.0727C54.6516 11.0257 54.6826 10.9872 54.7087 10.9872C54.7348 10.9872 54.7561 10.9641 54.7561 10.9358C54.7561 10.9076 54.7791 10.8845 54.8072 10.8845C54.8353 10.8845 54.8583 10.867 54.8583 10.8457C54.8583 10.8243 54.8967 10.7711 54.9435 10.7275C54.9904 10.6839 55.0287 10.6321 55.0287 10.6123C55.0287 10.5926 55.0517 10.5765 55.0798 10.5765C55.1116 10.5765 55.131 10.5442 55.131 10.4909C55.131 10.4377 55.1503 10.4054 55.1821 10.4054C55.2102 10.4054 55.2332 10.3823 55.2332 10.354C55.2332 10.3258 55.2562 10.3027 55.2843 10.3027C55.3124 10.3027 55.3354 10.2796 55.3354 10.2514C55.3354 10.2231 55.3584 10.2 55.3865 10.2C55.4146 10.2 55.4376 10.1835 55.4376 10.1634C55.4376 10.0302 55.4575 10.0289 57.565 10.0289H59.595V16.2919V22.5548H46.6119H33.6288V16.2919V10.0289H40.1715C45.819 10.0289 46.7141 10.0356 46.7141 10.0778ZM19.5951 15.5046C19.6013 15.5233 19.7713 15.5487 19.9728 15.5611C20.1743 15.5734 20.3391 15.5949 20.3391 15.6087C20.3391 15.6225 20.4234 15.6443 20.5265 15.6573C20.6296 15.6702 20.7139 15.693 20.7139 15.708C20.7139 15.723 20.7775 15.7438 20.8551 15.7543C20.9328 15.7648 21.0057 15.7875 21.017 15.8049C21.0284 15.8222 21.0989 15.8461 21.1737 15.858C21.2485 15.8699 21.315 15.8953 21.3213 15.9146C21.3277 15.9339 21.393 15.9496 21.4664 15.9496C21.5624 15.9496 21.5999 15.9641 21.5999 16.001C21.5999 16.0352 21.634 16.0523 21.7021 16.0523C21.7703 16.0523 21.8044 16.0694 21.8044 16.1036C21.8044 16.136 21.8368 16.155 21.892 16.155C21.9402 16.155 22.0026 16.1781 22.0307 16.2063C22.0589 16.2346 22.1114 16.2577 22.1476 16.2577C22.1837 16.2577 22.2133 16.2714 22.2133 16.2882C22.2133 16.305 22.2516 16.3284 22.2985 16.3402C22.3453 16.352 22.3837 16.3755 22.3837 16.3925C22.3837 16.4094 22.4297 16.4335 22.4859 16.4459C22.5421 16.4583 22.5881 16.4826 22.5881 16.4999C22.5881 16.5173 22.6111 16.5314 22.6392 16.5314C22.6674 16.5314 22.6904 16.5545 22.6904 16.5828C22.6904 16.6141 22.7221 16.6341 22.7719 16.6341C22.8167 16.6341 22.8623 16.6572 22.8731 16.6855C22.8838 16.7137 22.9161 16.7368 22.9449 16.7368C22.9736 16.7368 22.997 16.7519 22.997 16.7704C22.997 16.7888 23.0354 16.8136 23.0822 16.8254C23.1291 16.8372 23.1674 16.8683 23.1674 16.8945C23.1674 16.9207 23.1904 16.9421 23.2185 16.9421C23.2466 16.9421 23.2697 16.9575 23.2697 16.9764C23.2697 16.9952 23.2927 17.0106 23.3208 17.0106C23.3489 17.0106 23.3719 17.0337 23.3719 17.0619C23.3719 17.0938 23.404 17.1132 23.4571 17.1132C23.5101 17.1132 23.5423 17.1327 23.5423 17.1646C23.5423 17.1928 23.5653 17.2159 23.5934 17.2159C23.6215 17.2159 23.6445 17.239 23.6445 17.2673C23.6445 17.2955 23.6675 17.3186 23.6956 17.3186C23.7237 17.3186 23.7467 17.3417 23.7467 17.3699C23.7467 17.3982 23.7697 17.4213 23.7978 17.4213C23.8259 17.4213 23.8489 17.4444 23.8489 17.4726C23.8489 17.5008 23.8655 17.5239 23.8856 17.5239C23.9333 17.5239 24.1216 17.713 24.1216 17.7609C24.1216 17.7811 24.1446 17.7977 24.1727 17.7977C24.2008 17.7977 24.2238 17.8208 24.2238 17.8491C24.2238 17.8773 24.2468 17.9004 24.2749 17.9004C24.303 17.9004 24.326 17.9235 24.326 17.9517C24.326 17.98 24.349 18.0031 24.3771 18.0031C24.4052 18.0031 24.4282 18.0262 24.4282 18.0544C24.4282 18.0826 24.4426 18.1057 24.46 18.1057C24.4775 18.1057 24.5023 18.1389 24.5151 18.1795C24.528 18.2201 24.575 18.2873 24.6197 18.3289C24.6643 18.3705 24.7009 18.422 24.7009 18.4434C24.7009 18.4647 24.7222 18.4822 24.7483 18.4822C24.7744 18.4822 24.8053 18.5207 24.8171 18.5678C24.8288 18.6148 24.8535 18.6533 24.8719 18.6533C24.8903 18.6533 24.9053 18.6841 24.9053 18.7218C24.9053 18.7598 24.928 18.7902 24.9564 18.7902C24.9882 18.7902 25.0075 18.8225 25.0075 18.8758C25.0075 18.929 25.0269 18.9613 25.0587 18.9613C25.0868 18.9613 25.1098 18.9844 25.1098 19.0127C25.1098 19.0409 25.1239 19.064 25.1412 19.064C25.1584 19.064 25.1826 19.1102 25.195 19.1667C25.2073 19.2232 25.2299 19.2694 25.2451 19.2694C25.2603 19.2694 25.2824 19.3079 25.2942 19.3549C25.3059 19.402 25.3306 19.4405 25.349 19.4405C25.3674 19.4405 25.3824 19.4867 25.3824 19.5431C25.3824 19.6116 25.3994 19.6458 25.4335 19.6458C25.4676 19.6458 25.4846 19.68 25.4846 19.7485C25.4846 19.8169 25.5016 19.8512 25.5357 19.8512C25.5726 19.8512 25.5868 19.8892 25.5868 19.9881C25.5868 20.0869 25.601 20.125 25.638 20.125C25.6717 20.125 25.6891 20.1589 25.6891 20.2248C25.6891 20.2797 25.7054 20.3301 25.7254 20.3367C25.7453 20.3434 25.7703 20.414 25.7809 20.4936C25.7916 20.5732 25.8125 20.6383 25.8274 20.6383C25.8423 20.6383 25.8651 20.723 25.878 20.8265C25.8908 20.9301 25.913 21.0148 25.9272 21.0148C25.9414 21.0148 25.9605 21.0934 25.9697 21.1896C25.9789 21.2857 26.0024 21.3742 26.0219 21.3863C26.0416 21.3986 26.0625 21.5739 26.0691 21.782C26.0773 22.0416 26.0939 22.16 26.1235 22.1699C26.1571 22.1811 26.1661 22.7512 26.1661 24.8678C26.1661 27.2305 26.16 27.5515 26.115 27.5515C26.0869 27.5515 26.0639 27.5669 26.0639 27.5858C26.0639 27.6085 23.6218 27.62 18.8057 27.62H11.5474V24.7994C11.5474 22.8602 11.5586 21.975 11.5832 21.9668C11.6029 21.9602 11.6281 21.8126 11.6394 21.6388C11.6506 21.465 11.6709 21.3228 11.6845 21.3228C11.6982 21.3228 11.7166 21.235 11.7255 21.1277C11.7343 21.0205 11.7592 20.9267 11.7808 20.9195C11.8024 20.9123 11.82 20.8456 11.82 20.7713C11.82 20.6827 11.8376 20.6294 11.8711 20.6165C11.9045 20.6036 11.9223 20.5504 11.9223 20.4635C11.9223 20.3679 11.9367 20.3303 11.9734 20.3303C12.01 20.3303 12.0245 20.2927 12.0245 20.1971C12.0245 20.1102 12.0423 20.057 12.0756 20.0441C12.1055 20.0326 12.1267 19.9813 12.1267 19.9207C12.1267 19.8636 12.1417 19.8169 12.1601 19.8169C12.1785 19.8169 12.2032 19.7784 12.2149 19.7314C12.2267 19.6843 12.2488 19.6458 12.264 19.6458C12.2792 19.6458 12.3018 19.5996 12.3141 19.5431C12.3265 19.4867 12.3507 19.4405 12.3679 19.4405C12.3852 19.4405 12.3993 19.4015 12.3993 19.3539C12.3993 19.3062 12.4223 19.2583 12.4504 19.2475C12.4785 19.2367 12.5016 19.1909 12.5016 19.1459C12.5016 19.0959 12.5215 19.064 12.5527 19.064C12.5808 19.064 12.6038 19.0475 12.6038 19.0274C12.6038 19.0072 12.6268 18.9676 12.6549 18.9393C12.683 18.9111 12.706 18.8583 12.706 18.822C12.706 18.7857 12.7203 18.756 12.7378 18.756C12.7553 18.756 12.7801 18.7228 12.7929 18.6822C12.8057 18.6416 12.8527 18.5744 12.8974 18.5328C12.9421 18.4913 12.9786 18.4398 12.9786 18.4184C12.9786 18.397 13 18.3795 13.0261 18.3795C13.0521 18.3795 13.0831 18.341 13.0949 18.294C13.1066 18.2469 13.1313 18.2084 13.1496 18.2084C13.168 18.2084 13.1831 18.1853 13.1831 18.1571C13.1831 18.1288 13.2061 18.1057 13.2342 18.1057C13.2623 18.1057 13.2853 18.0826 13.2853 18.0544C13.2853 18.0262 13.3083 18.0031 13.3364 18.0031C13.3645 18.0031 13.3875 17.9856 13.3875 17.9642C13.3875 17.9428 13.4259 17.8897 13.4727 17.8461C13.5196 17.8024 13.5579 17.7506 13.5579 17.7309C13.5579 17.7112 13.5809 17.6951 13.609 17.6951C13.6371 17.6951 13.6601 17.672 13.6601 17.6437C13.6601 17.6155 13.6831 17.5924 13.7113 17.5924C13.7394 17.5924 13.7624 17.5693 13.7624 17.541C13.7624 17.5128 13.7798 17.4897 13.801 17.4897C13.8223 17.4897 13.8753 17.4512 13.9187 17.4042C13.9621 17.3571 14.0137 17.3186 14.0333 17.3186C14.053 17.3186 14.0691 17.2955 14.0691 17.2673C14.0691 17.239 14.0921 17.2159 14.1202 17.2159C14.1483 17.2159 14.1713 17.1928 14.1713 17.1646C14.1713 17.1364 14.1943 17.1132 14.2224 17.1132C14.2505 17.1132 14.2735 17.0982 14.2735 17.0797C14.2735 17.0612 14.3119 17.0365 14.3587 17.0246C14.4056 17.0128 14.4439 16.9817 14.4439 16.9555C14.4439 16.9293 14.4669 16.9079 14.495 16.9079C14.5231 16.9079 14.5461 16.8925 14.5461 16.8737C14.5461 16.8549 14.5691 16.8395 14.5972 16.8395C14.6254 16.8395 14.6484 16.8164 14.6484 16.7881C14.6484 16.7562 14.6805 16.7368 14.7335 16.7368C14.7866 16.7368 14.8187 16.7174 14.8187 16.6855C14.8187 16.6512 14.8528 16.6341 14.921 16.6341C14.9891 16.6341 15.0232 16.617 15.0232 16.5828C15.0232 16.5545 15.0462 16.5314 15.0743 16.5314C15.1024 16.5314 15.1254 16.5083 15.1254 16.4801C15.1254 16.4488 15.1572 16.4288 15.207 16.4288C15.2518 16.4288 15.2973 16.4057 15.3081 16.3774C15.3189 16.3492 15.3665 16.3261 15.414 16.3261C15.4614 16.3261 15.5003 16.3119 15.5003 16.2946C15.5003 16.2773 15.5463 16.2529 15.6025 16.2405C15.6587 16.2282 15.7047 16.2038 15.7047 16.1865C15.7047 16.1691 15.7435 16.155 15.791 16.155C15.8384 16.155 15.8861 16.1319 15.8968 16.1036C15.9076 16.0754 15.9532 16.0523 15.998 16.0523C16.0478 16.0523 16.0796 16.0323 16.0796 16.001C16.0796 15.963 16.1193 15.9496 16.2329 15.9496C16.3465 15.9496 16.3862 15.9363 16.3862 15.8983C16.3862 15.8614 16.4238 15.847 16.5197 15.847C16.5931 15.847 16.6586 15.8306 16.6653 15.8105C16.6719 15.7905 16.7422 15.7654 16.8215 15.7547C16.9007 15.744 16.9655 15.7237 16.9655 15.7095C16.9655 15.6953 17.0499 15.6731 17.153 15.6602C17.256 15.6473 17.3404 15.6246 17.3404 15.6098C17.3404 15.595 17.4975 15.5722 17.6897 15.559C17.8818 15.5458 18.0441 15.5205 18.0503 15.5028C18.066 15.4581 19.5802 15.4599 19.5951 15.5046ZM48.1453 26.3024V27.62H46.9563C45.9035 27.62 45.7649 27.6138 45.7466 27.5658C45.7352 27.5361 45.7259 26.9431 45.7259 26.2482V24.9847H46.9356H48.1453V26.3024ZM67.3303 30.0157C67.3303 30.0345 67.3533 30.0499 67.3814 30.0499C67.4266 30.0499 67.4325 30.7382 67.4325 36.0391V42.0283H34.7874H2.14237V39.6524V37.2766L2.23608 37.257C2.28763 37.2462 10.7782 37.2398 21.104 37.2427C35.3296 37.2467 39.8814 37.2383 39.8914 37.2082C39.8986 37.1863 39.9497 37.1685 40.005 37.1685C40.0629 37.1685 40.1138 37.1467 40.1251 37.1171C40.1359 37.0889 40.1814 37.0658 40.2262 37.0658C40.276 37.0658 40.3078 37.0458 40.3078 37.0145C40.3078 36.9862 40.3308 36.9631 40.3589 36.9631C40.387 36.9631 40.41 36.94 40.41 36.9118C40.41 36.8835 40.433 36.8604 40.4611 36.8604C40.4892 36.8604 40.5122 36.8373 40.5122 36.8091C40.5122 36.7809 40.5352 36.7578 40.5634 36.7578C40.5915 36.7578 40.6145 36.7347 40.6145 36.7064C40.6145 36.6782 40.6295 36.6551 40.6479 36.6551C40.6663 36.6551 40.6909 36.6166 40.7027 36.5695C40.7145 36.5225 40.7378 36.484 40.7545 36.484C40.7712 36.484 40.7849 36.2915 40.7849 36.0562C40.7849 35.7938 40.7717 35.6284 40.7508 35.6284C40.732 35.6284 40.7167 35.5987 40.7167 35.5624C40.7167 35.5261 40.6937 35.4733 40.6656 35.445C40.6375 35.4168 40.6145 35.3806 40.6145 35.3647C40.6145 35.327 40.4875 35.2177 40.4437 35.2177C40.4252 35.2177 40.41 35.1946 40.41 35.1664C40.41 35.1381 40.387 35.115 40.3589 35.115C40.3308 35.115 40.3078 35.0919 40.3078 35.0637C40.3078 35.0355 40.2848 35.0123 40.2567 35.0123C40.2286 35.0123 40.2056 34.9973 40.2056 34.9788C40.2056 34.9603 40.1634 34.9348 40.1118 34.9222C40.0603 34.9095 40.0073 34.8824 39.994 34.8619C39.9766 34.8351 34.667 34.8242 21.112 34.8231C3.68043 34.8216 2.24991 34.8172 2.19825 34.7654C2.14755 34.7144 2.14237 34.4932 2.14237 32.3795C2.14237 30.3315 2.14853 30.0499 2.19348 30.0499C2.22159 30.0499 2.24459 30.0345 2.24459 30.0157C2.24459 29.9929 13.1149 29.9814 34.7874 29.9814C56.4599 29.9814 67.3303 29.9929 67.3303 30.0157ZM42.9231 34.8306C42.6285 34.8379 42.4205 34.8568 42.4205 34.8764C42.4205 34.8947 42.3833 34.9097 42.3377 34.9097C42.2923 34.9097 42.232 34.9328 42.2039 34.961C42.1758 34.9892 42.1359 35.0123 42.1152 35.0123C42.0945 35.0123 42.0688 35.0355 42.058 35.0637C42.0472 35.0919 42.017 35.115 41.9909 35.115C41.9648 35.115 41.9434 35.1381 41.9434 35.1664C41.9434 35.1946 41.9204 35.2177 41.8923 35.2177C41.8642 35.2177 41.8412 35.2408 41.8412 35.269C41.8412 35.2973 41.8276 35.3204 41.8108 35.3204C41.7941 35.3204 41.7708 35.3589 41.7591 35.4059C41.7473 35.453 41.7226 35.4915 41.7043 35.4915C41.6859 35.4915 41.6708 35.5377 41.6708 35.5942C41.6708 35.6626 41.6538 35.6968 41.6197 35.6968C41.5782 35.6968 41.5686 35.7522 41.5686 35.9902C41.5686 36.2053 41.5822 36.2972 41.6197 36.3349C41.6478 36.3631 41.6708 36.4313 41.6708 36.4864C41.6708 36.5527 41.6881 36.5867 41.7219 36.5867C41.7501 36.5867 41.7731 36.6169 41.7731 36.654C41.7731 36.7222 41.9864 36.9631 42.0468 36.9631C42.0649 36.9631 42.0798 36.9862 42.0798 37.0145C42.0798 37.0464 42.1119 37.0658 42.1649 37.0658C42.218 37.0658 42.2501 37.0852 42.2501 37.1171C42.2501 37.154 42.2877 37.1685 42.3836 37.1685C42.457 37.1685 42.5226 37.1853 42.5295 37.2059C42.5456 37.2544 43.9657 37.2504 43.9823 37.2018C43.9886 37.1834 44.0373 37.1685 44.0907 37.1685C44.144 37.1685 44.2106 37.1454 44.2387 37.1171C44.2668 37.0889 44.3139 37.0658 44.3434 37.0658C44.3728 37.0658 44.3969 37.0427 44.3969 37.0145C44.3969 36.9831 44.4287 36.9631 44.4784 36.9631C44.537 36.9631 44.566 36.939 44.5813 36.8776C44.5931 36.8305 44.6178 36.792 44.6361 36.792C44.6545 36.792 44.6695 36.7689 44.6695 36.7407C44.6695 36.7124 44.6925 36.6893 44.7207 36.6893C44.7547 36.6893 44.7718 36.6551 44.7718 36.5867C44.7718 36.5182 44.7888 36.484 44.8229 36.484C44.8657 36.484 44.874 36.412 44.874 36.0415C44.874 35.6939 44.8631 35.588 44.8229 35.5477C44.7948 35.5195 44.7718 35.4722 44.7718 35.4426C44.7718 35.413 44.7488 35.3888 44.7207 35.3888C44.6889 35.3888 44.6695 35.3565 44.6695 35.3033C44.6695 35.25 44.6502 35.2177 44.6184 35.2177C44.5903 35.2177 44.5673 35.1946 44.5673 35.1664C44.5673 35.1381 44.5443 35.115 44.5162 35.115C44.4881 35.115 44.4651 35.0999 44.4651 35.0815C44.4651 35.063 44.4279 35.0385 44.3824 35.027C44.3369 35.0156 44.2913 34.9845 44.2812 34.9579C44.2711 34.9314 44.2252 34.9097 44.1794 34.9097C44.1335 34.9097 44.0908 34.8954 44.0846 34.8779C44.0697 34.8362 43.5505 34.815 42.9231 34.8306ZM62.4997 44.5352C62.5129 44.6001 62.5095 55.6241 62.496 56.3594L62.4914 56.6074L41.2733 56.6161C24.3352 56.623 20.0523 56.6334 20.0409 56.6675C20.0331 56.6911 19.9739 56.7103 19.9092 56.7103C19.8362 56.7103 19.7843 56.7297 19.7721 56.7616C19.7613 56.7899 19.7158 56.813 19.671 56.813C19.6212 56.813 19.5894 56.833 19.5894 56.8643C19.5894 56.8925 19.5741 56.9156 19.5553 56.9156C19.5111 56.9156 19.385 57.0424 19.385 57.0868C19.385 57.1056 19.362 57.121 19.3338 57.121C19.3057 57.121 19.2827 57.1375 19.2827 57.1576C19.2827 57.1778 19.2597 57.2174 19.2316 57.2457C19.2035 57.2739 19.1805 57.3408 19.1805 57.3944C19.1805 57.4479 19.1619 57.498 19.1391 57.5056C19.1106 57.5152 19.0977 57.619 19.0977 57.8397C19.0977 58.0604 19.1106 58.1642 19.1391 58.1738C19.1619 58.1814 19.1805 58.2315 19.1805 58.285C19.1805 58.3386 19.2035 58.4055 19.2316 58.4337C19.2597 58.462 19.2827 58.5015 19.2827 58.5217C19.2827 58.5419 19.3057 58.5584 19.3338 58.5584C19.362 58.5584 19.385 58.5738 19.385 58.5926C19.385 58.637 19.5111 58.7637 19.5553 58.7637C19.5741 58.7637 19.5894 58.7868 19.5894 58.8151C19.5894 58.8433 19.6058 58.8664 19.6259 58.8664C19.646 58.8664 19.6854 58.8895 19.7136 58.9177C19.7417 58.946 19.8083 58.9691 19.8616 58.9691C19.9149 58.9691 19.965 58.9884 19.9728 59.0119C19.9841 59.046 24.2738 59.0564 41.2392 59.0633C61.082 59.0713 62.4914 59.0757 62.4914 59.1292C62.4914 59.1607 62.4983 59.4571 62.5068 59.7879C62.5152 60.1187 62.5129 60.6551 62.5015 60.9797L62.4809 61.5701H34.731H6.9812V53.0141V44.4581H34.7326H62.484L62.4997 44.5352Z" fill="white"/>
</svg>
