<svg width="69" height="81" viewBox="0 0 69 81" fill="none" xmlns="http://www.w3.org/2000/svg">
<path fill-rule="evenodd" clip-rule="evenodd" d="M3.81794 0.102769C2.69562 0.344098 1.73326 1.62886 1.73029 2.88985C1.72811 3.79527 2.48994 4.96483 3.30531 5.30773L3.75801 5.4982V32.8125V60.127H3.36289C2.26742 60.127 1.07769 61.2066 0.460818 62.7604L0.0908216 63.6923L0.0454108 72.1222L0 80.552L0.396525 80.8158C0.764336 81.0605 0.821295 81.0608 1.18318 80.8201C1.56332 80.5672 1.5733 80.5122 1.5733 78.6627V76.7649H34.5H67.4267V78.6627C67.4267 80.5122 67.4367 80.5672 67.8168 80.8201C68.1787 81.0608 68.2357 81.0605 68.6035 80.8158L69 80.552L68.9546 72.1222L68.9092 63.6923L68.5392 62.7604C67.9273 61.2191 66.7139 60.127 65.6131 60.127H65.242V32.8125V5.4982L65.6947 5.30773C66.2822 5.0607 66.7284 4.56933 67.0291 3.83837C68.0954 1.24714 65.0276 -1.10276 62.7389 0.55215C62.1413 0.984102 61.6609 1.98681 61.6563 2.81189C61.6503 3.85485 62.4819 5.09445 63.3822 5.38459C63.6111 5.45843 63.6815 5.62924 63.6815 6.11095V6.74097L55.7619 6.69375L47.8423 6.64653L46.5939 6.21046C45.8313 5.94393 44.9896 5.5001 44.4308 5.06973C43.3112 4.20757 41.7211 3.51908 39.9618 3.13483C38.0264 2.71222 30.9736 2.71222 29.0382 3.13483C27.2789 3.51908 25.6888 4.20757 24.5692 5.06973C24.0084 5.50168 23.1715 5.94251 22.4061 6.20903L21.1577 6.64368L13.2381 6.69359L5.31852 6.7435V6.11221C5.31852 5.62924 5.38874 5.45843 5.61783 5.38459C6.51808 5.09445 7.34968 3.85485 7.34375 2.81189C7.33313 0.944805 5.70818 -0.303829 3.81794 0.102769ZM5.01313 1.65675C5.30432 1.65675 5.78667 2.37154 5.78667 2.80302C5.78667 3.4126 5.16028 4.03359 4.54529 4.03359C3.63973 4.03359 3.03175 2.95181 3.51582 2.20168C3.79827 1.76402 4.33681 1.4769 4.6681 1.5875C4.78233 1.62553 4.9376 1.65675 5.01313 1.65675ZM65.3734 2.09155C66.3869 3.2261 64.6657 4.73048 63.5964 3.64458C62.9538 2.99221 63.1578 2.01422 64.0078 1.67243C64.5123 1.46961 64.9332 1.59875 65.3734 2.09155ZM37.832 4.45476L38.4331 4.5557L37.9576 4.75868C37.1898 5.08653 36.0978 6.2206 35.6738 7.13061C35.0104 8.55434 35.171 10.0312 36.1452 11.4695L36.6899 12.2733H34.5H32.3101L32.8548 11.4695C33.8369 10.0194 34.0002 8.4702 33.3174 7.07896C32.8738 6.17512 31.5723 4.88434 30.931 4.71226L30.5207 4.60213L30.9889 4.49501C31.5975 4.35589 37.0511 4.32388 37.832 4.45476ZM30.0087 6.10049C31.6502 6.56334 32.6013 8.50633 31.9103 9.98504C31.5556 10.744 30.3828 11.7979 29.8929 11.7979C29.3673 11.7979 28.6565 11.0887 28.8138 10.7214C28.8776 10.5726 28.9611 10.2256 28.9994 9.95002C29.054 9.55768 28.9969 9.40984 28.7356 9.26787C27.7703 8.74322 26.9055 10.2346 27.3741 11.6157L27.5973 12.2733H24.2297H20.8621L21.478 11.8116C21.8168 11.5577 22.8461 10.5325 23.7654 9.5336C25.5884 7.55242 26.7405 6.67315 28.0871 6.23581C29.1278 5.89767 29.2572 5.88848 30.0087 6.10049ZM40.8614 6.2282C42.2535 6.66808 43.3846 7.52311 45.2346 9.5336C46.1539 10.5325 47.1832 11.5577 47.522 11.8116L48.1379 12.2733H44.7703H41.4027L41.6259 11.6157C42.0945 10.2346 41.2297 8.74322 40.2644 9.26787C40.0031 9.40984 39.946 9.55768 40.0006 9.95002C40.0389 10.2256 40.1188 10.5629 40.1779 10.6995C40.3374 11.0678 39.7094 11.7979 39.2333 11.7979C38.2558 11.7979 36.9956 10.3677 36.8781 9.1251C36.7584 7.86046 37.5733 6.61595 38.8156 6.16625C39.6093 5.87881 39.7717 5.88388 40.8614 6.2282ZM23.1083 7.80326C23.1083 7.87203 22.5289 8.53897 21.8209 9.2853C20.4197 10.7623 19.3728 11.3972 17.4905 11.9112C16.0163 12.3139 11.5671 12.3159 10.7734 11.9142C10.0714 11.559 9.68794 10.902 9.68794 10.0543C9.68794 9.50936 9.78375 9.29211 10.2185 8.85065C10.777 8.28354 11.1434 8.19781 11.7701 8.48779C12.3545 8.75827 12.5562 9.34678 12.2665 9.93655C11.8293 10.8263 12.036 11.481 12.7542 11.481C13.5259 11.481 14.2839 9.71741 13.923 8.76192L13.7637 8.34042L17.5387 8.27007C20.3056 8.21857 21.522 8.13538 22.094 7.95854C23.0716 7.65637 23.1083 7.65082 23.1083 7.80326ZM47.583 8.08705C48.3462 8.23695 49.8151 8.3119 51.9875 8.3119H55.2469L55.0825 8.74766C54.8528 9.35581 55.041 10.3444 55.504 10.9607C56.3544 12.0928 57.4906 11.1654 56.7187 9.96919C56.2585 9.25598 56.9488 8.3119 57.9305 8.3119C58.1067 8.3119 58.4897 8.55434 58.7815 8.85065C59.2162 9.29211 59.3121 9.50936 59.3121 10.0543C59.3121 10.902 58.9286 11.559 58.2266 11.9142C57.4292 12.3177 52.9797 12.3139 51.5095 11.9085C49.5436 11.3663 48.5934 10.7921 47.1888 9.29671C45.895 7.91941 45.6478 7.54688 46.1648 7.75319C46.3149 7.81324 46.9532 7.96346 47.583 8.08705ZM8.43953 8.48082C8.43953 8.57367 8.36432 8.79234 8.2724 8.9668C7.99744 9.4886 8.07219 10.9592 8.40879 11.6501L8.71247 12.2733H7.01557H5.31852V10.2926V8.3119H6.87903C7.87947 8.3119 8.43953 8.37243 8.43953 8.48082ZM63.6815 10.2926V12.2733H61.9844H60.2875L60.5912 11.6501C60.9278 10.9592 61.0026 9.4886 60.7276 8.9668C60.4077 8.35976 60.5094 8.3119 62.121 8.3119H63.6815V10.2926ZM63.6815 15.6801V17.5024H59.0195H54.3575L54.266 17.0666C54.0329 15.956 52.8321 14.9621 51.7333 14.9705C50.6094 14.9791 49.4389 15.9328 49.226 17.0137L49.1298 17.5024H46.5086H43.8872L43.7026 16.9341C43.4486 16.1525 42.7083 15.3399 42.049 15.119C40.7662 14.6891 39.2363 15.4751 38.7978 16.7893L38.5863 17.4231L30.3138 17.4642L22.0411 17.505L21.854 16.9096C21.451 15.6273 20.1766 14.8263 18.8899 15.0471C18.1161 15.1799 17.2188 15.9861 16.9509 16.7893L16.7392 17.4231L11.0289 17.4646L5.31852 17.5063V15.682V13.8579H34.5H63.6815V15.6801ZM19.8379 16.7137C20.002 16.8029 20.2104 17.0168 20.3013 17.1891C20.4579 17.4863 20.4141 17.5024 19.4466 17.5024C18.3333 17.5024 18.1109 17.2696 18.7737 16.7983C19.1788 16.5101 19.4271 16.4905 19.8379 16.7137ZM41.685 16.7137C41.8491 16.8029 42.0575 17.0168 42.1484 17.1891C42.305 17.4863 42.2612 17.5024 41.2937 17.5024C40.1804 17.5024 39.958 17.2696 40.6208 16.7983C41.0259 16.5101 41.2742 16.4905 41.685 16.7137ZM52.3467 16.8801C52.5729 17.0606 52.7579 17.2745 52.7579 17.3555C52.7579 17.4363 52.3015 17.5024 51.7436 17.5024C51.1857 17.5024 50.7293 17.4363 50.7293 17.3555C50.7293 17.1614 51.4986 16.5516 51.7436 16.5516C51.8492 16.5516 52.1206 16.6995 52.3467 16.8801ZM19.2396 19.6279C18.9825 19.9255 18.6927 20.4129 18.5958 20.7109C18.4321 21.2143 18.1131 21.4211 14.1131 23.6164C9.5837 26.1021 8.87382 26.621 8.22481 27.9218C7.58282 29.2081 7.47733 30.2449 7.67254 33.348C7.906 37.06 7.95375 37.1287 9.86911 36.5191C10.4131 36.3459 10.8758 36.2033 10.8973 36.2022C10.9189 36.2011 10.9363 39.0478 10.9363 42.5281C10.9363 46.3586 10.9978 49.0204 11.0922 49.2723C11.3956 50.0828 13.8646 50.9374 16.8663 51.2709C20.4206 51.666 25.1499 50.9478 26.9706 49.7368L27.3217 49.5032V42.8487V36.1941L27.7508 36.3005C27.9868 36.3591 28.4521 36.503 28.7848 36.6204C29.5448 36.8888 30.0448 36.8921 30.2587 36.6304C30.4951 36.3412 30.7957 32.5801 30.7312 30.7184C30.6839 29.3572 30.6125 29.011 30.1921 28.1102C29.8853 27.4528 29.4557 26.8503 29.0217 26.4692C28.6445 26.1381 26.4751 24.8419 24.2007 23.589C21.7393 22.2331 20.0837 21.2296 20.1109 21.1101C20.1863 20.7788 20.7774 20.3546 21.1638 20.3546C21.633 20.3546 22.0159 19.9578 22.0159 19.4718V19.0869H31.7997H41.5835L41.0794 19.615C40.8021 19.9057 40.5081 20.3902 40.426 20.6919C40.285 21.2104 40.0581 21.3609 36.2824 23.4372C34.0855 24.6454 32.1887 25.7348 32.0675 25.8577C31.7771 26.1528 31.7878 26.6099 32.0923 26.9192C32.2644 27.0939 32.6369 27.1682 33.3407 27.1682H34.3439V41.5786V55.9893L34.6909 56.2358C34.9772 56.4396 35.5925 56.4825 38.2231 56.4825H41.4087L41.3087 57.2233C41.1287 58.5561 40.8765 63.1935 40.9269 64.2429C40.9705 65.1533 41.0201 65.2916 41.3662 65.4705C41.6724 65.6286 43.9164 65.6636 51.7884 65.6329C60.5074 65.5988 61.8398 65.5627 61.9682 65.3561C62.1931 64.995 62.1495 61.1126 61.8899 58.3699C61.4724 53.9612 60.7008 50.4476 59.4818 47.4055C58.7845 45.6651 58.2692 44.7175 57.323 43.435C56.6746 42.5562 56.6526 42.4921 56.8883 42.1673C58.7732 39.5693 59.553 37.3374 59.7314 34.03C59.8458 31.9101 59.7064 31.5511 58.7069 31.3888C57.7467 31.2329 57.5955 30.8909 57.5955 28.8759V27.1682H58.9109C59.8985 27.1682 60.2872 27.1062 60.4714 26.9192C60.7777 26.608 60.7861 26.1523 60.4909 25.8525C60.3668 25.7265 58.6289 24.7265 56.6286 23.6302C54.6285 22.5338 52.8516 21.5268 52.6799 21.3923C52.3719 21.1508 52.3736 21.1424 52.8057 20.751C53.0465 20.533 53.401 20.3546 53.5937 20.3546C54.065 20.3546 54.3184 20.0665 54.3184 19.5306V19.0869H59H63.6815V45.4698V71.8528H34.5H5.31852V45.4698V19.0869H12.5131H19.7075L19.2396 19.6279ZM51.9777 19.1737C51.9777 19.2214 51.7993 19.4176 51.5812 19.6095C51.3632 19.8014 51.0899 20.2436 50.9741 20.5922C50.7475 21.2744 50.6406 21.3511 47.674 22.9599L46.2572 23.7281L44.0384 22.4989C41.8923 21.3099 41.8269 21.2586 42.0399 20.9309C42.1612 20.7447 42.463 20.5304 42.7106 20.4549C43.4838 20.2189 43.6246 20.1047 43.7783 19.5884L43.9276 19.0869H47.9527C50.1664 19.0869 51.9777 19.1261 51.9777 19.1737ZM21.3986 23.8829C24.5151 25.5945 24.5293 25.5836 19.2184 25.5836C13.8359 25.5836 13.8386 25.5855 16.9084 23.8861C18.0438 23.2573 19.0471 22.7404 19.1376 22.7373C19.2281 22.7339 20.2456 23.2496 21.3986 23.8829ZM42.8869 23.6821C43.7661 24.1615 44.4857 24.5893 44.4858 24.6329C44.486 24.6765 44.1177 24.9114 43.6675 25.1551L42.8487 25.5982L39.3376 25.5513L35.8264 25.5044L38.3232 24.1217C39.6965 23.3613 40.9254 22.7552 41.0541 22.7748C41.1829 22.7945 42.0076 23.2028 42.8869 23.6821ZM54.2083 24.1179L56.7366 25.5044L53.176 25.547L49.6154 25.5896L48.8461 25.1509C48.423 24.9095 48.0767 24.6761 48.0766 24.6324C48.0764 24.5182 51.235 22.7685 51.4777 22.7482C51.589 22.739 52.8177 23.3554 54.2083 24.1179ZM13.4366 26.3456C13.4427 26.8172 14.0591 28.0229 14.5734 28.5686C15.501 29.5531 17.262 30.1788 19.1048 30.1788C22.0468 30.1788 24.2643 28.8459 24.8275 26.7391C24.9392 26.3214 25.0432 25.9615 25.0585 25.9395C25.0738 25.9173 25.7122 26.2436 26.4771 26.6646C28.0139 27.5106 28.7475 28.2988 29.0537 29.4328C29.2317 30.0923 29.1543 34.7089 28.9619 34.9043C28.9142 34.9528 28.3976 34.8365 27.8142 34.6456C26.5419 34.2294 26.4139 34.2234 26.0466 34.5609C25.7783 34.8073 25.7612 35.2406 25.7612 41.7487V48.6741L24.7078 49.005C22.9176 49.5675 21.7194 49.7193 19.129 49.7119C16.5542 49.7044 15.0801 49.5 13.441 48.9229L12.5905 48.6236L12.5827 41.7232C12.5746 34.5261 12.5541 34.2987 11.9168 34.2987C11.7904 34.2987 11.1984 34.4494 10.6011 34.6337C10.0039 34.8178 9.48086 34.9335 9.43873 34.8907C9.28736 34.737 9.04688 30.8767 9.1452 30.1788C9.37943 28.5157 10.0376 27.6855 11.9814 26.6014C13.2175 25.9119 13.4305 25.8744 13.4366 26.3456ZM22.7581 27.3662C22.723 27.4753 22.4669 27.7206 22.1893 27.9116C20.6527 28.969 16.7773 28.7277 15.7107 27.5081L15.4134 27.1682H19.1178C22.0114 27.1682 22.8082 27.2116 22.7581 27.3662ZM45.4235 28.9792C45.4235 30.9504 45.3282 31.2021 44.5153 31.378C44.2853 31.4278 43.9301 31.5374 43.7262 31.6217L43.3553 31.775L43.4361 33.9479C43.5572 37.2029 44.3223 39.6409 45.8621 41.6786L46.4694 42.4825L45.7038 43.5009C44.0534 45.696 42.533 49.7174 41.8289 53.7492L41.6284 54.898H38.7664H35.9045V41.0331V27.1682H40.664H45.4235V28.9792ZM55.7953 27.5247C55.4425 28.7253 54.3223 29.9866 53.2785 30.3585C52.2954 30.7089 50.3185 30.6211 49.4359 30.188C48.5922 29.774 47.7816 28.8399 47.4001 27.8416L47.1426 27.1682H51.5212H55.9L55.7953 27.5247ZM47.7471 30.9762C49.0505 32.0397 51.2388 32.4655 53.1083 32.0195C54.0511 31.7945 54.6004 31.5173 55.6611 30.7311C55.9763 30.4975 56.0004 30.5165 56.2575 31.2002C56.5475 31.9711 57.2257 32.6536 57.8634 32.8162L58.2632 32.9181L58.167 34.2817C57.9783 36.9551 56.9576 39.678 55.572 41.2042C54.6569 42.2123 54.541 42.5061 54.8877 42.9379C55.0467 43.1359 55.5132 43.7153 55.9244 44.2253C58.514 47.4383 60.2529 53.9566 60.5151 61.4343L60.6081 64.0884H51.5112H42.4143L42.5213 61.7512C42.9164 53.1146 44.7396 46.7573 47.7506 43.5154C48.1015 43.1378 48.3885 42.6962 48.3885 42.5343C48.3885 42.3723 48.0447 41.841 47.6246 41.3536C46.2139 39.7166 45.1952 37.2433 45.0212 35.0327C44.9724 34.411 44.9083 33.705 44.8789 33.4633C44.8343 33.097 44.9078 32.9894 45.322 32.8135C45.9566 32.5443 46.8143 31.556 46.9319 30.9581C46.982 30.7038 47.0535 30.4958 47.0908 30.4958C47.1279 30.4958 47.4233 30.7119 47.7471 30.9762ZM3.75801 66.7822V71.8528H2.6538H1.54958L1.60046 67.8518C1.64899 64.0328 1.66787 63.8165 2.01602 63.0987C2.41286 62.2805 3.00803 61.7116 3.46698 61.7116C3.7449 61.7116 3.75801 61.9395 3.75801 66.7822ZM66.4269 62.2709C67.2426 63.1491 67.322 63.6175 67.3872 67.931L67.4465 71.8528H66.3442H65.242V66.7822C65.242 61.7127 65.242 61.7116 65.5747 61.7116C65.7576 61.7116 66.1411 61.9634 66.4269 62.2709ZM67.3958 74.2692L67.3487 75.1011H34.5H1.65133L1.6042 74.2692L1.55692 73.4373H34.5H67.4431L67.3958 74.2692Z" fill="white"/>
</svg>
