<svg width="69" height="91" viewBox="0 0 69 91" fill="none" xmlns="http://www.w3.org/2000/svg">
<path fill-rule="evenodd" clip-rule="evenodd" d="M3.06967 0.335207C1.9171 0.719657 0.984032 1.53423 0.411976 2.65559L0 3.46306V42.4767V81.4904L0.455216 82.3512C1.32388 83.994 2.60967 84.748 4.81822 84.9094L6.164 85.0077V85.5715C6.164 88.212 7.42587 90.1189 9.58898 90.7478C10.7842 91.0952 14.2782 91.0807 15.5256 90.7229C17.4495 90.171 18.5926 88.6295 18.7952 86.3139L18.9139 84.9563H34.5H50.0861L50.2048 86.3139C50.407 88.6252 51.5713 90.1769 53.5234 90.7369C54.722 91.0807 58.2434 91.0872 59.411 90.7478C61.5741 90.1189 62.836 88.212 62.836 85.5715V85.0077L64.1818 84.9094C66.3903 84.748 67.6761 83.994 68.5448 82.3512L69 81.4904V42.4767V3.46306L68.5753 2.63017C68.3416 2.17196 67.829 1.51664 67.4362 1.17378C66.0001 -0.079457 68.1424 -0.00356347 34.4205 0.00301287C5.43591 0.00852277 4.00329 0.0236312 3.06967 0.335207ZM65.4528 3.51247L65.872 3.91718L65.9263 41.9929C65.9646 68.9405 65.9222 80.263 65.7811 80.734C65.3931 82.0302 67.8802 81.9348 34.5 81.9348C1.11982 81.9348 3.60695 82.0302 3.2189 80.734C3.07777 80.263 3.03545 68.9468 3.07372 42.0153C3.13223 0.94005 3.06673 3.57094 4.04156 3.18703C4.24746 3.10598 18.055 3.05497 34.7248 3.07363L65.0339 3.10758L65.4528 3.51247ZM9.66 6.24396C8.01302 6.68457 6.68987 8.1694 6.34726 9.96154C6.22104 10.6211 6.17449 21.6548 6.20706 43.1098C6.2525 72.928 6.27882 75.3181 6.56862 75.9361C7.10884 77.088 7.82166 77.8213 8.8964 78.3311L9.936 78.8243L20.5905 78.8757C31.8968 78.9301 32.66 78.8858 33.8466 78.108L34.5 77.6797L35.1534 78.108C36.34 78.8858 37.1032 78.9301 48.4095 78.8757L59.064 78.8243L60.1036 78.3311C61.1783 77.8213 61.8912 77.088 62.4314 75.9361C62.7219 75.3167 62.744 72.9515 62.744 42.4767V9.68392L62.2183 8.64983C61.5855 7.40513 60.4136 6.49955 59.064 6.2125C58.4345 6.07848 54.7166 6.0344 47.288 6.07297L36.432 6.12914L35.466 6.64618L34.5 7.16322L33.534 6.64618L32.568 6.12914L21.436 6.10034C14.7161 6.0831 10.0488 6.13998 9.66 6.24396ZM32.0948 9.32186C32.3812 9.46494 32.6677 9.7136 32.7316 9.87445C32.7956 10.0355 32.8466 24.7338 32.8449 42.5375L32.8422 74.9079L32.379 75.3552L31.9159 75.8028L21.57 75.8566C14.665 75.8925 11.0014 75.8477 10.5544 75.7221C9.18933 75.338 9.292 78.04 9.292 42.5208C9.292 19.7416 9.34978 10.5545 9.4955 10.1507C9.89166 9.05312 9.63737 9.07676 21.1232 9.06894C29.946 9.0629 31.6554 9.10235 32.0948 9.32186ZM58.7771 9.32311C59.0697 9.46921 59.39 9.83322 59.5041 10.1494C59.6504 10.5548 59.708 19.7009 59.708 42.5208C59.708 78.04 59.8107 75.338 58.4456 75.7221C57.9986 75.8477 54.335 75.8925 47.43 75.8566L37.0841 75.8028L36.5866 75.322L36.0888 74.8412L36.0929 42.6996C36.0949 25.0219 36.1525 10.3435 36.2208 10.0812C36.4835 9.06965 36.4037 9.07676 47.8032 9.06894C56.6473 9.0629 58.3346 9.102 58.7771 9.32311ZM16.523 12.372C16.1992 12.5263 15.1848 13.4006 14.269 14.3151C12.7549 15.8271 12.604 16.04 12.604 16.6657C12.604 17.5579 13.1913 18.1265 14.1132 18.1265C14.7003 18.1265 14.9715 17.934 16.6426 16.3322C17.6721 15.3454 18.589 14.3487 18.68 14.1171C18.9426 13.4498 18.5478 12.6211 17.829 12.3308C17.0965 12.0352 17.2395 12.0308 16.523 12.372ZM24.472 12.3399C24.1684 12.4716 21.3738 15.0502 18.262 18.0702C12.8526 23.3195 12.604 23.5902 12.604 24.2288C12.604 25.0994 13.2592 25.7693 14.1104 25.7693C14.6569 25.7693 15.272 25.2298 20.6509 20.0342C26.2198 14.6547 26.588 14.2598 26.588 13.6665C26.588 12.586 25.4903 11.8978 24.472 12.3399ZM43.203 12.372C42.8792 12.5263 41.8648 13.4006 40.949 14.3151C39.4803 15.7816 39.284 16.053 39.284 16.6159C39.284 17.4824 39.9508 18.1265 40.8478 18.1265C41.4307 18.1265 41.7117 17.9367 43.2332 16.5148C45.239 14.6405 45.6362 14.003 45.3293 13.1521C45.1895 12.765 44.9229 12.4979 44.509 12.3308C43.7765 12.0352 43.9195 12.0308 43.203 12.372ZM51.152 12.3399C50.8484 12.4716 48.054 15.0502 44.942 18.0702C39.5315 23.3208 39.284 23.59 39.284 24.2292C39.284 25.0692 39.9849 25.7693 40.8257 25.7693C41.3258 25.7693 42.1018 25.0852 47.3309 20.0342C52.8998 14.6547 53.268 14.2598 53.268 13.6665C53.268 12.586 52.1703 11.8978 51.152 12.3399ZM27.1963 36.8623L26.68 37.2908L26.6206 41.164C26.5543 45.4763 26.6145 46.0536 27.1832 46.5654C27.74 47.0667 28.8008 47.0384 29.316 46.5089C29.7044 46.1094 29.716 45.9704 29.716 41.7018V37.3061L29.2643 36.87C28.6795 36.3051 27.871 36.3021 27.1963 36.8623ZM39.7357 36.87L39.284 37.3061V41.7267C39.284 46.1177 39.2869 46.1499 39.7098 46.5338C40.317 47.0846 41.2999 47.0517 41.874 46.4615L42.32 46.0025V41.6469V37.2914L41.8037 36.8625C41.1292 36.3021 40.3205 36.3049 39.7357 36.87ZM15.732 85.6408C15.732 86.6608 15.3907 87.4223 14.8011 87.7166C14.4477 87.8933 13.706 87.9779 12.512 87.9779C11.318 87.9779 10.5763 87.8933 10.2229 87.7166C9.63332 87.4223 9.292 86.6608 9.292 85.6408V84.9563H12.512H15.732V85.6408ZM59.708 85.6408C59.708 86.6608 59.3667 87.4223 58.7771 87.7166C58.1659 88.0221 55.0442 88.0808 54.2831 87.8012C53.7044 87.5888 53.268 86.6736 53.268 85.673V84.9563H56.488H59.708V85.6408Z" fill="white"/>
</svg>
