<svg width="256" height="256" viewBox="0 0 256 256" fill="none" xmlns="http://www.w3.org/2000/svg">
<path fill-rule="evenodd" clip-rule="evenodd" d="M108.789 1.29996C105.787 3.58096 105 7.74696 105 21.347V34.627L99.251 32.686C72.188 23.549 41.681 39.257 32.874 66.865C31.079 72.491 30.702 76.785 30.254 96.687L29.731 119.937H17.32C5.476 119.937 4.797 120.049 2.455 122.392L0 124.846V187.937V251.028L2.455 253.482C5.583 256.611 9.417 256.611 12.545 253.482L15 251.028V192.982V134.937H22.5H30V138.372C30 142.676 31.562 146.881 33.789 148.574C35.055 149.536 40.633 149.882 55.25 149.905L75 149.937V157.437V164.937H61.614C48.904 164.937 47.959 165.078 42.881 167.73C33.683 172.536 30 180.478 30 195.508C30 202.476 31.197 206.604 33.789 208.574C35.055 209.536 40.633 209.882 55.25 209.905L75 209.937V225.437V240.937L70.25 240.969C67.638 240.986 64.73 241.585 63.789 242.3C59.851 245.292 59.845 251.578 63.777 254.564C66.223 256.423 99.766 256.431 102.211 254.574C106.149 251.582 106.155 245.296 102.223 242.31C101.275 241.59 98.363 240.986 95.75 240.969L91 240.937V225.437V209.937L110.75 209.905C125.367 209.882 130.945 209.536 132.211 208.574C134.803 206.604 136 202.476 136 195.508C136 180.478 132.317 172.536 123.119 167.73C118.041 165.078 117.096 164.937 104.386 164.937H91V157.437V149.937L110.75 149.905C125.367 149.882 130.945 149.536 132.211 148.574C134.438 146.881 136 142.676 136 138.372V134.937H143H150V191.372C150 227.998 150.365 248.766 151.039 250.54C152.354 253.998 154.801 255.873 158 255.873C164.201 255.873 166 251.488 166 236.372V224.937H203.5H241V237.982C241 250.5 241.099 251.127 243.455 253.482C246.583 256.611 250.417 256.611 253.545 253.482L256 251.028V187.937V124.846L253.545 122.392L251.091 119.937H216.045H181V112.437V104.937L208.25 104.905C237.587 104.871 237.958 104.808 239.961 99.54C241.379 95.809 241.379 9.06496 239.961 5.33396C237.856 -0.203039 240.41 0.00096083 173 0.00096083C123.27 0.00096083 110.15 0.265957 108.789 1.29996ZM225 52.437V89.937H180.59H136.18L135.465 81.187C135.072 76.375 133.913 69.705 132.89 66.365C131.125 60.605 124.466 48.961 122.1 47.499C121.374 47.05 121 41.391 121 30.878V14.937H173H225V52.437ZM93.068 46.525C103.561 49.593 111.439 56.147 116.752 66.224L119.5 71.437L119.802 103.187L120.104 134.937H83.052H46L46.006 105.187C46.009 88.824 46.45 73.856 46.987 71.923C47.524 69.991 49.434 65.962 51.232 62.97C59.726 48.833 77.316 41.919 93.068 46.525ZM165 112.437V119.937H150.5H136V112.437V104.937H150.5H165V112.437ZM241 149.937V164.937H203.5H166V149.937V134.937H203.5H241V149.937ZM117.811 181.976C119.547 183.593 120 185.146 120 189.476V194.937H83H46V189.476C46 185.146 46.453 183.593 48.189 181.976C50.298 180.01 51.552 179.937 83 179.937C114.448 179.937 115.702 180.01 117.811 181.976ZM241 194.937V209.937H203.5H166V194.937V179.937H203.5H241V194.937Z" fill="white"/>
</svg>
