<svg width="69" height="64" viewBox="0 0 69 64" fill="none" xmlns="http://www.w3.org/2000/svg">
<path fill-rule="evenodd" clip-rule="evenodd" d="M27.37 0.480649C27.0785 0.896432 27.0333 2.15351 27.0333 9.83784C27.0333 17.5222 27.0785 18.7792 27.37 19.195L27.7065 19.6757H47.874C64.95 19.6757 68.1055 19.6285 68.4611 19.3689C68.8653 19.0733 68.8808 18.7196 68.8808 9.88843C68.8808 2.43114 68.8253 0.648216 68.5841 0.357621C68.3118 0.0296215 66.607 0 47.9969 0H27.7065L27.37 0.480649ZM48.0111 9.84022V17.3018L38.7657 17.2456L29.5204 17.1892L29.4633 10.0558C29.4319 6.13233 29.4531 2.79978 29.5106 2.65038C29.5922 2.43784 31.6244 2.37838 38.8131 2.37838H48.0111V9.84022ZM66.3938 9.84043V17.3027L58.446 17.2458L50.4982 17.1892L50.4413 9.78378L50.3844 2.37838H58.3891H66.3938V9.84043ZM32.3653 12.7198C31.8945 13.24 31.9114 13.9001 32.4071 14.3488C32.7624 14.6701 33.4168 14.7038 38.2921 14.6523L43.7775 14.5946L44.0974 14.0249C44.3841 13.5139 44.3789 13.397 44.0463 12.8897L43.6759 12.3243H38.1996C33.1688 12.3243 32.6941 12.3565 32.3653 12.7198ZM52.0456 12.7198C51.5864 13.2268 51.5925 13.6737 52.0661 14.2521C52.4372 14.7053 52.5525 14.7133 57.9512 14.6545L63.4577 14.5946L63.7776 14.0249C64.0644 13.5139 64.0592 13.397 63.7266 12.8897L63.3561 12.3243H57.8798C52.849 12.3243 52.3743 12.3565 52.0456 12.7198ZM0.486599 15.0344L0 15.3758V39.3302C0 62.2621 0.0168689 63.2997 0.395551 63.6422C0.75996 63.9719 3.43107 64 34.4162 64C63.11 64 68.1027 63.955 68.4611 63.6932C68.8661 63.3972 68.883 62.9842 68.9405 51.9051L69 40.4238L68.4637 39.8876C67.9717 39.3959 67.7651 39.3514 65.971 39.3514C64.0577 39.3514 64.0148 39.3401 64.0148 38.8394C64.0148 38.4011 64.1461 38.3096 64.9264 38.205C67.0125 37.9252 66.8324 35.6757 64.7236 35.6757C64.067 35.6757 64.0148 35.6236 64.0148 34.9671C64.0148 34.5773 63.8632 34.0422 63.6781 33.7779C63.3438 33.3005 63.3012 33.2973 57.2025 33.2973C51.1037 33.2973 51.0611 33.3005 50.7268 33.7779C50.5417 34.0422 50.3901 34.5773 50.3901 34.9671C50.3901 35.6329 50.3442 35.6757 49.6331 35.6757C49.1645 35.6757 48.7114 35.8404 48.4437 36.1081C47.568 36.9836 48.078 38.0171 49.4785 38.205C50.2588 38.3096 50.3901 38.4011 50.3901 38.8394V39.3514H44.8898C39.5817 39.3514 39.3849 39.3362 39.2526 38.9194C38.9894 38.0906 37.3501 38.0986 37.0862 38.9299C36.9937 39.2214 36.7568 39.3514 36.3183 39.3514H35.684V36.6822C35.684 33.7632 35.8665 33.2973 37.0094 33.2973C37.7915 33.2973 38.0629 33.691 38.0629 34.8249C38.0629 36.6095 39.245 37.5209 40.253 36.5131C40.6514 36.1148 40.6985 35.875 40.6057 34.7196C40.479 33.1395 40.0447 32.2086 39.131 31.5581C37.7065 30.544 35.9171 30.603 34.6048 31.707C33.4478 32.6802 33.305 33.1983 33.305 36.4216V39.3514H32.7414C32.3945 39.3514 32.0107 39.1388 31.7431 38.7989C31.1845 38.0889 30.0638 38.1258 29.7394 38.8649C29.5361 39.328 29.4088 39.3514 27.0902 39.3514H24.6544V27.5008C24.6544 17.6091 24.6035 15.5808 24.3475 15.2305C24.0514 14.8255 23.6383 14.8086 12.5069 14.7518C2.28421 14.6997 0.917834 14.7317 0.486599 15.0344ZM22.1316 38.2162C22.1119 49.7217 22.0875 59.6945 22.0776 60.3784L22.0592 61.6216H12.219H2.37893V39.4595V17.2973H12.2731H22.1673L22.1316 38.2162ZM61.5905 37.5676L61.6534 39.3514H57.3192H52.9853V37.509V35.6666L57.2565 35.7252L61.5278 35.7838L61.5905 37.5676ZM17.6411 37.3126C17.3502 37.6037 17.3013 38.4376 17.3013 43.117C17.3013 48.1364 17.3335 48.6108 17.6969 48.9395C18.2224 49.4149 18.7215 49.3909 19.2477 48.8649C19.6571 48.4556 19.6802 48.1442 19.6802 43.0394C19.6802 37.7114 19.6744 37.6422 19.1995 37.3096C18.5877 36.8811 18.0719 36.8822 17.6411 37.3126ZM44.2827 51.7297L44.2265 61.5135L34.4404 61.5697L24.6544 61.6259V51.7859V41.9459H34.4966H44.3389L44.2827 51.7297ZM66.3938 44.4346V46.9232L56.6077 46.867L46.8217 46.8108L46.7605 44.3784L46.6993 41.9459H56.5465H66.3938V44.4346ZM50.921 43.5578C50.629 43.8497 50.3901 44.1946 50.3901 44.3243C50.3901 44.4541 50.629 44.7989 50.921 45.0908C51.213 45.3827 51.5579 45.6216 51.6877 45.6216C51.9939 45.6216 52.9853 44.6305 52.9853 44.3243C52.9853 44.0182 51.9939 43.027 51.6877 43.027C51.5579 43.027 51.213 43.2659 50.921 43.5578ZM56.0841 43.2832C55.1631 43.7286 55.2225 45.0638 56.1797 45.4277C57.4403 45.9068 58.3683 44.1379 57.2624 43.3637C56.7128 42.9788 56.7139 42.9788 56.0841 43.2832ZM62.1167 43.3637C61.4462 43.8331 61.47 44.8545 62.1621 45.3077C62.5505 45.5622 62.7958 45.5948 63.099 45.4327C64.185 44.8515 64.2644 43.741 63.2529 43.2802C62.5732 42.9706 62.6898 42.9622 62.1167 43.3637ZM28.5547 47.3371C28.1985 48.0026 28.2926 48.5974 28.8117 48.9606C29.2146 49.2428 30.1406 49.2973 34.5427 49.2973C39.5047 49.2973 39.8168 49.2735 40.2255 48.8649C40.7461 48.3444 40.7664 48.0346 40.3213 47.3996C39.9883 46.9239 39.9267 46.9189 34.3816 46.9189C29.0634 46.9189 28.7673 46.9401 28.5547 47.3371ZM66.3938 55.4595V61.6216H56.5537H46.7135V55.4595V49.2973H56.5537H66.3938V55.4595ZM50.945 53.2601C50.4932 53.5905 50.4264 54.5498 50.8219 55.0264C51.2344 55.5232 61.8792 55.5096 62.3775 55.0117C62.8652 54.5239 62.7973 53.7021 62.2365 53.3096C61.579 52.8491 51.5672 52.8052 50.945 53.2601Z" fill="white"/>
</svg>
