<svg width="212" height="208" viewBox="0 0 212 208" fill="none" xmlns="http://www.w3.org/2000/svg">
<path fill-rule="evenodd" clip-rule="evenodd" d="M52.7874 32.782L0.33739 65.565L0.0603903 80.282C-0.0916097 88.377 0.0533904 95 0.38239 95C0.71139 95 2.97339 93.832 5.40939 92.405L9.83739 89.81V148.905V208H105.837H201.837V148.905V89.81L206.265 92.405C208.701 93.832 210.963 95 211.292 95C211.621 95 211.766 88.377 211.614 80.282L211.337 65.565L158.887 32.782C130.039 14.752 106.166 0 105.837 0C105.508 0 81.6354 14.752 52.7874 32.782ZM155.946 38.568L204.837 69.136V76.512V83.887L155.337 52.94L105.837 21.993L56.3374 52.94L6.83739 83.887V76.512V69.138L55.5874 38.605C82.4004 21.812 104.949 8.056 105.696 8.036C106.444 8.016 129.056 21.756 155.946 38.568ZM151.472 58.141L194.837 85.242V135.292C194.837 180.461 194.676 185.521 193.182 187.171C191.642 188.873 191.642 189.127 193.182 190.829C194.225 191.981 194.837 194.385 194.837 197.329V202H105.837H16.8374V197.329C16.8374 194.385 17.4494 191.981 18.4924 190.829C20.0324 189.127 20.0324 188.873 18.4924 187.171C16.9984 185.521 16.8374 180.461 16.8374 135.289V85.236L61.0724 57.601C85.6944 42.22 105.928 30.205 106.707 30.504C107.477 30.799 127.621 43.236 151.472 58.141ZM92.8374 93V109H76.8074H60.7774L61.0574 121.75L61.3374 134.5L77.0624 134.775L92.7864 135.051L93.0624 150.775L93.3374 166.5H105.837H118.337L118.612 150.775L118.888 135.051L134.612 134.775L150.337 134.5L150.617 121.75L150.897 109H134.867H118.837V93V77H105.837H92.8374V93ZM112.062 99.75L112.337 115.5L128.087 115.775L143.837 116.051V122V127.949L128.087 128.225L112.337 128.5L112.062 144.25L111.786 160H105.837H99.8884L99.6124 144.25L99.3374 128.5L83.5874 128.225L67.8374 127.949V122V116.051L83.5874 115.775L99.3374 115.5L99.6124 99.75L99.8884 84H105.837H111.786L112.062 99.75ZM26.2264 187.43C25.2304 190.025 26.6254 192.169 29.0834 191.82C30.7354 191.585 31.3374 190.833 31.3374 189C31.3374 187.167 30.7354 186.415 29.0834 186.18C27.7304 185.988 26.5874 186.488 26.2264 187.43ZM39.2264 187.43C38.2304 190.025 39.6254 192.169 42.0834 191.82C43.7354 191.585 44.3374 190.833 44.3374 189C44.3374 187.167 43.7354 186.415 42.0834 186.18C40.7304 185.988 39.5874 186.488 39.2264 187.43ZM52.2264 187.43C51.2304 190.025 52.6254 192.169 55.0834 191.82C56.7354 191.585 57.3374 190.833 57.3374 189C57.3374 187.167 56.7354 186.415 55.0834 186.18C53.7304 185.988 52.5874 186.488 52.2264 187.43ZM64.8374 187.5C63.8444 188.697 63.8444 189.303 64.8374 190.5C67.4574 193.657 71.6594 191.306 70.1994 187.5C69.8824 186.675 68.8264 186 67.8524 186C66.8794 186 65.5224 186.675 64.8374 187.5ZM77.4754 187.5C76.6214 189.726 77.8074 192 79.8224 192C82.5914 192 84.3694 189.346 82.8374 187.5C82.1524 186.675 80.7954 186 79.8224 186C78.8484 186 77.7924 186.675 77.4754 187.5ZM90.2264 187.43C89.2304 190.025 90.6254 192.169 93.0834 191.82C94.7354 191.585 95.3374 190.833 95.3374 189C95.3374 187.167 94.7354 186.415 93.0834 186.18C91.7304 185.988 90.5874 186.488 90.2264 187.43ZM103.226 187.43C102.23 190.025 103.625 192.169 106.083 191.82C107.735 191.585 108.337 190.833 108.337 189C108.337 187.167 107.735 186.415 106.083 186.18C104.73 185.988 103.587 186.488 103.226 187.43ZM116.226 187.43C115.23 190.025 116.625 192.169 119.083 191.82C120.735 191.585 121.337 190.833 121.337 189C121.337 187.167 120.735 186.415 119.083 186.18C117.73 185.988 116.587 186.488 116.226 187.43ZM128.837 187.5C127.844 188.697 127.844 189.303 128.837 190.5C131.457 193.657 135.659 191.306 134.199 187.5C133.882 186.675 132.826 186 131.852 186C130.879 186 129.522 186.675 128.837 187.5ZM141.475 187.5C140.621 189.726 141.807 192 143.822 192C146.591 192 148.369 189.346 146.837 187.5C146.152 186.675 144.795 186 143.822 186C142.848 186 141.792 186.675 141.475 187.5ZM154.226 187.43C153.23 190.025 154.625 192.169 157.083 191.82C158.735 191.585 159.337 190.833 159.337 189C159.337 187.167 158.735 186.415 157.083 186.18C155.73 185.988 154.587 186.488 154.226 187.43ZM167.226 187.43C166.23 190.025 167.625 192.169 170.083 191.82C171.735 191.585 172.337 190.833 172.337 189C172.337 187.167 171.735 186.415 170.083 186.18C168.73 185.988 167.587 186.488 167.226 187.43ZM180.226 187.43C179.23 190.025 180.625 192.169 183.083 191.82C184.735 191.585 185.337 190.833 185.337 189C185.337 187.167 184.735 186.415 183.083 186.18C181.73 185.988 180.587 186.488 180.226 187.43Z" fill="white"/>
</svg>
