<svg width="69" height="61" viewBox="0 0 69 61" fill="none" xmlns="http://www.w3.org/2000/svg">
<path fill-rule="evenodd" clip-rule="evenodd" d="M12.7222 0.163665C11.8781 0.411364 11.5289 0.895682 9.85447 4.14206C8.71331 6.35482 8.22727 7.12215 7.9265 7.18712C7.70515 7.23501 6.39416 7.40515 5.01304 7.56553C3.63193 7.72571 2.20543 7.93811 1.84308 8.03726C0.546605 8.39219 -0.259371 9.82242 0.0761886 11.1736C0.156172 11.4953 1.18257 12.6943 2.71565 14.2566L5.22435 16.813L4.64549 20.1554C4.2904 22.2057 4.11518 23.7208 4.19219 24.075C4.36592 24.8738 4.78797 25.4729 5.40347 25.7942C6.41555 26.3227 7.09206 26.1456 10.3628 24.4962L13.4764 22.9261L16.3596 24.5399C18.9323 25.9799 19.3465 26.154 20.207 26.157C21.0245 26.1597 21.2588 26.0755 21.7458 25.6047C22.764 24.6198 22.802 24.1071 22.1403 20.2705L21.5533 16.8648L23.2811 15.2038C24.2315 14.2904 25.3137 13.2756 25.6859 12.949C26.9269 11.8602 27.2712 10.5244 26.5982 9.40984C25.9863 8.3967 25.4946 8.21266 21.985 7.68309L18.6847 7.18506L17.0852 3.99671C15.5798 0.995588 15.4379 0.783382 14.6741 0.385637C13.8006 -0.0691981 13.5955 -0.0924843 12.7222 0.163665ZM15.1297 6.68177L16.692 9.83219L19.6415 10.2619C21.2637 10.4983 22.7981 10.7424 23.0512 10.8044C23.477 10.9086 23.3204 11.102 20.9694 13.3743L18.4271 15.8316L19.0435 19.3619C19.4427 21.6474 19.5864 22.8723 19.4512 22.8361C19.3365 22.8051 17.9533 22.0692 16.3778 21.2006L13.5131 19.6211L10.451 21.1636C8.7667 22.0119 7.34131 22.6579 7.28328 22.5993C7.22524 22.5407 7.43618 20.994 7.75202 19.1623L8.32623 15.8316L5.81511 13.2763L3.304 10.721L4.94906 10.5107C5.8538 10.395 7.41683 10.1997 8.42258 10.0763L10.2509 9.85228L11.8182 6.69173C12.6801 4.95333 13.4264 3.53117 13.4764 3.53117C13.5265 3.53117 14.2705 4.94882 15.1297 6.68177ZM30.6822 10.4795V11.9819H48.4461H66.2099V29.5405V47.0991H62.5859H58.9617L58.9122 51.9694L58.8625 56.8396L52.9129 51.9694L46.9632 47.0991H30.6383H14.3135V37.3339V27.5687H12.8254H11.3373V38.8363V50.1038L28.6826 50.1044L46.0279 50.105L52.4452 55.3765C55.9747 58.2756 59.0564 60.7262 59.2931 60.8219C60.1069 61.1506 60.8167 61.0236 61.388 60.4469L61.9317 59.898V55.0009V50.1038H65.4658H69V29.5405V8.97717H49.8411H30.6822V10.4795ZM28.0781 19.7753V21.1837H44.0748H60.0716V19.7753V18.3668H44.0748H28.0781V19.7753ZM28.0781 28.3198V29.8222H44.0748H60.0716V28.3198V26.8175H44.0748H28.0781V28.3198ZM28.0781 36.8644V38.2729H44.0748H60.0716V36.8644V35.456H44.0748H28.0781V36.8644Z" fill="white"/>
</svg>
