<svg width="30" height="30" viewBox="0 0 30 30" fill="none" xmlns="http://www.w3.org/2000/svg">
<path fill-rule="evenodd" clip-rule="evenodd" d="M221.783 -134.5C-61.6953 -134.5 -291.5 95.3047 -291.5 378.783C-291.5 662.261 -61.6953 892.067 221.783 892.067C505.261 892.067 735.067 662.261 735.067 378.783C735.067 95.3047 505.261 -134.5 221.783 -134.5ZM-292.5 378.783C-292.5 94.7525 -62.2475 -135.5 221.783 -135.5C505.813 -135.5 736.067 94.7525 736.067 378.783C736.067 662.813 505.813 893.067 221.783 893.067C-62.2475 893.067 -292.5 662.813 -292.5 378.783ZM15 1C7.26801 1 1 7.26801 1 15C1 22.732 7.26801 29 15 29C22.732 29 29 22.732 29 15C29 7.26801 22.732 1 15 1ZM0 15C0 6.71573 6.71573 0 15 0C23.2842 0 30 6.71573 30 15C30 23.2842 23.2842 30 15 30C6.71573 30 0 23.2842 0 15ZM9.31229 6.62681C9.63129 6.25923 9.80204 6.12814 10.0859 6.03295C10.1845 5.99987 10.3321 5.99221 10.5731 6.00767C11.3915 6.0601 11.5181 6.07666 11.6044 6.14268C11.8063 6.297 11.8942 6.51562 12.381 8.07401C12.7544 9.2695 12.9129 9.76517 13.0121 10.0479C13.1676 10.4909 13.1657 10.5982 12.9953 10.9934C12.8453 11.3412 12.587 11.7175 12.0946 12.3057C11.7279 12.7436 11.7052 12.8789 11.9182 13.3575C12.3668 14.3656 13.1049 15.5131 13.8475 16.357C14.6708 17.2927 15.4399 17.9132 16.5689 18.5528C17.1243 18.8675 17.2771 18.9078 17.4711 18.7908C17.5777 18.7266 18.1434 18.0148 18.6659 17.2876C18.8689 17.0051 19.058 16.7516 19.0862 16.7244C19.1712 16.6421 19.3968 16.6324 19.5816 16.7031C19.8383 16.8013 20.5754 17.2428 22.3583 18.3662C22.9775 18.7565 22.9843 18.7648 22.9983 19.1569C23.0175 19.6954 22.8704 20.4641 22.6399 21.0289C22.3871 21.6487 21.4972 22.4122 20.621 22.7612C20.3504 22.869 19.588 23.003 19.263 22.9999C18.7647 22.9952 18.0222 22.7532 16.8587 22.2164C15.4068 21.5465 14.79 21.1882 13.9516 20.5279C12.7613 19.5903 11.4486 18.0865 10.4221 16.4844C10.123 16.0176 9.37034 14.7045 9.06646 14.1192C8.7011 13.4156 8.34134 12.4683 8.18983 11.8111C8.04117 11.1661 8.00013 10.8333 8 10.2723C7.99981 9.41176 8.11713 8.79079 8.41878 8.05569C8.64045 7.5155 8.89668 7.10578 9.31229 6.62681Z" fill="#F2F2F2"/>
</svg>
