<svg width="30" height="30" viewBox="0 0 30 30" fill="none" xmlns="http://www.w3.org/2000/svg">
<path d="M29.5 15C29.5 23.0081 23.0081 29.5 15 29.5C6.99187 29.5 0.5 23.0081 0.5 15C0.5 6.99187 6.99187 0.5 15 0.5C23.0081 0.5 29.5 6.99187 29.5 15Z" stroke="#F2F2F2"/>
<path d="M22.6703 11.6328C22.486 10.9943 21.9455 10.491 21.2602 10.3191C20.0081 10 14.9998 10 14.9998 10C14.9998 10 9.9917 10 8.73965 10.307C8.06748 10.4787 7.51387 10.9944 7.32949 11.6328C7 12.7989 7 15.2174 7 15.2174C7 15.2174 7 17.648 7.32949 18.802C7.51406 19.4404 8.0543 19.9437 8.73975 20.1156C10.0049 20.4348 15 20.4348 15 20.4348C15 20.4348 20.0081 20.4348 21.2602 20.1278C21.9456 19.9559 22.486 19.4526 22.6705 18.8143C22.9999 17.648 22.9999 15.2297 22.9999 15.2297C22.9999 15.2297 23.0131 12.7989 22.6703 11.6328ZM13.4053 17.4516V12.9831L17.5699 15.2174L13.4053 17.4516Z" fill="#F2F2F2"/>
</svg>
